<svg width="40" height="40" viewBox="0 0 40 40" fill="none" xmlns="http://www.w3.org/2000/svg">
<g clip-path="url(#clip0_602_2131)">
<path d="M32.1722 16.6663H34.1722C34.5403 16.6663 34.8388 16.3678 34.8388 15.9997V13.9997C34.8388 13.6315 34.5403 13.333 34.1722 13.333C33.804 13.333 33.5055 13.6315 33.5055 13.9997V15.333H32.1722C31.804 15.333 31.5055 15.6315 31.5055 15.9997C31.5055 16.3678 31.804 16.6663 32.1722 16.6663Z" fill="#97D7FF"/>
<path d="M16.4883 14.0003C17.961 14.0003 19.155 12.8063 19.155 11.3337C19.155 9.861 17.961 8.66699 16.4883 8.66699C15.0153 8.66699 13.8217 9.861 13.8217 11.3337C13.8217 12.8063 15.0153 14.0003 16.4883 14.0003ZM16.4883 10.0003C17.2247 10.0003 17.8217 10.5973 17.8217 11.3337C17.8217 12.07 17.2247 12.667 16.4883 12.667C15.7517 12.667 15.155 12.07 15.155 11.3337C15.155 10.5973 15.7517 10.0003 16.4883 10.0003Z" fill="#97D7FF"/>
<path d="M1.92541 13.7786C2.20763 13.9245 2.52111 14.0003 2.83882 14C3.68745 14 4.44233 13.4613 4.7187 12.6585L9.96154 12.5775L9.04683 13.3333C8.79487 13.5404 8.72977 13.8991 8.89285 14.1813L10.1386 16.3333L10.166 19.3333H6.83882C6.79975 19.3372 6.76102 19.3451 6.72326 19.3568C6.40848 18.43 5.46935 17.8672 4.50353 18.0267C3.53804 18.1862 2.8297 19.0212 2.8297 20C2.8297 20.9788 3.53804 21.8138 4.50353 21.9733C5.46935 22.1328 6.40848 21.57 6.72326 20.6432C6.76102 20.6549 6.79975 20.6628 6.83882 20.6667H10.8388C11.0166 20.6667 11.1871 20.5957 11.3121 20.4694C11.4375 20.3431 11.5071 20.1719 11.5055 19.9941L11.4749 16.6152L13.608 15.8154C13.7529 15.9092 13.9 15.9948 14.0488 16.0726L14.4986 18.7754C14.5524 19.0967 14.8307 19.3324 15.1569 19.332H15.5055V22.6654H13.5055C13.1373 22.6654 12.8388 22.9639 12.8388 23.332V33.0573L7.03413 38.862C6.84337 39.0527 6.78641 39.3395 6.8896 39.5885C6.99279 39.8376 7.23595 40 7.50548 40H28.8388C29.1083 40 29.3515 39.8376 29.4544 39.5885C29.5576 39.3395 29.5006 39.0527 29.3102 38.862L24.8388 34.3906V30.8512L26.3313 28.3652C28.8496 29.8848 30.372 30.6667 30.8388 30.6667H34.8388C35.207 30.6667 35.5055 30.3682 35.5055 30V26.276L36.6429 25.1387C36.7675 25.0133 36.8382 24.8438 36.8388 24.6667V22.6667H37.8128C38.2639 22.6667 38.6848 22.4385 38.9309 22.0599C39.1767 21.6816 39.2148 21.2044 39.0315 20.792L36.9586 16.1253C37.7454 15.1885 38.1751 14.0039 38.1721 12.7806C38.1871 8.36816 35.692 4.33138 31.7389 2.37142L29.8053 1.40332C29.512 1.25716 29.1559 1.3457 28.9654 1.61263L28.6861 2H24.1721V0.666667C24.1721 0.298503 23.8736 0 23.5055 0H16.8388C16.4707 0 16.1721 0.298503 16.1721 0.666667V3.33333H15.1549C14.8287 3.33301 14.5501 3.56901 14.4967 3.89062L14.0468 6.59277C13.8981 6.67057 13.7506 6.75586 13.6061 6.84994L11.0387 5.88802C10.7337 5.77344 10.3906 5.89648 10.2275 6.17871L9.55529 7.34342C9.53804 7.34342 9.52404 7.33333 9.50679 7.33333H5.50548V5.21061C6.42378 4.88607 6.97456 3.94694 6.80985 2.98698C6.64513 2.02669 5.81278 1.3252 4.83882 1.3252C3.86453 1.3252 3.03218 2.02669 2.86746 2.98698C2.70275 3.94694 3.25386 4.88607 4.17215 5.21061V8C4.17215 8.36816 4.47065 8.66667 4.83882 8.66667H8.82873C8.76753 8.91244 8.85216 9.17122 9.04683 9.33333L11.1614 11.0745C11.1614 11.1234 11.1614 11.1732 11.1575 11.2227L4.7161 11.3219C4.41336 10.4769 3.58426 9.93685 2.68875 10.002C1.79324 10.0667 1.05073 10.7204 0.872996 11.6003C0.694936 12.4805 1.12527 13.3711 1.92541 13.7786ZM4.83882 20.6667C4.47065 20.6667 4.17215 20.3682 4.17215 20C4.17215 19.6318 4.47065 19.3333 4.83882 19.3333C5.20698 19.3333 5.50548 19.6318 5.50548 20C5.50548 20.3682 5.20698 20.6667 4.83882 20.6667ZM4.83882 2.66667C5.20698 2.66667 5.50548 2.96517 5.50548 3.33333C5.50548 3.7015 5.20698 4 4.83882 4C4.47065 4 4.17215 3.7015 4.17215 3.33333C4.17215 2.96517 4.47065 2.66667 4.83882 2.66667ZM16.8388 19.3333H17.8216C18.1471 19.3333 18.4251 19.098 18.4788 18.7767L18.9293 16.0739C19.0774 15.9967 19.2249 15.9108 19.3694 15.8167L21.9381 16.7786C22.2431 16.8932 22.5862 16.7702 22.7493 16.488L23.0315 16H26.1721C26.2213 15.9961 26.2698 15.9863 26.3167 15.9707L27.5055 17.5553V18.6667H24.8388V20H26.3769L24.5914 20.7139C24.3382 20.8151 24.1718 21.0605 24.1721 21.3333V22.6667H16.8388V19.3333ZM24.0826 8.48796L23.8014 8H25.5055V10.6667H22.3128L23.9293 9.33333C24.1796 9.1263 24.2441 8.76953 24.0826 8.48796ZM25.5055 12V14.6667H23.8014L24.0826 14.1787C24.2441 13.8971 24.1796 13.5404 23.9293 13.3333L22.3128 12H25.5055ZM21.0341 28.4714L23.5055 30.9427V31.3333H19.5055V24H20.8388V28C20.8388 28.1768 20.9091 28.3464 21.0341 28.4714ZM16.8082 37.3333H16.8388V37.2988L19.3408 34.4395C19.4472 34.3177 19.5055 34.1615 19.5055 34V32.6667H20.8388V38.6667H15.6386L16.8082 37.3333ZM9.11486 38.6667L13.9768 33.8047C14.1018 33.6797 14.1721 33.5101 14.1721 33.3333V24H18.1721V33.7494L16.8388 35.2734V32H15.5055V36.8001L13.8694 38.6667H9.11486ZM27.2294 38.6667H22.1721V32.6667H23.5055V34.6667C23.5055 34.8434 23.5758 35.013 23.7008 35.138L27.2294 38.6667ZM24.0387 29.5921L22.1721 27.7253V24H24.1721V26.6667C24.1721 26.8965 24.2906 27.11 24.4853 27.2321C24.734 27.388 24.9586 27.5254 25.1933 27.6699L24.0387 29.5921ZM29.7167 2.85059L31.1422 3.56413C34.6425 5.29915 36.8518 8.8737 36.8388 12.7806C36.8417 13.8118 36.4319 14.8014 35.7008 15.5286C35.5058 15.7236 35.4508 16.0186 35.5628 16.2705L37.8128 21.3333H36.1721C35.804 21.3333 35.5055 21.6318 35.5055 22V24H35.3909C34.3596 24.0029 33.3704 23.5931 32.6435 22.862C32.3818 22.6094 31.9661 22.613 31.7089 22.8701C31.4518 23.1273 31.4482 23.543 31.7008 23.8047C32.4908 24.5973 33.5169 25.112 34.6246 25.2715L34.3675 25.5286C34.2425 25.6536 34.1721 25.8232 34.1721 26V29.3333L30.902 29.3372C29.3619 28.625 27.8746 27.8027 26.4521 26.8773L26.4488 26.874H26.4446C26.1308 26.6833 25.816 26.4899 25.5055 26.2972V21.7845L28.4195 20.6195C28.6728 20.5182 28.8388 20.2728 28.8388 20V17.3333C28.8388 17.1891 28.7919 17.0488 28.7054 16.9333L26.8388 14.4447V6.87988L29.7167 2.85059ZM17.5055 1.33333H22.8388V2.66667C22.8388 3.03483 23.1373 3.33333 23.5055 3.33333H27.734L25.6302 6.2793C25.5488 6.39225 25.5052 6.52767 25.5055 6.66667H23.0315L22.7493 6.17871C22.5862 5.89648 22.2431 5.77344 21.9381 5.88802L19.372 6.84994C19.2275 6.75586 19.08 6.66992 18.9319 6.59277L18.4788 3.88997C18.4251 3.56869 18.1471 3.33333 17.8216 3.33333H17.5055V1.33333ZM10.33 8.66667L11.0986 7.33333L13.4661 8.2207C13.6787 8.30013 13.9169 8.26628 14.0986 8.13053C14.3496 7.94141 14.622 7.78255 14.9101 7.65723C15.1188 7.56771 15.2675 7.37793 15.3046 7.15397L15.7194 4.66667H17.2568L17.6715 7.15462C17.7086 7.37858 17.8574 7.56836 18.066 7.65788C18.3541 7.78353 18.6263 7.94238 18.8776 8.13119C19.0592 8.26693 19.2971 8.30078 19.5094 8.22135L21.8776 7.33333L22.6455 8.66667L20.6953 10.2715C20.5201 10.4157 20.4303 10.6396 20.4573 10.8652C20.4983 11.1764 20.4983 11.4915 20.4573 11.8027C20.4303 12.0283 20.5201 12.2523 20.6953 12.3968L22.6455 14L21.8776 15.3333L19.5094 14.446C19.2971 14.3665 19.0592 14.4004 18.8776 14.5361C18.6263 14.7249 18.3541 14.8838 18.066 15.0094C17.8574 15.099 17.7086 15.2887 17.6715 15.5127L17.2568 18H15.7187L15.3053 15.512C15.2682 15.2881 15.1194 15.0983 14.9108 15.0088C14.6227 14.8835 14.3502 14.7246 14.0996 14.5355C13.9176 14.3997 13.6793 14.3656 13.4667 14.4453L11.0986 15.3333L10.33 14L12.2802 12.3952C12.2919 12.3838 12.3033 12.3714 12.3141 12.3587C12.3271 12.3464 12.3391 12.3337 12.3509 12.32C12.401 12.266 12.4414 12.2038 12.4707 12.1361L12.4749 12.1286C12.5026 12.0553 12.5172 11.9772 12.5175 11.8988C12.5198 11.8893 12.5218 11.8796 12.5227 11.8701C12.5227 11.862 12.5188 11.8555 12.5182 11.8473C12.5175 11.8392 12.5182 11.8167 12.5182 11.8014C12.4772 11.4902 12.4772 11.1751 12.5182 10.8639C12.5449 10.6383 12.455 10.4144 12.2796 10.2699L10.33 8.66667ZM2.24604 11.6953C2.32547 11.5361 2.4661 11.416 2.63537 11.362C2.97651 11.2751 3.32645 11.4684 3.43452 11.8037C3.54259 12.1387 3.37104 12.5 3.04357 12.6286C2.69298 12.7412 2.31733 12.5485 2.2047 12.1979C2.15164 12.0316 2.16629 11.8509 2.24604 11.6953Z" fill="#97D7FF"/>
<path d="M15.5055 26.667H16.8388V28.0003H15.5055V26.667Z" fill="#97D7FF"/>
<path d="M15.5055 29.333H16.8388V30.6663H15.5055V29.333Z" fill="#97D7FF"/>
<path d="M19.5055 18.667H20.8388V20.0003H19.5055V18.667Z" fill="#97D7FF"/>
<path d="M22.1722 18.667H23.5056V20.0003H22.1722V18.667Z" fill="#97D7FF"/>
<path d="M28.1722 6.66699H29.5056V9.33366H28.1722V6.66699Z" fill="#97D7FF"/>
<path d="M28.1722 10.667H29.5056V12.0003H28.1722V10.667Z" fill="#97D7FF"/>
<path d="M28.1722 13.333H29.5056V14.6663H28.1722V13.333Z" fill="#97D7FF"/>
</g>
<defs>
<clipPath id="clip0_602_2131">
<rect width="40" height="40" fill="white"/>
</clipPath>
</defs>
</svg>
