<svg width="40" height="40" viewBox="0 0 40 40" fill="none" xmlns="http://www.w3.org/2000/svg">
<g clip-path="url(#clip0_602_2076)">
<path d="M9.33922 20.8746H7.65852C6.58633 20.8746 5.71399 20.0078 5.71399 18.9424C5.71399 18.6187 5.45172 18.3564 5.12805 18.3564C4.80438 18.3564 4.54211 18.6187 4.54211 18.9424C4.54211 20.6539 5.94016 22.0464 7.6586 22.0464H9.33922C9.6629 22.0464 9.92516 21.7842 9.92516 21.4605C9.92516 21.1368 9.6629 20.8746 9.33922 20.8746Z" fill="#97D7FF"/>
<path d="M14.845 25.2119H9.83942C8.18614 25.2119 6.84106 26.5515 6.84106 28.1983C6.84106 28.522 7.10333 28.7843 7.427 28.7843C7.75067 28.7843 8.01294 28.5219 8.01294 28.1983C8.01294 27.1978 8.83224 26.3838 9.83942 26.3838H14.845C15.1687 26.3838 15.431 26.1215 15.431 25.7979C15.431 25.4742 15.1687 25.2119 14.845 25.2119Z" fill="#97D7FF"/>
<path d="M19.6194 25.2119H17.189C16.8653 25.2119 16.603 25.4742 16.603 25.7979C16.603 26.1215 16.8653 26.3838 17.189 26.3838H19.6194C19.943 26.3838 20.2053 26.1215 20.2053 25.7979C20.2053 25.4742 19.9429 25.2119 19.6194 25.2119Z" fill="#97D7FF"/>
<path d="M15.4994 13.8262C15.1757 13.8262 14.9135 14.0885 14.9135 14.4121C14.9135 16.0876 13.5424 17.4506 11.8571 17.4506C11.5334 17.4506 11.2711 17.7129 11.2711 18.0366C11.2711 18.3602 11.5334 18.6225 11.8571 18.6225C14.1885 18.6225 16.0853 16.7338 16.0853 14.4121C16.0853 14.0885 15.8231 13.8262 15.4994 13.8262Z" fill="#97D7FF"/>
<path d="M14.4193 4.9682C13.0196 4.87836 11.806 5.93953 11.7152 7.33453C11.6942 7.6575 11.939 7.93625 12.2619 7.95734C12.2749 7.9582 12.2877 7.95859 12.3006 7.95859C12.6068 7.95859 12.8645 7.72062 12.8847 7.4107C12.9335 6.66008 13.5881 6.09 14.344 6.13765C14.6672 6.15929 14.9456 5.91359 14.9663 5.59062C14.9872 5.26765 14.7423 4.98906 14.4193 4.9682Z" fill="#97D7FF"/>
<path d="M12.4487 27.8203C12.1251 27.8203 11.8628 28.0826 11.8628 28.4062C11.8628 28.7299 12.1251 28.9922 12.4487 28.9922C13.4163 28.9922 14.2035 29.7741 14.2035 30.7352C14.2035 31.6966 13.4163 32.4785 12.4487 32.4785C12.1251 32.4785 11.8628 32.7408 11.8628 33.0645C11.8628 33.3881 12.1251 33.6504 12.4487 33.6504C14.0625 33.6504 15.3754 32.3427 15.3754 30.7352C15.3754 29.128 14.0625 27.8203 12.4487 27.8203Z" fill="#97D7FF"/>
<path d="M18.4453 14.0225C18.1216 14.0225 17.8594 14.2847 17.8594 14.6084C17.8594 14.9321 18.1216 15.1943 18.4453 15.1943C19.2226 15.1943 19.855 15.8222 19.855 16.5941C19.855 17.3661 19.2226 17.994 18.4453 17.994C18.1216 17.994 17.8594 18.2563 17.8594 18.58C17.8594 18.9036 18.1216 19.1659 18.4453 19.1659C19.8688 19.1659 21.0269 18.0121 21.0269 16.5941C21.0269 15.1761 19.8688 14.0225 18.4453 14.0225Z" fill="#97D7FF"/>
<path d="M8.12354 10.2979C7.79986 10.2979 7.5376 10.5601 7.5376 10.8838C7.5376 11.2075 7.79986 11.4697 8.12354 11.4697C9.459 11.4697 10.5454 12.5494 10.5454 13.8766C10.5454 15.2039 9.459 16.2836 8.12354 16.2836C7.79986 16.2836 7.5376 16.5459 7.5376 16.8696C7.5376 17.1932 7.79986 17.4555 8.12354 17.4555C10.1051 17.4555 11.7173 15.85 11.7173 13.8766C11.7173 11.9032 10.1051 10.2979 8.12354 10.2979Z" fill="#97D7FF"/>
<path d="M35.6689 10.2705C34.5675 10.2705 33.6715 11.1634 33.6715 12.2609C33.6715 13.3585 34.5675 14.2514 35.6689 14.2514C36.7702 14.2514 37.6662 13.3585 37.6662 12.2609C37.6662 11.1634 36.7702 10.2705 35.6689 10.2705ZM35.6689 13.0796C35.2138 13.0796 34.8435 12.7124 34.8435 12.261C34.8434 11.8096 35.2137 11.4425 35.6689 11.4425C36.1241 11.4425 36.4944 11.8096 36.4944 12.261C36.4944 12.7123 36.1241 13.0796 35.6689 13.0796Z" fill="#97D7FF"/>
<path d="M37.6267 25.2666C36.5253 25.2666 35.6294 26.1595 35.6294 27.2571C35.6294 28.3546 36.5254 29.2475 37.6267 29.2475C38.7281 29.2475 39.624 28.3546 39.624 27.2571C39.624 26.1596 38.7281 25.2666 37.6267 25.2666ZM37.6267 28.0756C37.1716 28.0756 36.8013 27.7084 36.8013 27.2571C36.8013 26.8057 37.1716 26.4385 37.6267 26.4385C38.0819 26.4385 38.4521 26.8057 38.4521 27.2571C38.4522 27.7084 38.0819 28.0756 37.6267 28.0756Z" fill="#97D7FF"/>
<path d="M36.3974 18.2443C36.0594 18.2443 35.741 18.3287 35.4616 18.4771L34.3194 17.3405C34.0899 17.1122 33.719 17.1132 33.4908 17.3425C33.2625 17.5719 33.2635 17.9428 33.4928 18.1711L34.6321 19.3048C34.4842 19.5826 34.4 19.8989 34.4 20.2346C34.4 21.3322 35.296 22.2251 36.3974 22.2251C37.4988 22.2251 38.3947 21.3322 38.3947 20.2346C38.3947 19.1371 37.4987 18.2443 36.3974 18.2443ZM36.3974 21.0533C35.9423 21.0533 35.572 20.6861 35.572 20.2347C35.572 19.7835 35.9423 19.4162 36.3974 19.4162C36.8526 19.4162 37.2229 19.7834 37.2229 20.2347C37.2229 20.686 36.8526 21.0533 36.3974 21.0533Z" fill="#97D7FF"/>
<path d="M35.0771 31.3828C33.9756 31.3828 33.0797 32.2757 33.0797 33.3733C33.0797 34.4709 33.9757 35.3637 35.0771 35.3637C36.1785 35.3637 37.0744 34.4709 37.0744 33.3733C37.0744 32.2757 36.1785 31.3828 35.0771 31.3828ZM35.0771 34.1918C34.6219 34.1918 34.2516 33.8246 34.2516 33.3732C34.2516 32.9219 34.6219 32.5546 35.0771 32.5546C35.5322 32.5546 35.9025 32.9218 35.9025 33.3732C35.9026 33.8246 35.5323 34.1918 35.0771 34.1918Z" fill="#97D7FF"/>
<path d="M28.2211 11.0113C28.5936 11.0113 29.0379 10.8279 29.3019 10.5652L31.5655 8.31273C31.793 8.40266 32.0405 8.45266 32.2997 8.45266C33.4011 8.45266 34.297 7.55977 34.297 6.46219C34.297 5.36469 33.401 4.47188 32.2997 4.47188C31.1983 4.47188 30.3024 5.36477 30.3024 6.46219C30.3024 6.8743 30.4287 7.25766 30.645 7.57563L28.4755 9.73438C28.4297 9.77836 28.2845 9.83836 28.2211 9.83945H23.3847V5.96078H24.7451C24.9968 6.7732 25.7572 7.36531 26.654 7.36531C27.7554 7.36531 28.6514 6.47242 28.6514 5.37484C28.6514 4.27734 27.7554 3.38445 26.654 3.38445C25.7572 3.38445 24.9968 3.97648 24.7451 4.78891H23.3847V4.70016C23.3847 2.10844 21.2671 0 18.6642 0C16.8034 0 15.1342 1.08453 14.3725 2.74281C14.2554 2.73453 14.1386 2.73031 14.0227 2.73031C11.3174 2.73031 9.10918 4.89016 9.04645 7.56906C8.81285 7.53578 8.5766 7.51898 8.33934 7.51898C5.59465 7.51898 3.36176 9.74226 3.36176 12.475C3.36176 13.0748 3.46699 13.6552 3.67512 14.2073C1.62637 15.423 0.375977 17.5945 0.375977 20C0.375977 21.2916 0.743867 22.547 1.4398 23.6305C2.01309 24.523 2.78543 25.2659 3.69387 25.8036C3.47559 26.3693 3.36176 26.9751 3.36176 27.5834C3.36176 28.7898 3.80223 29.9523 4.60199 30.857C4.81629 31.0994 5.1866 31.1222 5.4291 30.9078C5.6716 30.6934 5.69434 30.3232 5.47996 30.0807C4.86965 29.3905 4.53363 28.5035 4.53363 27.5833C4.53363 26.9642 4.67996 26.3738 4.96809 25.8281C5.31199 25.1749 5.84629 24.6234 6.52215 24.2574C6.80676 24.1033 6.91246 23.7477 6.75832 23.4632C6.60426 23.1785 6.24856 23.0727 5.9641 23.227C5.26418 23.6062 4.68066 24.1378 4.24434 24.7672C2.56887 23.7593 1.54785 21.9772 1.54785 20C1.54785 17.8859 2.71879 15.9908 4.60926 15.0316C4.60926 15.0316 5.70316 14.423 7.15535 14.423C7.47902 14.423 7.74129 14.1607 7.74129 13.837C7.74129 13.5134 7.47902 13.2511 7.15535 13.2511C6.3041 13.2511 5.48926 13.4085 4.73801 13.695C4.60332 13.3044 4.53379 12.8962 4.53379 12.4751C4.53379 10.3884 6.24098 8.69094 8.33949 8.69094C8.73395 8.69094 9.12418 8.75133 9.49934 8.87047C9.6916 8.93148 9.90168 8.88937 10.0555 8.75891C10.2094 8.62844 10.2854 8.42812 10.2565 8.22844C10.2304 8.04656 10.2171 7.86422 10.2171 7.68641C10.2171 5.59984 11.9243 3.90227 14.0229 3.90227C14.2289 3.90227 14.4396 3.91992 14.6492 3.95438C16.4506 4.25234 17.8286 5.81195 17.8286 7.68641C17.8286 8.01008 18.0908 8.27234 18.4145 8.27234C18.7382 8.27234 19.0004 8.01008 19.0004 7.68641C19.0004 5.49094 17.5586 3.62555 15.5685 2.97664C16.1871 1.87648 17.3629 1.17188 18.6642 1.17188C20.6209 1.17188 22.2129 2.75469 22.2129 4.70016V4.76523H21.0859C20.7622 4.76523 20.5 5.0275 20.5 5.35117C20.5 5.67484 20.7622 5.93711 21.0859 5.93711H22.2129V9.83937H17.4738C16.4015 9.83937 15.5292 8.97266 15.5292 7.90734C15.5292 7.58367 15.2669 7.32141 14.9432 7.32141C14.6196 7.32141 14.3573 7.58367 14.3573 7.90734C14.3573 9.61883 15.7554 11.0112 17.4738 11.0112H22.2129V20.875H12.7083C12.3847 20.875 12.1224 21.1373 12.1224 21.4609C12.1224 21.7846 12.3847 22.0469 12.7083 22.0469H22.2129V30.0919H20.4022C18.7489 30.0919 17.4039 31.4315 17.4039 33.0782C17.4039 33.4019 17.6662 33.6641 17.9899 33.6641C18.3136 33.6641 18.5758 33.4019 18.5758 33.0782C18.5758 32.0777 19.3951 31.2638 20.4022 31.2638H22.2129V35.2998C22.2129 35.3919 22.2082 35.4828 22.2012 35.573H21.0859C20.7622 35.573 20.5 35.8353 20.5 36.159C20.5 36.4827 20.7622 36.7449 21.0859 36.7449H21.9003C21.3439 37.9716 20.1032 38.8281 18.6642 38.8281C17.3717 38.8281 16.2002 38.1308 15.5784 37.0412C16.2861 36.81 16.9375 36.4214 17.4862 35.892C17.7191 35.6673 17.7257 35.2964 17.5011 35.0636C17.2764 34.8305 16.9054 34.824 16.6726 35.0487C16.1131 35.5885 15.4136 35.937 14.6583 36.063C14.4454 36.0986 14.2315 36.1167 14.0227 36.1167C11.9242 36.1167 10.2169 34.4191 10.2169 32.3325C10.2169 32.2791 10.2201 32.2238 10.2227 32.1689C10.6957 31.9764 11.14 31.713 11.5362 31.3822C11.7846 31.1748 11.8179 30.8053 11.6104 30.5569C11.403 30.3084 11.0396 30.2827 10.7851 30.4827C9.60934 31.4062 8.47215 31.3919 8.01723 31.3541C7.69379 31.3267 7.4116 31.5671 7.38473 31.8895C7.35793 32.212 7.5977 32.4952 7.9202 32.522C8.29481 32.553 8.67645 32.5421 9.04754 32.4892C9.13082 35.1498 11.3307 37.2886 14.0228 37.2886C14.1414 37.2886 14.261 37.2841 14.381 37.2754C15.1468 38.9227 16.8126 40 18.6642 40C21.2671 40 23.3847 37.8916 23.3847 35.2998V34.005H26.4908C26.5544 34.0061 26.6996 34.066 26.7453 34.1099L28.1422 35.5C27.9532 35.804 27.8438 36.162 27.8438 36.5452C27.8438 37.6427 28.7398 38.5356 29.8411 38.5356C30.9425 38.5356 31.8385 37.6427 31.8385 36.5452C31.8385 35.4476 30.9425 34.5547 29.8411 34.5547C29.5515 34.5547 29.2764 34.617 29.0277 34.7279L27.5718 33.2792C27.3079 33.0166 26.8635 32.8331 26.4911 32.8331H23.3847V29.7009H28.4785C28.7301 30.5134 29.4906 31.1055 30.3875 31.1055C31.4889 31.1055 32.3848 30.2126 32.3848 29.115C32.3848 28.0174 31.4888 27.1245 30.3875 27.1245C29.4907 27.1245 28.7301 27.7166 28.4785 28.5291H23.3847V24.6041H29.4802C29.7318 25.4165 30.4923 26.0086 31.3892 26.0086C32.4906 26.0086 33.3865 25.1157 33.3865 24.0181C33.3865 22.9205 32.4905 22.0277 31.3892 22.0277C30.4923 22.0277 29.7318 22.6197 29.4802 23.4322H23.3847V19.1674H24.8361C25.0879 19.9798 25.8483 20.5719 26.7451 20.5719C27.8465 20.5719 28.7425 19.679 28.7425 18.5815C28.7425 17.4839 27.8464 16.591 26.7451 16.591C25.8483 16.591 25.0878 17.183 24.8361 17.9955H23.3847V14.6142H29.7689C29.8325 14.6154 29.9777 14.6752 30.0234 14.7191L31.227 15.917C31.3413 16.0307 31.4907 16.0876 31.6403 16.0876C31.7907 16.0876 31.9411 16.03 32.0556 15.9149C32.2839 15.6855 32.2829 15.3145 32.0536 15.0863L30.85 13.8884C30.586 13.6258 30.1416 13.4423 29.7692 13.4423H23.3847V11.0113H28.2211ZM32.2997 5.64367C32.7548 5.64367 33.1251 6.01086 33.1251 6.46211C33.1251 6.91344 32.7548 7.2807 32.2997 7.2807C31.8445 7.2807 31.4743 6.91352 31.4743 6.46211C31.4743 6.01086 31.8445 5.64367 32.2997 5.64367ZM26.654 4.55633C27.1092 4.55633 27.4795 4.92352 27.4795 5.37484C27.4795 5.82617 27.1092 6.19344 26.654 6.19344C26.1989 6.19344 25.8286 5.82625 25.8286 5.37484C25.8286 4.92352 26.1989 4.55633 26.654 4.55633ZM29.8411 35.7265C30.2963 35.7265 30.6666 36.0938 30.6666 36.5451C30.6666 36.9964 30.2963 37.3637 29.8411 37.3637C29.386 37.3637 29.0157 36.9965 29.0157 36.5451C29.0157 36.0938 29.386 35.7265 29.8411 35.7265ZM30.3875 28.2964C30.8426 28.2964 31.2129 28.6636 31.2129 29.115C31.2129 29.5663 30.8426 29.9336 30.3875 29.9336C29.9323 29.9336 29.562 29.5664 29.562 29.115C29.562 28.6637 29.9323 28.2964 30.3875 28.2964ZM31.3891 23.1995C31.8443 23.1995 32.2146 23.5667 32.2146 24.0181C32.2146 24.4695 31.8443 24.8367 31.3891 24.8367C30.934 24.8367 30.5636 24.4695 30.5636 24.0181C30.5636 23.5667 30.934 23.1995 31.3891 23.1995ZM26.7451 17.7629C27.2003 17.7629 27.5706 18.1301 27.5706 18.5815C27.5706 19.0327 27.2003 19.4 26.7451 19.4C26.29 19.4 25.9197 19.0328 25.9197 18.5815C25.9197 18.1301 26.29 17.7629 26.7451 17.7629Z" fill="#97D7FF"/>
</g>
<defs>
<clipPath id="clip0_602_2076">
<rect width="40" height="40" fill="white"/>
</clipPath>
</defs>
</svg>
