<svg width="60" height="60" viewBox="0 0 60 60" fill="none" xmlns="http://www.w3.org/2000/svg">
<path d="M60 30C60 22.4481 57.1518 15.1739 52.024 9.6298C46.8961 4.08567 39.866 0.679456 32.337 0.0911634C24.808 -0.497129 17.3341 1.77578 11.4073 6.45614C5.48062 11.1365 1.53711 17.8799 0.364099 25.3402C-0.80891 32.8005 0.874882 40.4288 5.07933 46.7021C9.28377 52.9754 15.6995 57.4323 23.0458 59.1828C30.392 60.9334 38.1283 59.849 44.71 56.146C51.2918 52.443 56.2349 46.394 58.5524 39.2064L57.1191 38.7442C54.9179 45.571 50.2229 51.3164 43.9716 54.8335C37.7202 58.3506 30.3723 59.3806 23.3949 57.7178C16.4174 56.0551 10.3237 51.822 6.33037 45.8636C2.33699 39.9052 0.737725 32.6599 1.85185 25.5742C2.96597 18.4884 6.71151 12.0835 12.3407 7.63806C17.9699 3.19266 25.0686 1.03385 32.2197 1.59261C39.3707 2.15137 46.0479 5.38659 50.9183 10.6524C55.7887 15.9182 58.494 22.8272 58.494 30H60Z" fill="#97D7FF"/>
</svg>
