<svg width="48" height="48" viewBox="0 0 48 48" fill="none" xmlns="http://www.w3.org/2000/svg">
<g clip-path="url(#clip0_602_2192)">
<path d="M24 0C10.7663 0 0 10.7663 0 24C0 37.2337 10.7663 48 24 48C37.2337 48 48 37.2337 48 24C48 10.7663 37.2337 0 24 0ZM24 45C12.4206 45 3 35.5794 3 24C3 12.4206 12.4206 3 24 3C35.5794 3 45 12.4206 45 24C45 35.5794 35.5794 45 24 45ZM11.1261 18.0884C11.1261 16.4335 12.4724 15.0871 14.1274 15.0871C15.7823 15.0871 17.1287 16.4334 17.1287 18.0884C17.1287 19.7434 15.7823 21.0897 14.1274 21.0897C12.4724 21.0897 11.1261 19.7434 11.1261 18.0884ZM36.874 18.0884C36.874 19.7433 35.5277 21.0897 33.8727 21.0897C32.2178 21.0897 30.8714 19.7434 30.8714 18.0884C30.8714 16.4334 32.2178 15.0871 33.8727 15.0871C35.5276 15.0872 36.874 16.4335 36.874 18.0884Z" fill="#97D7FF"/>
<path d="M24.0003 38.5662C29.2941 38.5661 34.0202 35.8546 36.6427 31.3129C37.0569 30.5954 36.8112 29.6781 36.0937 29.2638C35.3763 28.8495 34.4589 29.0952 34.0447 29.8127C31.9645 33.4153 28.2095 35.5661 24.0002 35.5662C19.7908 35.5663 16.0355 33.4154 13.9551 29.8127C13.541 29.0954 12.6237 28.8496 11.9061 29.2639C11.1887 29.6781 10.943 30.5955 11.3573 31.3129C13.9799 35.8548 18.7064 38.5663 24.0003 38.5662Z" fill="#97D7FF"/>
</g>
<defs>
<clipPath id="clip0_602_2192">
<rect width="48" height="48" fill="white"/>
</clipPath>
</defs>
</svg>
