<svg width="17" height="17" viewBox="0 0 17 17" fill="none" xmlns="http://www.w3.org/2000/svg">
<path d="M17 8.5C17 6.91379 16.5562 5.35922 15.7187 4.01212C14.8812 2.66503 13.6834 1.57915 12.2609 0.877312C10.8384 0.175472 9.24794 -0.114329 7.66932 0.0406875C6.0907 0.195704 4.58695 0.789351 3.32815 1.75449C2.06934 2.71962 1.10572 4.01774 0.546254 5.50201C-0.0132101 6.98629 -0.146188 8.5975 0.162361 10.1534C0.470909 11.7093 1.20867 13.1479 2.29221 14.3063C3.37574 15.4648 4.76182 16.2969 6.29366 16.7087L6.53476 15.8116C5.17031 15.4449 3.9357 14.7037 2.97057 13.6718C2.00544 12.64 1.3483 11.3586 1.07347 9.97273C0.798634 8.58684 0.91708 7.1517 1.41541 5.82962C1.91374 4.50754 2.77206 3.35128 3.89331 2.49161C5.01455 1.63194 6.35398 1.10316 7.76009 0.965088C9.16621 0.827012 10.5829 1.08514 11.85 1.71029C13.117 2.33544 14.1838 3.30265 14.9298 4.50254C15.6758 5.70243 16.0712 7.08712 16.0712 8.5H17Z" fill="#97D7FF"/>
<path d="M11.5671 13.7395C12.8861 12.9674 13.8654 11.7262 14.3095 10.2638C14.7535 8.80135 14.6297 7.22523 13.9627 5.85009C13.2957 4.47494 12.1346 3.40195 10.7111 2.84532C9.28775 2.28869 7.70677 2.28937 6.28385 2.84723C4.86093 3.40508 3.70075 4.47908 3.03492 5.85479C2.3691 7.23051 2.24662 8.80673 2.69194 10.2688C3.13726 11.7308 4.11761 12.9712 5.43728 13.7421C6.75694 14.5131 8.31884 14.758 9.81114 14.4279L9.57347 13.3534C8.35166 13.6236 7.07288 13.4231 5.99241 12.7919C4.91195 12.1607 4.1093 11.1452 3.7447 9.94813C3.3801 8.75109 3.48038 7.46057 4.02551 6.33422C4.57065 5.20787 5.52053 4.32855 6.68554 3.87181C7.85054 3.41507 9.14495 3.41451 10.3103 3.87025C11.4757 4.32598 12.4264 5.20448 12.9725 6.33037C13.5186 7.45625 13.62 8.74668 13.2564 9.94404C12.8928 11.1414 12.0911 12.1576 11.0111 12.7897L11.5671 13.7395Z" fill="#97D7FF"/>
</svg>
