<svg width="40" height="35" viewBox="0 0 40 35" fill="none" xmlns="http://www.w3.org/2000/svg">
<path fill-rule="evenodd" clip-rule="evenodd" d="M17.6903 0.0185469C13.6622 0.518301 9.97605 2.16712 6.96143 4.81751C3.18849 8.13468 0.831397 12.5553 0.171267 17.5519C-0.253769 20.7696 0.114841 24.1061 1.24885 27.3065C1.61905 28.3512 2.56405 30.2464 3.22642 31.2727C3.76467 32.1066 4.58519 33.1867 5.2839 33.9811L5.6036 34.3445L5.65518 33.7242C5.75619 32.51 6.036 31.5326 6.5296 30.6696C6.81036 30.1788 7.74099 29.2535 8.2619 28.9472C8.64676 28.7208 8.69777 28.6637 8.71691 28.4371C8.73967 28.1668 8.73281 28.1555 7.89762 27.0863C7.40467 26.4552 6.90681 25.4462 6.70271 24.6646C6.51118 23.931 6.43821 22.3888 6.55641 21.5704C6.66933 20.7877 6.94113 19.6987 7.17709 19.0832C7.52453 18.1769 8.27663 16.6841 8.76293 15.9355L9.23724 15.2054V13.6423C9.23724 12.7825 9.25841 12.079 9.28428 12.079C9.31014 12.079 11.2527 12.7255 13.6011 13.5157C15.9495 14.3059 18.0822 14.9988 18.3405 15.0555C18.9531 15.19 20.3496 15.1888 20.9053 15.0533C21.1437 14.9951 23.2326 14.306 25.5472 13.5218L29.7557 12.0962V13.6273V15.1585L30.2185 15.8019C31.3777 17.4136 32.2116 19.17 32.6593 20.9431C32.8773 21.8061 32.8947 21.9611 32.8906 23.0134C32.8871 23.9381 32.8572 24.2607 32.7306 24.738C32.5058 25.585 32.0105 26.5433 31.384 27.3432C30.893 27.9701 30.8398 28.0689 30.8568 28.3246C30.8746 28.5949 30.9013 28.6238 31.3998 28.9117C33.0702 29.8763 33.9608 31.4645 34.1315 33.7827C34.159 34.156 34.1973 34.4615 34.2167 34.4615C34.236 34.4615 34.439 34.2552 34.6678 34.0029C38.9267 29.3057 40.749 23.0919 39.7182 16.7817C39.0771 12.8575 37.2207 9.10358 34.4984 6.22695C31.4708 3.02764 27.8116 1.01233 23.5785 0.212725C22.6414 0.0357191 22.397 0.0203815 20.2551 0.00438353C18.9835 -0.00508318 17.8293 0.00130135 17.6903 0.0185469ZM20.3571 4.74222C20.8551 4.8079 22.8806 5.46712 31.7783 8.45948C34.161 9.26078 34.4142 9.41371 34.0026 9.80324C33.8994 9.90084 31.5894 10.7111 27.5183 12.0776C21.0742 14.2406 20.8701 14.3043 20.107 14.3895C19.178 14.4932 18.7967 14.385 12.2113 12.1475C8.77601 10.9803 5.86427 9.96564 5.74087 9.89262C5.46517 9.72956 5.4138 9.47631 5.61964 9.29497C5.79181 9.14321 6.02379 9.06139 13.2103 6.61604C19.0554 4.62708 19.1987 4.5895 20.3571 4.74222ZM11.3324 17.6153C11.3324 17.7138 11.3681 17.8168 11.4118 17.8442C11.4554 17.8716 11.5855 18.0451 11.7008 18.2298C12.0252 18.7496 11.9978 19.1484 11.6034 19.6417C10.9857 20.4142 10.8824 20.5632 10.6648 20.9953C10.3337 21.6529 10.175 22.2408 10.1302 22.9767C9.9918 25.2448 11.4327 27.1362 13.6072 27.5411C15.0632 27.8122 16.6336 27.2968 17.7586 26.1787L18.1808 25.7591L18.2277 26.1658C18.3271 27.0255 18.9304 28.271 19.6691 29.1411L19.9183 29.4346L20.195 29.1114C20.8989 28.2895 21.5138 27.1353 21.6258 26.4258C21.7359 25.7296 21.6871 25.7422 22.2446 26.2665C23.7182 27.6523 25.7997 28.0011 27.516 27.1497C27.917 26.9508 28.201 26.7343 28.6085 26.3167C29.4644 25.4398 29.8279 24.5169 29.8279 23.2215C29.8279 22.0177 29.4244 20.9408 28.5993 19.9427C28.3698 19.665 28.1459 19.3694 28.1019 19.2857C27.927 18.954 28.0601 18.4566 28.4614 17.9419C28.8371 17.4602 28.7534 17.4061 27.7128 17.4583C26.0453 17.5419 24.4177 17.9377 23.145 18.5692C22.115 19.0803 21.5169 19.6531 21.0858 20.5414C20.5577 21.6297 20.4601 22.6262 20.7626 23.8403C20.8114 24.0358 20.806 24.0407 20.6198 23.9688C20.3679 23.8715 19.4546 23.8723 19.275 23.97C19.1078 24.0609 19.1058 24.0346 19.2444 23.5705C19.3826 23.1077 19.3809 22.0831 19.2409 21.4799C18.7382 19.3138 16.7761 18.0328 13.2109 17.5432C12.7937 17.4859 12.2003 17.4383 11.8924 17.4376C11.3465 17.4361 11.3324 17.4406 11.3324 17.6153ZM14.4145 19.4876C13.541 20.4697 13.5104 21.9328 14.3437 22.8725C15.6074 24.2974 17.907 23.0272 17.907 20.9042C17.907 20.4514 17.9785 20.4524 18.2081 20.9086C18.5404 21.5688 18.6509 22.5463 18.4791 23.307C18.145 24.7872 16.8656 26.024 15.3224 26.3587C14.8054 26.4708 14.6491 26.4764 14.1664 26.4002C11.7563 26.0201 10.6059 23.505 11.8116 21.2522C12.2679 20.3996 13.0991 19.6789 14.0102 19.3461C14.6371 19.1172 14.7186 19.1456 14.4145 19.4876ZM26.0242 19.3741C27.2118 19.8281 28.0774 20.7685 28.4963 22.0594C28.6728 22.6035 28.6719 23.5748 28.4944 24.1142C28.2479 24.863 27.6603 25.622 27.0402 25.9925C26.7011 26.195 25.7373 26.4631 25.3551 26.4613C24.9057 26.4591 24.1014 26.2519 23.6307 26.0172C22.1277 25.2674 21.1669 23.4769 21.4387 21.932C21.5281 21.4243 21.7609 20.8331 21.981 20.555C22.0915 20.4155 22.0952 20.4228 22.0551 20.7018C22.0005 21.0826 22.1903 21.9071 22.4269 22.3173C23.1996 23.6565 24.9112 23.8701 25.7608 22.7334C26.4264 21.8428 26.3391 20.3606 25.5686 19.4692C25.2843 19.1404 25.3676 19.123 26.0242 19.3741Z" fill="#0090EC"/>
</svg>
