<svg width="74" height="74" viewBox="0 0 74 74" fill="none" xmlns="http://www.w3.org/2000/svg">
<path d="M1.05009 45.7524C2.40705 51.326 5.0414 56.5078 8.74504 60.8884C12.4487 65.2691 17.1202 68.7285 22.3905 70.9936L23.987 67.2789C19.2926 65.2614 15.1316 62.1799 11.8326 58.278C8.53371 54.3761 6.18723 49.7605 4.97856 44.7959L1.05009 45.7524Z" fill="#97D7FF"/>
<path d="M50.5314 10.225C44.7423 7.29932 38.1609 6.32875 31.7736 7.45875C25.3864 8.58876 19.5375 11.7585 15.1036 16.4928C10.6696 21.2271 7.88954 27.2709 7.18002 33.7184C6.4705 40.1659 7.86977 46.6697 11.1681 52.2549C14.4664 57.8401 19.4861 62.2059 25.4747 64.6978C31.4634 67.1897 38.0983 67.6736 44.3851 66.0768C50.6719 64.48 56.2719 60.8887 60.3456 55.841C64.4192 50.7934 66.7472 44.5614 66.9806 38.0792L65.4755 38.0251C65.2539 44.1818 63.0428 50.101 59.1736 54.8952C55.3044 59.6894 49.9856 63.1005 44.0144 64.6171C38.0432 66.1337 31.7413 65.6742 26.0533 63.3073C20.3653 60.9405 15.5976 56.7939 12.4649 51.4891C9.33213 46.1843 8.00311 40.007 8.67701 33.8832C9.35091 27.7594 11.9914 22.0189 16.2028 17.5223C20.4141 13.0256 25.9694 10.015 32.036 8.94175C38.1026 7.86847 44.3536 8.79032 49.8521 11.5691L50.5314 10.225Z" fill="#97D7FF"/>
<path d="M23.0909 49.2508L22.3905 49.9646L23.0909 50.6518L23.7913 49.9646L23.0909 49.2508ZM32.6364 49.2508L31.936 49.9646L32.6431 50.6584L33.3435 49.9579L32.6364 49.2508ZM58.1364 24.749C58.1363 24.1967 57.6886 23.749 57.1363 23.749L48.1363 23.7493C47.584 23.7494 47.1363 24.1971 47.1364 24.7494C47.1364 25.3017 47.5841 25.7494 48.1364 25.7493L56.1364 25.7491L56.1367 33.7491C56.1367 34.3013 56.5844 34.749 57.1367 34.749C57.689 34.749 58.1367 34.3013 58.1367 33.749L58.1364 24.749ZM15.2996 43.0068L22.3905 49.9646L23.7913 48.537L16.7004 41.5793L15.2996 43.0068ZM23.7913 49.9646L43.1549 30.9646L41.7542 29.537L22.3905 48.537L23.7913 49.9646ZM24.8451 43.0068L31.936 49.9646L33.3367 48.537L26.2458 41.5793L24.8451 43.0068ZM33.3435 49.9579L57.8435 25.4561L56.4292 24.0419L31.9292 48.5437L33.3435 49.9579Z" fill="#0090EC"/>
</svg>
