<svg width="2103" height="956" viewBox="0 0 2103 956" fill="none" xmlns="http://www.w3.org/2000/svg">
<path d="M1511.07 630.565H1473.84V636.301H1511.07V630.565Z" fill="#00FFCC"/>
<path d="M1133.58 208.073H1110.62V219.557H1133.58V208.073Z" fill="#00FFCC"/>
<path d="M415.903 196.59H392.942V208.074H415.903V196.59Z" fill="#FF00FF"/>
<path d="M740.894 667.181H717.933V678.665H740.894V667.181Z" fill="#FF00FF"/>
<path d="M1499.6 273.512H1462.36V279.248H1499.6V273.512Z" fill="#0098CC"/>
<path d="M1351.7 174.267H1314.46V180.003H1351.7V174.267Z" fill="#FFA936"/>
<path d="M606.272 348.104H569.039V353.84H606.272V348.104Z" fill="#0098CC"/>
<path d="M736.543 159.055H699.311V164.791H736.543V159.055Z" fill="#0098CC"/>
<path d="M1649.3 634.497H1626.34V645.981H1649.3V634.497Z" fill="#0098CC"/>
<path d="M931.621 623.014H908.66V634.498H931.621V623.014Z" fill="#00FFCC"/>
<path d="M1121.99 774.527H1084.76V780.263H1121.99V774.527Z" fill="#0098CC"/>
<path d="M1252.26 585.479H1215.03V591.215H1252.26V585.479Z" fill="#0098CC"/>
<path d="M625.001 715.422C624.404 714.526 624.093 713.259 624.093 711.622V704.01C624.093 702.385 624.404 701.13 625.025 700.246C625.647 699.361 626.687 698.907 628.133 698.907C629.579 698.907 630.643 699.349 631.265 700.246C631.886 701.142 632.197 702.385 632.197 704.01V711.622C632.197 713.271 631.898 714.538 631.288 715.434C630.691 716.318 629.627 716.772 628.121 716.772C626.615 716.772 625.587 716.318 624.978 715.434L625.001 715.422ZM630.368 714.825C630.81 714.12 631.026 713.116 631.026 711.825V703.843C631.026 702.552 630.81 701.56 630.368 700.855C629.926 700.15 629.185 699.803 628.145 699.803C627.105 699.803 626.376 700.162 625.934 700.867C625.492 701.572 625.264 702.576 625.264 703.843V711.825C625.264 713.104 625.492 714.096 625.934 714.813C626.376 715.53 627.117 715.888 628.145 715.888C629.173 715.888 629.938 715.53 630.368 714.825Z" fill="#A4E3FF"/>
<path d="M637.205 715.422C636.607 714.526 636.297 713.259 636.297 711.622V704.01C636.297 702.385 636.607 701.13 637.229 700.246C637.851 699.361 638.89 698.907 640.337 698.907C641.783 698.907 642.847 699.349 643.468 700.246C644.09 701.13 644.401 702.385 644.401 704.01V711.622C644.401 713.271 644.102 714.538 643.492 715.434C642.894 716.318 641.831 716.772 640.325 716.772C638.819 716.772 637.791 716.318 637.181 715.434L637.205 715.422ZM642.572 714.825C643.014 714.12 643.229 713.116 643.229 711.825V703.843C643.229 702.552 643.014 701.56 642.572 700.855C642.129 700.15 641.388 699.803 640.349 699.803C639.309 699.803 638.58 700.162 638.137 700.867C637.695 701.572 637.468 702.576 637.468 703.843V711.825C637.468 713.104 637.695 714.096 638.137 714.813C638.58 715.53 639.321 715.888 640.349 715.888C641.377 715.888 642.141 715.53 642.572 714.825Z" fill="#A4E3FF"/>
<path d="M648.417 714.287H649.684V716.522H648.417V714.287Z" fill="#A4E3FF"/>
<path d="M655.445 700.676C655.218 701.01 654.835 701.297 654.321 701.56C653.795 701.823 653.341 702.002 652.959 702.122V701.13C653.377 701.01 653.843 700.771 654.357 700.401C654.871 700.03 655.301 699.6 655.624 699.11H656.616V716.533H655.457V700.676H655.445Z" fill="#A4E3FF"/>
<path d="M664.051 700.676C663.824 701.01 663.441 701.297 662.927 701.56C662.401 701.823 661.947 702.002 661.564 702.122V701.13C661.983 701.01 662.449 700.771 662.963 700.401C663.477 700.03 663.907 699.6 664.23 699.11H665.222V716.533H664.063V700.676H664.051Z" fill="#A4E3FF"/>
<path d="M671.497 715.422C670.899 714.526 670.589 713.259 670.589 711.622V704.01C670.589 702.385 670.899 701.13 671.521 700.246C672.143 699.361 673.182 698.907 674.629 698.907C676.075 698.907 677.139 699.349 677.76 700.246C678.382 701.13 678.693 702.385 678.693 704.01V711.622C678.693 713.271 678.394 714.538 677.784 715.434C677.187 716.318 676.123 716.772 674.617 716.772C673.111 716.772 672.083 716.318 671.473 715.434L671.497 715.422ZM676.864 714.825C677.306 714.12 677.521 713.116 677.521 711.825V703.843C677.521 702.552 677.306 701.56 676.864 700.855C676.422 700.15 675.68 699.803 674.641 699.803C673.601 699.803 672.872 700.162 672.429 700.867C671.987 701.572 671.76 702.576 671.76 703.843V711.825C671.76 713.104 671.987 714.096 672.429 714.813C672.872 715.53 673.613 715.888 674.641 715.888C675.669 715.888 676.433 715.53 676.864 714.825Z" fill="#A4E3FF"/>
<path d="M684.86 700.676C684.633 701.01 684.25 701.297 683.737 701.56C683.211 701.823 682.756 702.002 682.374 702.122V701.13C682.792 701.01 683.258 700.771 683.772 700.401C684.286 700.03 684.717 699.6 685.039 699.11H686.031V716.533H684.872V700.676H684.86Z" fill="#A4E3FF"/>
<path d="M880.201 799.801C879.974 800.135 879.592 800.422 879.078 800.685C878.552 800.948 878.098 801.127 877.715 801.247V800.255C878.134 800.135 878.6 799.896 879.114 799.526C879.628 799.156 880.058 798.725 880.381 798.235H881.373V815.658H880.213V799.801H880.201Z" fill="#A4E3FF"/>
<path d="M887.648 814.547C887.05 813.651 886.74 812.384 886.74 810.747V803.135C886.74 801.51 887.05 800.255 887.672 799.371C888.293 798.486 889.333 798.032 890.779 798.032C892.226 798.032 893.29 798.474 893.911 799.371C894.533 800.255 894.843 801.51 894.843 803.135V810.747C894.843 812.396 894.545 813.663 893.935 814.559C893.337 815.443 892.274 815.897 890.768 815.897C889.261 815.897 888.234 815.443 887.624 814.559L887.648 814.547ZM893.015 813.95C893.457 813.245 893.672 812.241 893.672 810.95V802.968C893.672 801.677 893.457 800.685 893.015 799.98C892.572 799.275 891.831 798.928 890.791 798.928C889.752 798.928 889.022 799.287 888.58 799.992C888.138 800.697 887.911 801.701 887.911 802.968V810.95C887.911 812.229 888.138 813.221 888.58 813.938C889.022 814.655 889.764 815.013 890.791 815.013C891.819 815.013 892.584 814.655 893.015 813.95Z" fill="#A4E3FF"/>
<path d="M898.859 813.412H900.126V815.647H898.859V813.412Z" fill="#A4E3FF"/>
<path d="M905.888 799.801C905.66 800.135 905.278 800.422 904.764 800.685C904.238 800.948 903.784 801.127 903.401 801.247V800.255C903.82 800.135 904.286 799.896 904.8 799.526C905.314 799.156 905.744 798.725 906.067 798.235H907.059V815.658H905.899V799.801H905.888Z" fill="#A4E3FF"/>
<path d="M914.493 799.801C914.266 800.135 913.884 800.422 913.37 800.685C912.844 800.948 912.39 801.127 912.007 801.247V800.255C912.426 800.135 912.892 799.896 913.406 799.526C913.92 799.156 914.35 798.725 914.673 798.235H915.665V815.658H914.505V799.801H914.493Z" fill="#A4E3FF"/>
<path d="M921.94 814.547C921.342 813.651 921.032 812.384 921.032 810.747V803.135C921.032 801.51 921.342 800.255 921.964 799.371C922.585 798.486 923.625 798.032 925.072 798.032C926.518 798.032 927.582 798.474 928.203 799.371C928.825 800.255 929.135 801.51 929.135 803.135V810.747C929.135 812.396 928.837 813.663 928.227 814.559C927.629 815.443 926.566 815.897 925.06 815.897C923.554 815.897 922.526 815.443 921.916 814.559L921.94 814.547ZM927.307 813.95C927.749 813.245 927.964 812.241 927.964 810.95V802.968C927.964 801.677 927.749 800.685 927.307 799.98C926.864 799.275 926.123 798.928 925.084 798.928C924.044 798.928 923.314 799.287 922.872 799.992C922.43 800.697 922.203 801.701 922.203 802.968V810.95C922.203 812.229 922.43 813.221 922.872 813.938C923.314 814.655 924.056 815.013 925.084 815.013C926.111 815.013 926.876 814.655 927.307 813.95Z" fill="#A4E3FF"/>
<path d="M934.144 814.547C933.546 813.651 933.235 812.384 933.235 810.747V803.135C933.235 801.51 933.546 800.255 934.167 799.371C934.789 798.486 935.829 798.032 937.275 798.032C938.721 798.032 939.785 798.474 940.407 799.371C941.028 800.255 941.339 801.51 941.339 803.135V810.747C941.339 812.396 941.04 813.663 940.431 814.559C939.833 815.443 938.769 815.897 937.263 815.897C935.757 815.897 934.729 815.443 934.12 814.559L934.144 814.547ZM939.51 813.95C939.953 813.245 940.168 812.241 940.168 810.95V802.968C940.168 801.677 939.953 800.685 939.51 799.98C939.068 799.275 938.327 798.928 937.287 798.928C936.247 798.928 935.518 799.287 935.076 799.992C934.634 800.697 934.406 801.701 934.406 802.968V810.95C934.406 812.229 934.634 813.221 935.076 813.938C935.518 814.655 936.259 815.013 937.287 815.013C938.315 815.013 939.08 814.655 939.51 813.95Z" fill="#A4E3FF"/>
<path d="M946.335 814.547C945.738 813.651 945.427 812.384 945.427 810.747V803.135C945.427 801.51 945.738 800.255 946.359 799.371C946.981 798.486 948.02 798.032 949.467 798.032C950.913 798.032 951.977 798.474 952.598 799.371C953.22 800.255 953.531 801.51 953.531 803.135V810.747C953.531 812.396 953.232 813.663 952.622 814.559C952.025 815.443 950.961 815.897 949.455 815.897C947.949 815.897 946.921 815.443 946.311 814.559L946.335 814.547ZM951.702 813.95C952.144 813.245 952.359 812.241 952.359 810.95V802.968C952.359 801.677 952.144 800.685 951.702 799.98C951.26 799.275 950.519 798.928 949.479 798.928C948.439 798.928 947.71 799.287 947.268 799.992C946.825 800.697 946.598 801.701 946.598 802.968V810.95C946.598 812.229 946.825 813.221 947.268 813.938C947.71 814.655 948.451 815.013 949.479 815.013C950.507 815.013 951.272 814.655 951.702 813.95Z" fill="#A4E3FF"/>
<path d="M959.698 799.801C959.471 800.135 959.089 800.422 958.575 800.685C958.049 800.948 957.595 801.127 957.212 801.247V800.255C957.63 800.135 958.097 799.896 958.611 799.526C959.124 799.156 959.555 798.725 959.878 798.235H960.87V815.658H959.71V799.801H959.698Z" fill="#A4E3FF"/>
<path d="M1557.12 179.166H1558.48L1562.16 196.589H1560.97L1560.07 191.773H1555.55L1554.63 196.589H1553.47L1557.12 179.166ZM1559.92 190.913L1557.82 180.588L1555.73 190.913H1559.92Z" fill="#A4E3FF"/>
<path d="M1565.34 194.354H1566.6V196.589H1565.34V194.354Z" fill="#A4E3FF"/>
<path d="M1572.38 180.731C1572.15 181.066 1571.77 181.353 1571.25 181.616C1570.73 181.879 1570.27 182.058 1569.89 182.177V181.186C1570.31 181.066 1570.77 180.827 1571.29 180.457C1571.8 180.086 1572.23 179.656 1572.56 179.166H1573.55V196.589H1572.39V180.731H1572.38Z" fill="#A4E3FF"/>
<path d="M1580.98 180.731C1580.76 181.066 1580.37 181.353 1579.86 181.616C1579.33 181.879 1578.88 182.058 1578.5 182.177V181.186C1578.91 181.066 1579.38 180.827 1579.89 180.457C1580.41 180.086 1580.84 179.656 1581.16 179.166H1582.15V196.589H1580.99V180.731H1580.98Z" fill="#A4E3FF"/>
<path d="M1589.59 180.731C1589.36 181.066 1588.98 181.353 1588.46 181.616C1587.94 181.879 1587.48 182.058 1587.1 182.177V181.186C1587.52 181.066 1587.99 180.827 1588.5 180.457C1589.01 180.086 1589.44 179.656 1589.77 179.166H1590.76V196.589H1589.6V180.731H1589.59Z" fill="#A4E3FF"/>
<path d="M1598.19 180.731C1597.97 181.066 1597.58 181.353 1597.07 181.616C1596.54 181.879 1596.09 182.058 1595.71 182.177V181.186C1596.13 181.066 1596.59 180.827 1597.11 180.457C1597.62 180.086 1598.05 179.656 1598.37 179.166H1599.37V196.589H1598.21V180.731H1598.19Z" fill="#A4E3FF"/>
<path d="M1606.8 180.731C1606.57 181.066 1606.19 181.353 1605.68 181.616C1605.15 181.879 1604.7 182.058 1604.31 182.177V181.186C1604.73 181.066 1605.2 180.827 1605.71 180.457C1606.23 180.086 1606.66 179.656 1606.98 179.166H1607.97V196.589H1606.81V180.731H1606.8Z" fill="#A4E3FF"/>
<path d="M1615.41 180.731C1615.18 181.066 1614.8 181.353 1614.28 181.616C1613.76 181.879 1613.3 182.058 1612.92 182.177V181.186C1613.34 181.066 1613.8 180.827 1614.32 180.457C1614.83 180.086 1615.26 179.656 1615.59 179.166H1616.58V196.589H1615.42V180.731H1615.41Z" fill="#A4E3FF"/>
<path d="M1622.84 195.478C1622.24 194.582 1621.93 193.315 1621.93 191.678V184.066C1621.93 182.44 1622.24 181.186 1622.86 180.301C1623.49 179.417 1624.53 178.963 1625.97 178.963C1627.42 178.963 1628.48 179.405 1629.1 180.301C1629.72 181.186 1630.04 182.44 1630.04 184.066V191.678C1630.04 193.327 1629.74 194.593 1629.13 195.49C1628.53 196.374 1627.47 196.828 1625.96 196.828C1624.45 196.828 1623.43 196.374 1622.82 195.49L1622.84 195.478ZM1628.21 194.88C1628.65 194.175 1628.86 193.171 1628.86 191.881V183.898C1628.86 182.608 1628.65 181.616 1628.21 180.911C1627.76 180.206 1627.02 179.859 1625.98 179.859C1624.94 179.859 1624.21 180.218 1623.77 180.923C1623.33 181.628 1623.1 182.632 1623.1 183.898V191.881C1623.1 193.16 1623.33 194.151 1623.77 194.868C1624.21 195.585 1624.96 195.944 1625.98 195.944C1627.01 195.944 1627.78 195.585 1628.21 194.88Z" fill="#A4E3FF"/>
<path d="M1636.2 180.731C1635.98 181.066 1635.59 181.353 1635.08 181.616C1634.55 181.879 1634.1 182.058 1633.72 182.177V181.186C1634.14 181.066 1634.6 180.827 1635.12 180.457C1635.63 180.086 1636.06 179.656 1636.38 179.166H1637.37V196.589H1636.22V180.731H1636.2Z" fill="#A4E3FF"/>
<path d="M1530.82 759.972H1532.17L1535.85 777.395H1534.67L1533.76 772.579H1529.24L1528.32 777.395H1527.16L1530.82 759.972ZM1533.61 771.718L1531.51 761.394L1529.42 771.718H1533.61Z" fill="#A4E3FF"/>
<path d="M1541.96 759.972H1543.31L1546.99 777.395H1545.81L1544.9 772.579H1540.38L1539.46 777.395H1538.3L1541.96 759.972ZM1544.75 771.718L1542.65 761.394L1540.56 771.718H1544.75Z" fill="#A4E3FF"/>
<path d="M1551.17 776.283C1550.57 775.387 1550.26 774.121 1550.26 772.483V764.871C1550.26 763.246 1550.57 761.991 1551.2 761.107C1551.82 760.223 1552.86 759.769 1554.3 759.769C1555.75 759.769 1556.81 760.211 1557.44 761.107C1558.06 761.991 1558.37 763.246 1558.37 764.871V772.483C1558.37 774.132 1558.07 775.399 1557.46 776.295C1556.86 777.18 1555.8 777.634 1554.29 777.634C1552.79 777.634 1551.76 777.18 1551.15 776.295L1551.17 776.283ZM1556.54 775.686C1556.98 774.981 1557.2 773.977 1557.2 772.687V764.704C1557.2 763.413 1556.98 762.421 1556.54 761.716C1556.1 761.011 1555.36 760.665 1554.32 760.665C1553.28 760.665 1552.55 761.023 1552.1 761.728C1551.66 762.433 1551.44 763.437 1551.44 764.704V772.687C1551.44 773.965 1551.66 774.957 1552.1 775.674C1552.55 776.391 1553.29 776.75 1554.32 776.75C1555.34 776.75 1556.11 776.391 1556.54 775.686Z" fill="#A4E3FF"/>
<path d="M1562.37 775.16H1563.64V777.395H1562.37V775.16Z" fill="#A4E3FF"/>
<path d="M1569.41 761.537C1569.19 761.872 1568.8 762.159 1568.29 762.421C1567.76 762.684 1567.31 762.864 1566.93 762.983V761.991C1567.34 761.872 1567.81 761.633 1568.32 761.262C1568.84 760.892 1569.27 760.462 1569.59 759.972H1570.58V777.395H1569.42V761.537H1569.41Z" fill="#A4E3FF"/>
<path d="M1578.02 761.537C1577.79 761.872 1577.41 762.159 1576.89 762.421C1576.37 762.684 1575.91 762.864 1575.53 762.983V761.991C1575.95 761.872 1576.42 761.633 1576.93 761.262C1577.44 760.892 1577.87 760.462 1578.2 759.972H1579.19V777.395H1578.03V761.537H1578.02Z" fill="#A4E3FF"/>
<path d="M1585.46 776.283C1584.87 775.387 1584.56 774.121 1584.56 772.483V764.871C1584.56 763.246 1584.87 761.991 1585.49 761.107C1586.11 760.223 1587.15 759.769 1588.6 759.769C1590.04 759.769 1591.11 760.211 1591.73 761.107C1592.35 761.991 1592.66 763.246 1592.66 764.871V772.483C1592.66 774.132 1592.36 775.399 1591.75 776.295C1591.15 777.18 1590.09 777.634 1588.58 777.634C1587.08 777.634 1586.05 777.18 1585.44 776.295L1585.46 776.283ZM1590.83 775.686C1591.27 774.981 1591.49 773.977 1591.49 772.687V764.704C1591.49 763.413 1591.27 762.421 1590.83 761.716C1590.39 761.011 1589.65 760.665 1588.61 760.665C1587.57 760.665 1586.84 761.023 1586.4 761.728C1585.95 762.433 1585.73 763.437 1585.73 764.704V772.687C1585.73 773.965 1585.95 774.957 1586.4 775.674C1586.84 776.391 1587.58 776.75 1588.61 776.75C1589.64 776.75 1590.4 776.391 1590.83 775.686Z" fill="#A4E3FF"/>
<path d="M1598.82 761.537C1598.59 761.872 1598.21 762.159 1597.69 762.421C1597.17 762.684 1596.71 762.864 1596.33 762.983V761.991C1596.75 761.872 1597.21 761.633 1597.73 761.262C1598.24 760.892 1598.67 760.462 1598.99 759.972H1599.99V777.395H1598.83V761.537H1598.82Z" fill="#A4E3FF"/>
<path d="M1607.42 761.537C1607.19 761.872 1606.81 762.159 1606.3 762.421C1605.77 762.684 1605.32 762.864 1604.94 762.983V761.991C1605.35 761.872 1605.82 761.633 1606.33 761.262C1606.85 760.892 1607.28 760.462 1607.6 759.972H1608.59V777.395H1607.43V761.537H1607.42Z" fill="#A4E3FF"/>
<path d="M1616.03 761.537C1615.8 761.872 1615.42 762.159 1614.9 762.421C1614.38 762.684 1613.92 762.864 1613.54 762.983V761.991C1613.96 761.872 1614.43 761.633 1614.94 761.262C1615.45 760.892 1615.88 760.462 1616.21 759.972H1617.2V777.395H1616.04V761.537H1616.03Z" fill="#A4E3FF"/>
<path d="M1624.63 761.537C1624.41 761.872 1624.02 762.159 1623.51 762.421C1622.98 762.684 1622.53 762.864 1622.15 762.983V761.991C1622.57 761.872 1623.03 761.633 1623.55 761.262C1624.06 760.892 1624.49 760.462 1624.81 759.972H1625.8V777.395H1624.65V761.537H1624.63Z" fill="#A4E3FF"/>
<path d="M1166.3 502.091C1165.7 501.195 1165.39 499.928 1165.39 498.291V490.679C1165.39 489.054 1165.7 487.799 1166.32 486.915C1166.94 486.03 1167.98 485.576 1169.43 485.576C1170.88 485.576 1171.94 486.018 1172.56 486.915C1173.18 487.799 1173.49 489.054 1173.49 490.679V498.291C1173.49 499.94 1173.2 501.207 1172.59 502.103C1171.99 502.987 1170.92 503.441 1169.42 503.441C1167.91 503.441 1166.88 502.987 1166.27 502.103L1166.3 502.091ZM1171.67 501.494C1172.11 500.789 1172.32 499.785 1172.32 498.494V490.512C1172.32 489.221 1172.11 488.229 1171.67 487.524C1171.22 486.819 1170.48 486.472 1169.44 486.472C1168.4 486.472 1167.67 486.831 1167.23 487.536C1166.79 488.241 1166.56 489.245 1166.56 490.512V498.494C1166.56 499.773 1166.79 500.765 1167.23 501.482C1167.67 502.199 1168.41 502.557 1169.44 502.557C1170.47 502.557 1171.24 502.199 1171.67 501.494Z" fill="#A4E3FF"/>
<path d="M1178.5 502.091C1177.9 501.195 1177.59 499.928 1177.59 498.291V490.679C1177.59 489.054 1177.9 487.799 1178.53 486.915C1179.15 486.03 1180.19 485.576 1181.63 485.576C1183.08 485.576 1184.14 486.018 1184.77 486.915C1185.39 487.799 1185.7 489.054 1185.7 490.679V498.291C1185.7 499.94 1185.4 501.207 1184.79 502.103C1184.19 502.987 1183.13 503.441 1181.62 503.441C1180.12 503.441 1179.09 502.987 1178.48 502.103L1178.5 502.091ZM1183.87 501.494C1184.31 500.789 1184.53 499.785 1184.53 498.494V490.512C1184.53 489.221 1184.31 488.229 1183.87 487.524C1183.43 486.819 1182.69 486.472 1181.65 486.472C1180.61 486.472 1179.88 486.831 1179.43 487.536C1178.99 488.241 1178.77 489.245 1178.77 490.512V498.494C1178.77 499.773 1178.99 500.765 1179.43 501.482C1179.88 502.199 1180.62 502.557 1181.65 502.557C1182.67 502.557 1183.44 502.199 1183.87 501.494Z" fill="#A4E3FF"/>
<path d="M1189.71 500.968H1190.98V503.202H1189.71V500.968Z" fill="#A4E3FF"/>
<path d="M1196.74 487.345C1196.51 487.679 1196.13 487.966 1195.62 488.229C1195.09 488.492 1194.64 488.671 1194.26 488.791V487.799C1194.67 487.679 1195.14 487.44 1195.65 487.07C1196.17 486.699 1196.6 486.269 1196.92 485.779H1197.91V503.202H1196.75V487.345H1196.74Z" fill="#A4E3FF"/>
<path d="M1204.19 502.091C1203.59 501.195 1203.28 499.928 1203.28 498.291V490.679C1203.28 489.054 1203.59 487.799 1204.21 486.915C1204.83 486.03 1205.87 485.576 1207.32 485.576C1208.77 485.576 1209.83 486.018 1210.45 486.915C1211.07 487.799 1211.38 489.054 1211.38 490.679V498.291C1211.38 499.94 1211.09 501.207 1210.48 502.103C1209.88 502.987 1208.81 503.441 1207.31 503.441C1205.8 503.441 1204.77 502.987 1204.16 502.103L1204.19 502.091ZM1209.56 501.494C1210 500.789 1210.21 499.785 1210.21 498.494V490.512C1210.21 489.221 1210 488.229 1209.56 487.524C1209.11 486.819 1208.37 486.472 1207.33 486.472C1206.29 486.472 1205.56 486.831 1205.12 487.536C1204.68 488.241 1204.45 489.245 1204.45 490.512V498.494C1204.45 499.773 1204.68 500.765 1205.12 501.482C1205.56 502.199 1206.3 502.557 1207.33 502.557C1208.36 502.557 1209.13 502.199 1209.56 501.494Z" fill="#A4E3FF"/>
<path d="M1216.39 502.091C1215.79 501.195 1215.48 499.928 1215.48 498.291V490.679C1215.48 489.054 1215.79 487.799 1216.42 486.915C1217.04 486.03 1218.08 485.576 1219.52 485.576C1220.97 485.576 1222.03 486.018 1222.66 486.915C1223.28 487.799 1223.59 489.054 1223.59 490.679V498.291C1223.59 499.94 1223.29 501.207 1222.68 502.103C1222.08 502.987 1221.02 503.441 1219.51 503.441C1218.01 503.441 1216.98 502.987 1216.37 502.103L1216.39 502.091ZM1221.76 501.494C1222.2 500.789 1222.42 499.785 1222.42 498.494V490.512C1222.42 489.221 1222.2 488.229 1221.76 487.524C1221.32 486.819 1220.58 486.472 1219.54 486.472C1218.5 486.472 1217.77 486.831 1217.32 487.536C1216.88 488.241 1216.66 489.245 1216.66 490.512V498.494C1216.66 499.773 1216.88 500.765 1217.32 501.482C1217.77 502.199 1218.51 502.557 1219.54 502.557C1220.56 502.557 1221.33 502.199 1221.76 501.494Z" fill="#A4E3FF"/>
<path d="M1310.46 299.849C1309.86 298.953 1309.55 297.686 1309.55 296.049V288.437C1309.55 286.811 1309.86 285.557 1310.48 284.672C1311.1 283.788 1312.14 283.334 1313.59 283.334C1315.04 283.334 1316.1 283.776 1316.72 284.672C1317.34 285.557 1317.65 286.811 1317.65 288.437V296.049C1317.65 297.698 1317.36 298.965 1316.75 299.861C1316.15 300.745 1315.08 301.199 1313.58 301.199C1312.07 301.199 1311.04 300.745 1310.44 299.861L1310.46 299.849ZM1315.83 299.251C1316.27 298.546 1316.48 297.543 1316.48 296.252V288.269C1316.48 286.979 1316.27 285.987 1315.83 285.282C1315.38 284.577 1314.64 284.23 1313.6 284.23C1312.56 284.23 1311.83 284.589 1311.39 285.294C1310.95 285.999 1310.72 287.003 1310.72 288.269V296.252C1310.72 297.531 1310.95 298.522 1311.39 299.239C1311.83 299.956 1312.57 300.315 1313.6 300.315C1314.63 300.315 1315.4 299.956 1315.83 299.251Z" fill="#A4E3FF"/>
<path d="M1322.65 299.849C1322.05 298.953 1321.74 297.686 1321.74 296.049V288.437C1321.74 286.811 1322.05 285.557 1322.67 284.672C1323.3 283.788 1324.34 283.334 1325.78 283.334C1327.23 283.334 1328.29 283.776 1328.91 284.672C1329.54 285.557 1329.85 286.811 1329.85 288.437V296.049C1329.85 297.698 1329.55 298.965 1328.94 299.861C1328.34 300.745 1327.28 301.199 1325.77 301.199C1324.26 301.199 1323.24 300.745 1322.63 299.861L1322.65 299.849ZM1328.02 299.251C1328.46 298.546 1328.67 297.543 1328.67 296.252V288.269C1328.67 286.979 1328.46 285.987 1328.02 285.282C1327.58 284.577 1326.83 284.23 1325.79 284.23C1324.75 284.23 1324.03 284.589 1323.58 285.294C1323.14 285.999 1322.91 287.003 1322.91 288.269V296.252C1322.91 297.531 1323.14 298.522 1323.58 299.239C1324.03 299.956 1324.77 300.315 1325.79 300.315C1326.82 300.315 1327.59 299.956 1328.02 299.251Z" fill="#A4E3FF"/>
<path d="M1333.86 298.714H1335.13V300.949H1333.86V298.714Z" fill="#A4E3FF"/>
<path d="M1340.9 285.103C1340.68 285.437 1340.29 285.724 1339.78 285.987C1339.25 286.25 1338.8 286.429 1338.42 286.548V285.557C1338.83 285.437 1339.3 285.198 1339.81 284.828C1340.33 284.457 1340.76 284.027 1341.08 283.537H1342.07V300.96H1340.91V285.103H1340.9Z" fill="#A4E3FF"/>
<path d="M1003.97 305.071C1003.74 305.406 1003.36 305.693 1002.85 305.956C1002.32 306.219 1001.87 306.398 1001.48 306.517V305.525C1001.9 305.406 1002.37 305.167 1002.88 304.796C1003.4 304.426 1003.83 303.996 1004.15 303.506H1005.14V320.929H1003.98V305.071H1003.97Z" fill="#A4E3FF"/>
<path d="M1010.42 318.683H1011.69V320.917H1010.42V318.683Z" fill="#A4E3FF"/>
<path d="M1018.24 303.506H1019.59L1023.27 320.929H1022.09L1021.18 316.113H1016.66L1015.74 320.929H1014.58L1018.24 303.506ZM1021.04 315.253L1018.94 304.928L1016.84 315.253H1021.04Z" fill="#A4E3FF"/>
<path d="M1029.38 303.506H1030.73L1034.41 320.929H1033.23L1032.32 316.113H1027.8L1026.88 320.929H1025.72L1029.38 303.506ZM1032.18 315.253L1030.08 304.928L1027.98 315.253H1032.18Z" fill="#A4E3FF"/>
<path d="M586.418 237.638H587.769L591.451 255.061H590.267L589.359 250.245H584.841L583.92 255.061H582.761L586.418 237.638ZM589.215 249.385L587.112 239.06L585.02 249.385H589.215Z" fill="#A4E3FF"/>
<path d="M595.622 253.949C595.024 253.053 594.714 251.787 594.714 250.149V242.537C594.714 240.912 595.024 239.657 595.646 238.773C596.267 237.889 597.307 237.435 598.754 237.435C600.2 237.435 601.264 237.877 601.885 238.773C602.507 239.657 602.817 240.912 602.817 242.537V250.149C602.817 251.798 602.519 253.065 601.909 253.961C601.311 254.846 600.248 255.3 598.742 255.3C597.236 255.3 596.208 254.846 595.598 253.961L595.622 253.949ZM600.989 253.352C601.431 252.647 601.646 251.643 601.646 250.353V242.37C601.646 241.079 601.431 240.087 600.989 239.382C600.546 238.677 599.805 238.331 598.766 238.331C597.726 238.331 596.997 238.689 596.554 239.394C596.112 240.099 595.885 241.103 595.885 242.37V250.353C595.885 251.631 596.112 252.623 596.554 253.34C596.997 254.057 597.738 254.416 598.766 254.416C599.793 254.416 600.558 254.057 600.989 253.352Z" fill="#A4E3FF"/>
<path d="M606.248 247.258H610.682V248.202H606.248V247.258Z" fill="#A4E3FF"/>
<path d="M614.985 253.949C614.388 253.053 614.077 251.787 614.077 250.149V242.537C614.077 240.912 614.388 239.657 615.009 238.773C615.631 237.889 616.671 237.435 618.117 237.435C619.563 237.435 620.627 237.877 621.248 238.773C621.87 239.657 622.181 240.912 622.181 242.537V250.149C622.181 251.798 621.882 253.065 621.272 253.961C620.675 254.846 619.611 255.3 618.105 255.3C616.599 255.3 615.571 254.846 614.961 253.961L614.985 253.949ZM620.352 253.352C620.794 252.647 621.009 251.643 621.009 250.353V242.37C621.009 241.079 620.794 240.087 620.352 239.382C619.91 238.677 619.169 238.331 618.129 238.331C617.089 238.331 616.36 238.689 615.917 239.394C615.475 240.099 615.248 241.103 615.248 242.37V250.353C615.248 251.631 615.475 252.623 615.917 253.34C616.36 254.057 617.101 254.416 618.129 254.416C619.157 254.416 619.922 254.057 620.352 253.352Z" fill="#A4E3FF"/>
<path d="M628.348 239.215C628.121 239.549 627.739 239.836 627.225 240.099C626.699 240.362 626.245 240.541 625.862 240.661V239.669C626.28 239.549 626.747 239.31 627.26 238.94C627.774 238.57 628.205 238.139 628.527 237.649H629.52V255.073H628.36V239.215H628.348Z" fill="#A4E3FF"/>
<path d="M635.795 253.949C635.197 253.053 634.886 251.787 634.886 250.149V242.537C634.886 240.912 635.197 239.657 635.819 238.773C636.44 237.889 637.48 237.435 638.926 237.435C640.373 237.435 641.436 237.877 642.058 238.773C642.679 239.657 642.99 240.912 642.99 242.537V250.149C642.99 251.798 642.691 253.065 642.082 253.961C641.484 254.846 640.42 255.3 638.914 255.3C637.408 255.3 636.38 254.846 635.771 253.961L635.795 253.949ZM641.161 253.352C641.604 252.647 641.819 251.643 641.819 250.353V242.37C641.819 241.079 641.604 240.087 641.161 239.382C640.719 238.677 639.978 238.331 638.938 238.331C637.898 238.331 637.169 238.689 636.727 239.394C636.285 240.099 636.058 241.103 636.058 242.37V250.353C636.058 251.631 636.285 252.623 636.727 253.34C637.169 254.057 637.91 254.416 638.938 254.416C639.966 254.416 640.731 254.057 641.161 253.352Z" fill="#A4E3FF"/>
<path d="M31.3158 509.01C86.3575 509.01 86.3575 521.725 141.411 521.725C196.465 521.725 196.453 522.478 251.495 522.478C306.536 522.478 306.548 499.892 361.59 499.892C416.632 499.892 416.632 377.739 471.673 377.739C526.715 377.739 526.727 595.206 581.769 595.206C636.811 595.206 636.811 488.731 691.852 488.731C746.894 488.731 746.906 467.603 801.948 467.603C856.989 467.603 856.989 476.638 912.031 476.638C967.073 476.638 967.085 353.373 1022.13 353.373C1077.17 353.373 1077.16 588.526 1132.2 588.526C1187.24 588.526 1187.23 314.596 1242.26 314.596C1297.29 314.596 1297.3 464.485 1352.34 464.485C1407.38 464.485 1407.38 422.899 1462.42 422.899C1517.47 422.899 1517.45 475.658 1572.48 475.658C1627.51 475.658 1627.53 521.928 1682.57 521.928C1737.61 521.928 1737.61 494.706 1792.64 494.694C1834.8 494.694 1855.09 538.049 1893.46 549.652C1957.99 569.167 2036.39 565.426 2102.81 558.34" stroke="url(#paint0_linear_603_3898)" stroke-width="3" stroke-miterlimit="10"/>
<path d="M2036.54 272.675C1982.15 267.369 1923.48 283.597 1874.74 258.861C1847.57 245.07 1820.68 219.916 1790.45 238.307C1770.4 250.508 1759.35 275.698 1749.63 295.918C1733.03 330.465 1714.76 397.003 1666.59 397.003C1591.64 397.003 1591.64 324.646 1516.71 324.646C1441.78 324.646 1441.78 701.106 1366.85 701.106C1291.92 701.106 1291.92 708.491 1217 708.491C1142.07 708.491 1142.07 218.267 1067.15 218.267C992.221 218.267 992.221 265.469 917.278 265.469C842.335 265.469 842.347 422.886 767.417 422.886C709.052 422.886 692.175 534.631 673.648 573.922C660.166 602.507 638.556 638.584 604.634 644.475C551.959 653.617 528.03 601.897 490.415 580.853C469.355 569.071 443.418 579.467 420.923 588.239C288.763 639.743 141.602 628.642 0.251007 616.763" stroke="#00FFCC" stroke-width="5" stroke-miterlimit="10"/>
<defs>
<linearGradient id="paint0_linear_603_3898" x1="31.3158" y1="454.901" x2="2103" y2="454.901" gradientUnits="userSpaceOnUse">
<stop stop-color="#2965E2"/>
<stop offset="1" stop-color="#29D3E2"/>
</linearGradient>
</defs>
</svg>
