<svg width="56" height="56" viewBox="0 0 56 56" fill="none" xmlns="http://www.w3.org/2000/svg">
<g clip-path="url(#clip0_603_5384)">
<path d="M54.25 13.125C54.25 11.0127 52.744 9.24518 50.75 8.83844V3.5C50.75 3.01593 50.3591 2.625 49.875 2.625H36.75V0.875C36.75 0.39093 36.3591 0 35.875 0H20.125C19.6409 0 19.25 0.39093 19.25 0.875V2.625H13.125C12.6409 2.625 12.25 3.01593 12.25 3.5V12.25H6.125C5.64093 12.25 5.25 12.6409 5.25 13.125V21.0884C3.25604 21.4952 1.75 23.2627 1.75 25.375C1.75 27.4873 3.25604 29.2548 5.25 29.6616V37.625C5.25 38.1091 5.64093 38.5 6.125 38.5H19.25V40.25C19.25 40.7341 19.6409 41.125 20.125 41.125H27.125V43.8201C24.162 44.2469 21.875 46.7958 21.875 49.875C21.875 53.2515 24.6235 56 28 56C31.0792 56 33.6281 53.713 34.0549 50.75H43.75C44.2341 50.75 44.625 50.3591 44.625 49.875V26.25H49.875C50.3591 26.25 50.75 25.8591 50.75 25.375V17.4116C52.744 17.0048 54.25 15.2373 54.25 13.125ZM21 1.75H35V5.25H21V1.75ZM14 4.375H19.25V6.125C19.25 6.60907 19.6409 7 20.125 7H27.125V9.625H20.125C19.6409 9.625 19.25 10.0159 19.25 10.5V12.25H14V4.375ZM28 30.3251L23.0499 25.375L28 20.4249L32.9501 25.375L28 30.3251ZM21 14.875V11.375H35V14.875H21ZM3.5 25.375C3.5 23.9279 4.67792 22.75 6.125 22.75C7.57208 22.75 8.75 23.9279 8.75 25.375C8.75 26.8221 7.57208 28 6.125 28C4.67792 28 3.5 26.8221 3.5 25.375ZM19.25 35V36.75H7V29.6616C8.99396 29.2548 10.5 27.4882 10.5 25.375C10.5 23.2618 8.99396 21.4952 7 21.0884V14H19.25V15.75C19.25 16.2341 19.6409 16.625 20.125 16.625H27.125V18.8257L21.4507 24.5H19.25V26.25H21.4507L27.125 31.9243V34.125H20.125C19.6409 34.125 19.25 34.5159 19.25 35ZM21 35.875H35V39.375H21V35.875ZM28 54.25C25.5878 54.25 23.625 52.2872 23.625 49.875C23.625 47.4628 25.5878 45.5 28 45.5C30.4122 45.5 32.375 47.4628 32.375 49.875C32.375 52.2872 30.4122 54.25 28 54.25ZM42.875 49H34.0549C33.6691 46.3233 31.5517 44.2059 28.875 43.8201V41.125H35.875C36.3591 41.125 36.75 40.7341 36.75 40.25V35C36.75 34.5159 36.3591 34.125 35.875 34.125H28.875V31.9243L34.5493 26.25H42.875V49ZM34.5493 24.5L28.875 18.8257V16.625H35.875C36.3591 16.625 36.75 16.2341 36.75 15.75V10.5C36.75 10.0159 36.3591 9.625 35.875 9.625H28.875V7H35.875C36.3591 7 36.75 6.60907 36.75 6.125V4.375H49V8.83844C47.006 9.24518 45.5 11.0118 45.5 13.125C45.5 15.2382 47.006 17.0048 49 17.4116V24.5H34.5493ZM49.875 15.75C48.4279 15.75 47.25 14.5721 47.25 13.125C47.25 11.6779 48.4279 10.5 49.875 10.5C51.3221 10.5 52.5 11.6779 52.5 13.125C52.5 14.5721 51.3221 15.75 49.875 15.75Z" fill="#0090EC"/>
<path d="M12.25 24.5H14V26.25H12.25V24.5Z" fill="#0090EC"/>
<path d="M15.75 24.5H17.5V26.25H15.75V24.5Z" fill="#0090EC"/>
</g>
<defs>
<clipPath id="clip0_603_5384">
<rect width="56" height="56" fill="white"/>
</clipPath>
</defs>
</svg>
