<svg width="56" height="56" viewBox="0 0 56 56" fill="none" xmlns="http://www.w3.org/2000/svg">
<g clip-path="url(#clip0_603_5234)">
<path d="M55.9461 15.7393C55.8593 15.0271 55.4998 14.3916 54.9341 13.9501L37.7909 0.567164C36.6257 -0.342443 34.9346 -0.135823 34.0214 1.0282L17.414 22.2008L6.39452 29.5784C6.39431 29.5786 6.39409 29.5788 6.39376 29.5789L3.352 31.6154L1.22773 33.0377C1.19032 33.0628 1.15367 33.0886 1.11791 33.1153C0.580522 33.5143 0.215738 34.0904 0.0853569 34.7509C-0.0533374 35.4539 0.0900602 36.1685 0.48908 36.7631L0.490502 36.7652C0.490502 36.7653 0.490611 36.7654 0.49072 36.7655L3.06346 40.5992L3.95469 41.9273L9.14555 49.6623C9.14555 49.6623 9.14566 49.6624 9.14566 49.6625L10.0068 50.9458L12.6019 54.8127C13.1191 55.5835 13.9701 56.0002 14.8362 56.0002C15.35 56.0002 15.8694 55.8535 16.3276 55.5468L16.3292 55.5457C16.3294 55.5454 16.3298 55.5453 16.33 55.5452L21.3738 52.1683L23.6019 53.9076C24.0915 54.2896 24.6736 54.4748 25.2519 54.4748C26.0506 54.4748 26.842 54.1216 27.3716 53.4465L36.1161 42.2983L48.8646 33.7631C48.8813 33.7535 48.8986 33.7455 48.9149 33.7347L54.0811 30.2757C54.6786 29.8757 55.0843 29.2673 55.2233 28.5626C55.362 27.8596 55.2186 27.1451 54.8196 26.5505L54.8168 26.5463C54.8163 26.5458 54.816 26.5451 54.8157 26.5446L51.8913 22.1868L55.3934 17.7219C55.8367 17.1562 56.0332 16.4523 55.9461 15.7393ZM7.26268 36.1637C6.94055 37.7957 6.08881 39.2364 4.83509 40.2947L2.22921 36.4117L1.85294 35.8509C1.69773 35.6195 1.64184 35.3414 1.69587 35.0678C1.74323 34.8278 1.87001 34.6166 2.05672 34.4632C2.08341 34.4413 2.11141 34.4205 2.1405 34.401L3.61287 33.4153L6.58802 31.4235C7.34471 32.8776 7.58458 34.5325 7.26268 36.1637ZM15.4156 54.1826C14.9352 54.5029 14.2845 54.3755 13.9641 53.8981L13.9282 53.8446L10.9912 49.4681C13.9927 47.9119 17.698 48.6325 19.8765 51.1959L15.4156 54.1826ZM26.0805 52.4337C25.7244 52.8875 25.0654 52.9686 24.6114 52.6141L22.8091 51.2071L31.7245 45.2382L26.0805 52.4337ZM48.0458 27.1495C48.3679 25.5175 49.2197 24.0767 50.4734 23.0185L53.4542 27.4604C53.6086 27.6915 53.664 27.9689 53.6101 28.2418C53.5559 28.5161 53.3981 28.753 53.1654 28.9087L48.7186 31.8859C47.9634 30.4328 47.7242 28.7793 48.0458 27.1495ZM54.1022 16.7092L50.9295 20.754L42.7043 8.49724C41.88 7.2689 40.2086 6.93966 38.9785 7.76319L31.7102 12.6293C30.8288 13.2195 31.7414 14.5824 32.6231 13.9927L34.059 13.0313C35.7889 15.1593 38.3569 16.3011 40.97 16.3011C42.4236 16.3011 43.8907 15.9464 45.2355 15.2134L49.5551 21.6502C47.9405 22.9575 46.8432 24.7694 46.436 26.8317C46.0294 28.8915 46.3547 30.9819 47.349 32.8025L35.0874 41.0118C35.0862 41.0126 35.0849 41.0134 35.0837 41.0143L21.2454 50.2791C18.5529 46.9705 13.8339 46.0499 10.0729 48.0999L5.75301 41.6628C7.36768 40.3555 8.46498 38.5436 8.8721 36.4813C9.27899 34.4201 8.95304 32.3283 7.95691 30.5066L28.812 16.544C29.6933 15.9538 28.7805 14.5906 27.8991 15.1806L21.8052 19.2605L35.3124 2.04085C35.6683 1.58714 36.3272 1.50598 36.7815 1.86059L53.9245 15.2434C54.1443 15.4149 54.2838 15.6615 54.3176 15.9382C54.3513 16.2152 54.2749 16.489 54.1022 16.7092ZM39.8914 9.13176C40.3722 8.81007 41.0238 8.93739 41.3445 9.41527L42.8473 11.6545L44.3175 13.8453C41.3158 15.4014 37.6106 14.6808 35.4322 12.1174L39.8914 9.13176Z" fill="#0090EC"/>
<path d="M21.6522 22.7108C19.2603 24.3123 17.6363 26.7484 17.0792 29.5706C16.5223 32.3915 17.0984 35.2605 18.7013 37.6488C20.3097 40.0457 22.757 41.6697 25.5923 42.2219C26.601 42.4181 26.9295 40.8109 25.9059 40.6114C23.502 40.1432 21.4273 38.7664 20.0636 36.7345C18.7051 34.7103 18.2169 32.2789 18.6888 29.8882C19.1609 27.4963 20.5375 25.4315 22.5651 24.074C26.7499 21.2722 32.4371 22.3939 35.2425 26.5743C36.601 28.5986 37.0891 31.03 36.6173 33.4207C36.1451 35.8125 34.7685 37.8773 32.741 39.2346C31.9431 39.7688 31.0751 40.1719 30.1608 40.4325C29.1407 40.7233 29.5906 42.301 30.6106 42.0103C31.6896 41.7027 32.7135 41.2275 33.6538 40.5979C36.0456 38.9965 37.6697 36.5605 38.2268 33.7383C38.7836 30.9173 38.2075 28.0484 36.6047 25.6599C33.2957 20.7294 26.5883 19.4062 21.6522 22.7108Z" fill="#0090EC"/>
<path d="M40.1468 24.1112C40.3037 24.1112 40.4623 24.0663 40.6024 23.9724L44.4643 21.3869C44.8407 21.1348 44.9416 20.6253 44.6897 20.2488C44.4375 19.8723 43.9279 19.7715 43.5515 20.0234L39.6897 22.609C39.3133 22.8611 39.2124 23.3706 39.4643 23.7471C39.6225 23.9836 39.8822 24.1112 40.1468 24.1112Z" fill="#0090EC"/>
<path d="M14.7035 39.337L10.8418 41.9226C10.4654 42.1746 10.3645 42.6841 10.6164 43.0605C10.7747 43.2969 11.0343 43.4247 11.2989 43.4247C11.4558 43.4247 11.6144 43.3797 11.7545 43.2859L15.6163 40.7003C15.9927 40.4483 16.0935 39.9388 15.8416 39.5623C15.5894 39.1859 15.08 39.0849 14.7035 39.337Z" fill="#0090EC"/>
<path d="M30.5668 37.5883C31.1852 38.51 32.5021 37.5277 31.9291 36.6741L31.4871 36.0156C32.67 34.7965 32.7085 33.11 32.1703 31.9171C31.2818 29.948 29.4547 29.7855 27.5998 30.2228L25.7386 27.4494C26.2061 27.2976 26.5705 27.3372 26.6065 27.3416C27.6508 27.4922 27.8921 25.8802 26.8486 25.7189C26.7919 25.7103 25.8617 25.5782 24.8034 26.0559L24.4425 25.5181C23.8513 24.6375 22.489 25.5516 23.0802 26.4323L23.4738 27.019C22.6214 27.9333 22.3748 29.2765 22.8694 30.4327C23.594 32.1269 25.2179 32.3282 26.8505 32.0507L29.2454 35.6195C28.7708 35.8773 28.3889 35.9576 27.6723 35.9662C26.6358 35.9788 26.6791 37.6227 27.6922 37.6068C28.81 37.5933 29.4556 37.394 30.1623 36.9858L30.5668 37.5883ZM25.2387 30.5326C24.8987 30.5076 24.5608 30.2151 24.378 29.7874C24.221 29.4206 24.1663 28.8968 24.4322 28.4469L25.8282 30.5271C25.6179 30.5424 25.4191 30.5459 25.2387 30.5326ZM28.6307 31.6579C29.9809 31.3119 30.5364 32.2852 30.6748 32.5918C30.9343 33.167 30.9537 33.9475 30.5305 34.5899L28.5728 31.6726C28.5923 31.6676 28.6109 31.6631 28.6307 31.6579Z" fill="#0090EC"/>
</g>
<defs>
<clipPath id="clip0_603_5234">
<rect width="56" height="56" fill="white"/>
</clipPath>
</defs>
</svg>
