<svg width="56" height="56" viewBox="0 0 56 56" fill="none" xmlns="http://www.w3.org/2000/svg">
<g clip-path="url(#clip0_603_5226)">
<path d="M52.2667 25.199H51.3334V21.4657C51.3293 17.8592 48.4066 14.9365 44.8001 14.9324H28.9333V9.23902C31.2806 8.75984 32.8838 6.5812 32.643 4.19759C32.4022 1.81398 30.3958 0 28 0C25.6042 0 23.5978 1.81409 23.3569 4.19759C23.1161 6.5812 24.7193 8.75984 27.0666 9.23902V14.9323H11.2C7.59347 14.9365 4.67075 17.8591 4.6667 21.4656V25.1989H3.73341C1.67147 25.199 0 26.8705 0 28.9323V34.5323C0 36.5941 1.67147 38.2656 3.7333 38.2656H4.66659V41.9989C4.67075 45.6054 7.59336 48.5282 11.1999 48.5322V55.0655C11.1999 55.4098 11.3893 55.7261 11.693 55.8885C11.9966 56.051 12.3648 56.033 12.6513 55.842L23.3846 48.688C23.5367 48.5869 23.7152 48.5326 23.8979 48.5321H44.8C48.4065 48.5279 51.3293 45.6053 51.3333 41.9988V38.2655H52.2666C54.3284 38.2655 55.9999 36.594 55.9999 34.5322V28.9322C56 26.8705 54.3285 25.199 52.2667 25.199ZM25.2 4.66572C25.2 3.11937 26.4537 1.86572 28 1.86572C29.5465 1.86572 30.8 3.11937 30.8 4.66572C30.8 6.21206 29.5465 7.46572 28 7.46572C26.4537 7.46572 25.2 6.21206 25.2 4.66572ZM3.7333 36.399C2.70233 36.399 1.86659 35.5633 1.86659 34.5323V28.9323C1.86659 27.9013 2.70233 27.0656 3.7333 27.0656H4.66659V36.3989H3.7333V36.399ZM49.4667 41.999C49.4636 44.575 47.3761 46.6625 44.8 46.6657H23.898C23.3454 46.6637 22.8049 46.8262 22.345 47.1324L13.0667 53.3214V48.5324C13.0667 47.5015 12.231 46.6657 11.2 46.6657C8.624 46.6627 6.53647 44.5751 6.5333 41.999V21.4657C6.53636 18.8897 8.62389 16.8022 11.2 16.799H44.8C47.376 16.8021 49.4635 18.8896 49.4667 21.4657V41.999ZM54.1333 34.5323C54.1333 35.5633 53.2976 36.399 52.2666 36.399H51.3333V27.0657H52.2666C53.2976 27.0657 54.1333 27.9015 54.1333 28.9324V34.5323Z" fill="#0090EC"/>
<path d="M16.8 24.2656C14.2227 24.2656 12.1333 26.355 12.1333 28.9323C12.1333 31.5096 14.2227 33.599 16.8 33.599C19.3773 33.599 21.4667 31.5096 21.4667 28.9323C21.4635 26.3562 19.376 24.2687 16.8 24.2656ZM16.8 31.7322C15.2537 31.7322 14 30.4786 14 28.9322C14 27.3859 15.2537 26.1322 16.8 26.1322C18.3463 26.1322 19.6 27.3859 19.6 28.9322C19.6 30.4786 18.3463 31.7322 16.8 31.7322Z" fill="#0090EC"/>
<path d="M39.2 24.2656C36.6227 24.2656 34.5333 26.355 34.5333 28.9323C34.5333 31.5096 36.6227 33.599 39.2 33.599C41.7773 33.599 43.8667 31.5096 43.8667 28.9323C43.8636 26.3562 41.776 24.2687 39.2 24.2656ZM39.2 31.7322C37.6537 31.7322 36.4 30.4786 36.4 28.9322C36.4 27.3859 37.6537 26.1322 39.2 26.1322C40.7464 26.1322 42 27.3859 42 28.9322C42 30.4786 40.7464 31.7322 39.2 31.7322Z" fill="#0090EC"/>
<path d="M33.1707 35.623C32.7399 35.3485 32.169 35.4673 31.8836 35.8908C31.8445 35.9497 30.8756 37.3318 28.0001 37.3318C25.1496 37.3318 24.1734 35.9728 24.1174 35.8927C23.8366 35.4687 23.2681 35.3475 22.8389 35.6202C22.4096 35.8928 22.2776 36.4589 22.5419 36.8932C22.6008 36.9865 24.0288 39.1985 28.0001 39.1985C31.9714 39.1985 33.3994 36.9875 33.4582 36.8932C33.7261 36.4624 33.598 35.8963 33.1707 35.623Z" fill="#0090EC"/>
</g>
<defs>
<clipPath id="clip0_603_5226">
<rect width="56" height="56" fill="white"/>
</clipPath>
</defs>
</svg>
