<svg width="56" height="56" viewBox="0 0 56 56" fill="none" xmlns="http://www.w3.org/2000/svg">
<g clip-path="url(#clip0_603_5276)">
<path d="M51.6917 7.90377C51.5651 6.66302 50.5265 5.70052 49.2758 5.66486C38.7553 5.36495 31.7895 1.85117 29.2829 0.354375C28.4915 -0.118234 27.5082 -0.118016 26.7171 0.354375C25.2305 1.24217 22.0334 2.91703 17.3239 4.15997C16.8866 4.27547 16.6256 4.72358 16.741 5.16086C16.8564 5.59814 17.3047 5.85889 17.7419 5.74372C22.6458 4.44938 25.9963 2.69259 27.557 1.76072C27.8303 1.59731 28.1698 1.59731 28.4433 1.76072C31.06 3.32325 38.3237 6.99136 49.2292 7.3022C49.6607 7.31445 50.0188 7.64455 50.0622 8.06991C50.4249 11.6251 50.9939 20.9267 48.4512 30.4939C47.0249 35.8608 44.827 40.5016 41.9187 44.2872C38.419 48.8427 33.8394 52.2134 28.307 54.3058C28.109 54.3806 27.8911 54.3806 27.6929 54.3058C22.1607 52.2134 17.5811 48.8427 14.0814 44.2872C11.1732 40.5016 8.97527 35.8608 7.5488 30.4939C5.00605 20.9267 5.57513 11.6249 5.93781 8.06991C5.98123 7.64455 6.33933 7.31445 6.77092 7.3022C9.19927 7.23297 11.615 6.98873 13.9513 6.57606C14.3967 6.49742 14.6939 6.0725 14.6153 5.62702C14.5367 5.18164 14.1118 4.88414 13.6664 4.963C11.4086 5.36178 9.07294 5.59792 6.72433 5.66486C5.47363 5.70052 4.435 6.66302 4.30834 7.90377C3.93658 11.5484 3.35372 21.0864 5.96592 30.9146C7.44828 36.4919 9.74166 41.3269 12.7826 45.2852C16.4706 50.0858 21.2923 53.6363 27.1134 55.8378C27.3993 55.9461 27.6997 56.0001 28.0001 56.0001C28.3004 56.0001 28.6007 55.9461 28.8865 55.8378C34.7078 53.6363 39.5295 50.0858 43.2175 45.2852C46.2584 41.3269 48.5518 36.4919 50.0342 30.9146C52.6462 21.0864 52.0634 11.5484 51.6917 7.90377Z" fill="#0090EC"/>
<path d="M9.00178 11.5152C8.76685 13.8189 8.16747 21.9859 10.3224 30.3536C11.5063 34.9504 13.3374 38.9268 15.7649 42.1727C18.7179 46.1209 22.5772 49.0161 27.2359 50.7782C27.4822 50.8712 27.741 50.9178 27.9999 50.9178C28.2587 50.9178 28.5177 50.8712 28.764 50.7781C33.4225 49.0161 37.2819 46.121 40.2349 42.1727C42.6624 38.9268 44.4935 34.9505 45.6774 30.3536C47.8323 21.9859 47.2329 13.8189 46.998 11.5152C46.8888 10.4454 45.9935 9.61554 44.9154 9.58481C36.5926 9.34757 31.0867 6.57043 29.1059 5.38765C28.4237 4.98012 27.5762 4.98023 26.894 5.38754C24.9131 6.57043 19.4072 9.34757 11.0844 9.58481C10.0063 9.61554 9.11094 10.4454 9.00178 11.5152ZM27.7339 6.79378C27.8159 6.74478 27.9079 6.72028 27.9999 6.72028C28.0919 6.72028 28.1839 6.74478 28.266 6.79389C30.357 8.04262 36.1609 10.9739 44.8687 11.2222C45.1277 11.2295 45.3425 11.4269 45.3684 11.6813C45.5965 13.9167 46.1783 21.8404 44.0911 29.945C41.576 39.7114 36.2242 46.2052 28.1846 49.2458C28.0656 49.2911 27.9344 49.291 27.8153 49.2459C19.7755 46.2051 14.4238 39.7114 11.9086 29.945C9.82144 21.8405 10.4033 13.9168 10.6314 11.6813C10.6573 11.427 10.8721 11.2295 11.1312 11.2222C19.8389 10.9739 25.6428 8.04262 27.7339 6.79378Z" fill="#0090EC"/>
<path d="M28 38.4352C31.7366 38.4352 35.2572 36.6117 37.4178 33.5574C37.679 33.1881 37.5914 32.6771 37.2221 32.4158C36.853 32.1545 36.3418 32.2421 36.0806 32.6115C34.2266 35.2324 31.2058 36.7973 28 36.7973C22.5462 36.7973 18.1093 32.3604 18.1093 26.9066C18.1093 21.4528 22.5462 17.0159 28 17.0159C33.4537 17.0159 37.8906 21.4528 37.8906 26.9066C37.8906 27.7595 37.7821 28.606 37.568 29.4226C37.4533 29.8601 37.715 30.3077 38.1525 30.4225C38.5899 30.5368 39.0377 30.2755 39.1524 29.838C39.402 28.8857 39.5285 27.8996 39.5285 26.9066C39.5285 20.5497 34.3568 15.3779 27.9999 15.3779C21.6429 15.3779 16.4712 20.5496 16.4712 26.9066C16.4712 33.2636 21.6431 38.4352 28 38.4352Z" fill="#0090EC"/>
<path d="M32.2953 21.1563C31.6114 21.1837 30.9791 21.4757 30.5149 21.9785L26.4017 26.4335L25.3832 25.4492C24.3673 24.4676 22.7419 24.4951 21.7599 25.511C20.7781 26.5269 20.8057 28.1522 21.8217 29.1343L24.725 31.9403C25.2053 32.4046 25.8377 32.6603 26.5058 32.6603C26.5312 32.6603 26.5565 32.66 26.5787 32.6592C27.2641 32.6397 27.9237 32.3396 28.3884 31.836L34.28 25.4549C35.2386 24.4168 35.1739 22.7925 34.1357 21.8339C33.6329 21.3697 32.9785 21.1294 32.2953 21.1563ZM33.0766 24.3439C33.0766 24.3439 27.185 30.725 27.1849 30.7251C26.8338 31.1054 26.2351 31.1219 25.8633 30.7626C25.8616 30.7609 22.9599 27.9565 22.9599 27.9565C22.5933 27.6021 22.5834 27.0158 22.9375 26.6494C23.1187 26.462 23.3604 26.3677 23.6025 26.3677C23.834 26.3677 24.0656 26.4539 24.2449 26.6269C24.2449 26.6269 25.8635 28.1913 25.8657 28.1935C26.1874 28.5044 26.7325 28.4896 27.0366 28.1603C27.0366 28.1603 31.7035 23.1057 31.7183 23.0898C32.5093 22.2331 33.8915 23.4614 33.0766 24.3439Z" fill="#0090EC"/>
</g>
<defs>
<clipPath id="clip0_603_5276">
<rect width="56" height="56" fill="white"/>
</clipPath>
</defs>
</svg>
