<svg width="56" height="56" viewBox="0 0 56 56" fill="none" xmlns="http://www.w3.org/2000/svg">
<g clip-path="url(#clip0_603_5388)">
<path d="M1.5792 40.8333L2.81447 39.4333C2.21212 38.9016 1.8669 38.1368 1.86667 37.3333V4.66667C1.86842 3.12107 3.12107 1.86842 4.66667 1.86667H51.3333C52.8789 1.86842 54.1316 3.12107 54.1333 4.66667V37.3333C54.1316 38.8789 52.8789 40.1316 51.3333 40.1333H35.4667V42H51.3333C53.9095 41.9971 55.9971 39.9095 56 37.3333V4.66667C55.9971 2.09055 53.9095 0.00291667 51.3333 0H4.66667C2.09055 0.00291667 0.00291667 2.09055 0 4.66667V37.3333C0.00035 38.6724 0.5754 39.947 1.5792 40.8333Z" fill="#0090EC"/>
<path d="M4.66663 3.7334H6.53329V5.60007H4.66663V3.7334Z" fill="#0090EC"/>
<path d="M8.40002 3.7334H10.2667V5.60007H8.40002V3.7334Z" fill="#0090EC"/>
<path d="M12.1333 3.7334H14V5.60007H12.1333V3.7334Z" fill="#0090EC"/>
<path d="M4.66663 7.4668H51.3333V9.33346H4.66663V7.4668Z" fill="#0090EC"/>
<path d="M44.8001 13.0664C41.1918 13.0664 38.2667 15.9915 38.2667 19.5997C38.2667 23.208 41.1918 26.1331 44.8001 26.1331C48.4083 26.1331 51.3334 23.208 51.3334 19.5997C51.3293 15.9932 48.4067 13.0705 44.8001 13.0664ZM44.8001 24.2664C42.2228 24.2664 40.1334 22.177 40.1334 19.5997C40.1334 17.0225 42.2228 14.9331 44.8001 14.9331C47.3773 14.9331 49.4667 17.0225 49.4667 19.5997C49.4638 22.1759 47.3762 24.2635 44.8001 24.2664Z" fill="#0090EC"/>
<path d="M46.94 17.0732L43.8666 20.1467L42.6599 18.9399L41.34 20.2599L43.2066 22.1265C43.5711 22.491 44.162 22.491 44.5266 22.1265L48.2599 18.3932L46.94 17.0732Z" fill="#0090EC"/>
<path d="M40.1333 28H49.4666V29.8667H40.1333V28Z" fill="#0090EC"/>
<path d="M40.1333 31.7334H49.4666V33.6001H40.1333V31.7334Z" fill="#0090EC"/>
<path d="M28 13.0664C24.3917 13.0664 21.4667 15.9915 21.4667 19.5997C21.4667 23.208 24.3917 26.1331 28 26.1331C31.6083 26.1331 34.5333 23.208 34.5333 19.5997C34.5293 15.9932 31.6066 13.0705 28 13.0664ZM28 24.2664C25.4227 24.2664 23.3333 22.177 23.3333 19.5997C23.3333 17.0225 25.4227 14.9331 28 14.9331C30.5773 14.9331 32.6667 17.0225 32.6667 19.5997C32.6638 22.1759 30.5761 24.2635 28 24.2664Z" fill="#0090EC"/>
<path d="M30.14 17.0732L27.0667 20.1467L25.86 18.9399L24.54 20.2599L26.4067 22.1265C26.7712 22.491 27.3621 22.491 27.7267 22.1265L31.46 18.3932L30.14 17.0732Z" fill="#0090EC"/>
<path d="M23.3334 28H32.6667V29.8667H23.3334V28Z" fill="#0090EC"/>
<path d="M23.3334 31.7334H32.6667V33.6001H23.3334V31.7334Z" fill="#0090EC"/>
<path d="M11.2 14.9329C12.7652 14.9326 14.2261 15.7176 15.0897 17.023L16.6442 15.9896C14.651 12.9824 10.5974 12.1604 7.59018 14.1535C5.76411 15.3638 4.66639 17.4089 4.66663 19.5995C4.66663 19.964 4.69684 20.3279 4.75693 20.6875L6.59793 20.3785C6.55488 20.1212 6.53329 19.8605 6.53329 19.5995C6.53621 17.0234 8.62384 14.9358 11.2 14.9329Z" fill="#0090EC"/>
<path d="M0.933352 55.9996H27.0667C27.2166 55.9998 27.3642 55.9635 27.497 55.8939C30.3535 55.4581 32.97 53.6973 34.1962 51.333H39.2C39.4476 51.333 39.685 51.2346 39.86 51.0596L41.0667 49.8528L42.2734 51.0596C42.4484 51.2346 42.6858 51.333 42.9334 51.333H44.8C45.0476 51.333 45.285 51.2346 45.46 51.0596L46.6667 49.8528L47.8734 51.0596C48.0484 51.2346 48.2858 51.333 48.5334 51.333H50.4C50.7121 51.333 51.0034 51.177 51.1766 50.9174L53.0432 48.1174C53.2523 47.8039 53.2523 47.3954 53.0432 47.0819L51.1766 44.2819C51.0034 44.0223 50.7121 43.8663 50.4 43.8663H34.1962C32.7762 41.1293 29.4945 39.1996 26.1334 39.1996C24.4723 39.1979 22.8485 39.6915 21.4694 40.6174L20.831 40.3632C20.743 40.3291 20.6573 40.2896 20.5743 40.2446C20.5666 40.2404 20.559 40.2365 20.551 40.233C18.8538 39.3699 18.1777 37.2944 19.0408 35.5972C19.1764 35.3308 19.346 35.0829 19.5454 34.8602C20.7833 33.4916 21.4681 31.7116 21.4667 29.8663V26.4036C21.4667 23.4237 19.7813 20.6731 17.176 19.3975C16.26 18.9444 15.2568 18.6951 14.2352 18.6663C13.2682 18.6335 12.3042 18.7927 11.3989 19.1345C10.6277 19.4152 9.91109 19.8277 9.28097 20.3537C7.54684 21.7722 6.53884 23.8925 6.53335 26.133V29.8663C6.53674 31.7113 7.22122 33.49 8.45544 34.8613C9.5094 36.0396 9.62689 37.7838 8.74034 39.0927C8.73637 39.0984 8.73252 39.1043 8.72867 39.1102C8.4139 39.5922 7.97349 39.9791 7.45502 40.2292C7.44499 40.2341 7.43507 40.2393 7.42527 40.2446C7.34232 40.2896 7.25657 40.3291 7.1686 40.3632L7.15694 40.3676L2.92649 42.058C1.15444 42.7677 -0.00534812 44.4867 1.85459e-05 46.3957V55.0663C1.85459e-05 55.5817 0.417919 55.9996 0.933352 55.9996ZM26.1334 41.0663C28.9538 41.0663 31.7917 42.8219 32.7349 45.1497C32.8775 45.5022 33.2198 45.733 33.6 45.733H49.9006L51.1449 47.5997L49.9006 49.4663H48.9199L47.3267 47.873C46.9622 47.5085 46.3713 47.5085 46.0067 47.873L44.4135 49.4663H43.3199L41.7267 47.873C41.3622 47.5085 40.7713 47.5085 40.4067 47.873L38.8135 49.4663H33.6C33.2198 49.4663 32.8775 49.6971 32.7349 50.0497C31.7918 52.3778 28.9538 54.133 26.1334 54.133C22.5251 54.133 19.6 51.2079 19.6 47.5997C19.6 43.9914 22.5251 41.0663 26.1334 41.0663ZM1.86669 46.3957C1.86319 45.2496 2.55887 44.2174 3.6224 43.7904L7.84492 42.1031C7.99915 42.0433 8.14965 41.9742 8.29549 41.8961C9.10352 41.4973 9.7908 40.8905 10.2868 40.1381C11.6543 38.1177 11.4703 35.4255 9.8405 33.6099C9.47814 33.2101 9.17702 32.7589 8.94695 32.2709C8.9452 32.2673 8.94334 32.2636 8.9417 32.26C8.58155 31.5136 8.39629 30.695 8.40002 29.8663V26.133C8.40562 24.4543 9.16092 22.8657 10.4594 21.8017C10.4654 21.7969 10.4711 21.7922 10.4769 21.7873C10.9456 21.3964 11.4789 21.0903 12.0529 20.883C12.7303 20.6264 13.4522 20.5072 14.1762 20.5322C14.9318 20.553 15.674 20.7373 16.3517 21.0722C18.3252 22.0386 19.6 24.1311 19.6 26.4036V29.8663C19.6012 31.2485 19.0887 32.5819 18.162 33.6074C16.1999 35.7898 16.3786 39.1497 18.5612 41.1118C18.9055 41.4213 19.2888 41.6845 19.7012 41.8947C19.7638 41.9281 19.8267 41.9585 19.8892 41.988C16.7894 45.4279 17.0651 50.7293 20.505 53.8291C20.6211 53.9337 20.7401 54.035 20.8618 54.133H1.86669V46.3957Z" fill="#0090EC"/>
<path d="M24.2667 50.3998C25.8131 50.3998 27.0667 49.1462 27.0667 47.5998C27.0667 46.0534 25.8131 44.7998 24.2667 44.7998C22.7203 44.7998 21.4667 46.0534 21.4667 47.5998C21.4684 49.1455 22.721 50.3981 24.2667 50.3998ZM24.2667 46.6665C24.7821 46.6665 25.2 47.0844 25.2 47.5998C25.2 48.1152 24.7821 48.5331 24.2667 48.5331C23.7512 48.5331 23.3333 48.1152 23.3333 47.5998C23.3339 47.0846 23.7515 46.6671 24.2667 46.6665Z" fill="#0090EC"/>
</g>
<defs>
<clipPath id="clip0_603_5388">
<rect width="56" height="56" fill="white"/>
</clipPath>
</defs>
</svg>
