<svg width="56" height="56" viewBox="0 0 56 56" fill="none" xmlns="http://www.w3.org/2000/svg">
<g clip-path="url(#clip0_603_5283)">
<path d="M7.22342 23.3838H5.58772C5.13436 23.3838 4.76697 23.7512 4.76697 24.2045C4.76697 24.6579 5.13436 25.0253 5.58772 25.0253H7.22353C7.67688 25.0253 8.04427 24.6579 8.04427 24.2045C8.04427 23.7512 7.67677 23.3838 7.22342 23.3838Z" fill="#0090EC"/>
<path d="M7.22342 19.4443H5.58772C5.13436 19.4443 4.76697 19.8117 4.76697 20.2651C4.76697 20.7184 5.13436 21.0858 5.58772 21.0858H7.22353C7.67688 21.0858 8.04427 20.7184 8.04427 20.2651C8.04416 19.8116 7.67677 19.4443 7.22342 19.4443Z" fill="#0090EC"/>
<path d="M7.22342 27.3232H5.58772C5.13436 27.3232 4.76697 27.6906 4.76697 28.144C4.76697 28.5973 5.13436 28.9647 5.58772 28.9647H7.22353C7.67688 28.9647 8.04427 28.5973 8.04427 28.144C8.04416 27.6907 7.67677 27.3232 7.22342 27.3232Z" fill="#0090EC"/>
<path d="M7.22342 31.2627H5.58772C5.13436 31.2627 4.76697 31.6302 4.76697 32.0834C4.76697 32.5368 5.13436 32.9042 5.58772 32.9042H7.22353C7.67688 32.9042 8.04427 32.5368 8.04427 32.0834C8.04416 31.6302 7.67677 31.2627 7.22342 31.2627Z" fill="#0090EC"/>
<path d="M7.22342 35.2021H5.58772C5.13436 35.2021 4.76697 35.5696 4.76697 36.0229C4.76697 36.4763 5.13436 36.8436 5.58772 36.8436H7.22353C7.67688 36.8436 8.04427 36.4763 8.04427 36.0229C8.04416 35.5695 7.67677 35.2021 7.22342 35.2021Z" fill="#0090EC"/>
<path d="M7.22342 39.1416H5.58772C5.13436 39.1416 4.76697 39.5091 4.76697 39.9623C4.76697 40.4157 5.13436 40.7831 5.58772 40.7831H7.22353C7.67688 40.7831 8.04427 40.4157 8.04427 39.9623C8.04416 39.5091 7.67677 39.1416 7.22342 39.1416Z" fill="#0090EC"/>
<path d="M7.22342 43.0811H5.58772C5.13436 43.0811 4.76697 43.4486 4.76697 43.9018C4.76697 44.3552 5.13436 44.7226 5.58772 44.7226H7.22353C7.67688 44.7226 8.04427 44.3552 8.04427 43.9018C8.04416 43.4486 7.67677 43.0811 7.22342 43.0811Z" fill="#0090EC"/>
<path d="M22.3311 41.6634L20.8859 40.2183L22.3311 38.7732C22.6514 38.4523 22.6514 37.9328 22.331 37.6123C22.0104 37.292 21.4908 37.292 21.1703 37.6123L19.1449 39.6377C18.8244 39.9584 18.8244 40.478 19.1449 40.7985L21.1703 42.8239C21.3306 42.9842 21.5407 43.0642 21.7507 43.0642C21.9607 43.0642 22.1709 42.9842 22.3312 42.8239C22.6516 42.5034 22.6516 41.9838 22.3311 41.6634Z" fill="#0090EC"/>
<path d="M31.1245 39.6375L29.099 37.6123C28.7783 37.292 28.2588 37.292 27.9383 37.6123C27.6179 37.933 27.6179 38.4526 27.9383 38.773L29.3835 40.2181L27.9383 41.6631C27.6179 41.9838 27.6179 42.5034 27.9383 42.8238C28.0987 42.9841 28.3088 43.0641 28.5188 43.0641C28.7288 43.0641 28.9389 42.9841 29.0993 42.8238L31.1247 40.7984C31.445 40.4777 31.445 39.9582 31.1245 39.6375Z" fill="#0090EC"/>
<path d="M26.4641 36.5028C26.0376 36.3479 25.5671 36.5674 25.4122 36.9932L23.1373 43.2432C22.9822 43.6692 23.2019 44.1401 23.6277 44.2952C23.7205 44.3289 23.8152 44.3448 23.9082 44.3448C24.2435 44.3448 24.5583 44.1378 24.6797 43.8045L26.9546 37.5545C27.1096 37.1288 26.89 36.6578 26.4641 36.5028Z" fill="#0090EC"/>
<path d="M6.3917 9.14716C6.38186 9.09587 6.36546 9.04337 6.34577 8.99404C6.32499 8.94482 6.29983 8.89659 6.2703 8.85284C6.23978 8.8069 6.20577 8.76534 6.16858 8.72793C6.01535 8.5748 5.80414 8.4873 5.58747 8.4873C5.37178 8.4873 5.1596 8.5748 5.00735 8.72793C4.96907 8.76523 4.93516 8.80679 4.90454 8.85284C4.8749 8.89648 4.84985 8.94471 4.83005 8.99404C4.80927 9.04326 4.79286 9.09576 4.78302 9.14716C4.77208 9.20076 4.76672 9.25457 4.76672 9.30816C4.76672 9.52374 4.85422 9.73593 5.00735 9.88818C5.1596 10.0413 5.37178 10.1289 5.58747 10.1289C5.64096 10.1289 5.69455 10.1233 5.74836 10.1125C5.80075 10.1027 5.85227 10.0863 5.90149 10.0655C5.95071 10.0457 5.99894 10.0195 6.04389 9.99C6.08863 9.96047 6.1303 9.92657 6.16869 9.88829C6.32083 9.73604 6.40833 9.52385 6.40833 9.30827C6.40811 9.25457 6.40253 9.20087 6.3917 9.14716Z" fill="#0090EC"/>
<path d="M8.9502 8.72793C8.79696 8.57481 8.58576 8.4873 8.36909 8.4873C8.1534 8.4873 7.94231 8.57481 7.78896 8.72793C7.63584 8.88018 7.54834 9.09237 7.54834 9.30805C7.54834 9.52363 7.63584 9.73582 7.78896 9.88807C7.9422 10.0412 8.1534 10.1288 8.36909 10.1288C8.58565 10.1288 8.79685 10.0412 8.9502 9.88807C9.10234 9.73582 9.19093 9.52363 9.19093 9.30805C9.19093 9.09237 9.10223 8.88018 8.9502 8.72793Z" fill="#0090EC"/>
<path d="M11.9561 9.14744C11.9453 9.09614 11.93 9.04364 11.9092 8.99431C11.8884 8.94509 11.8633 8.89686 11.8338 8.85311C11.8042 8.80717 11.7704 8.76561 11.732 8.7282C11.6938 8.68992 11.6523 8.65612 11.6072 8.62539C11.5624 8.59575 11.5154 8.5707 11.466 8.54992C11.4157 8.53023 11.3642 8.51383 11.3117 8.50289C11.2066 8.48211 11.0972 8.48211 10.991 8.50289C10.9385 8.51383 10.8871 8.53023 10.8378 8.54992C10.7875 8.5707 10.7404 8.59586 10.6955 8.62539C10.6506 8.65602 10.6091 8.68992 10.5706 8.7282C10.5334 8.7655 10.4985 8.80706 10.4689 8.85311C10.4393 8.89675 10.4142 8.94498 10.3935 8.99431C10.3727 9.04353 10.3574 9.09603 10.3464 9.14744C10.3365 9.20103 10.3311 9.25484 10.3311 9.30844C10.3311 9.52401 10.4186 9.7362 10.5706 9.88845C10.609 9.92673 10.6504 9.96064 10.6955 9.99017C10.7403 10.0198 10.7874 10.046 10.8378 10.0656C10.887 10.0863 10.9384 10.1028 10.991 10.1127C11.0434 10.1236 11.0981 10.1291 11.1519 10.1291C11.2055 10.1291 11.259 10.1235 11.3117 10.1127C11.3641 10.1028 11.4157 10.0864 11.466 10.0656C11.5153 10.0458 11.5623 10.0197 11.6072 9.99017C11.6522 9.96064 11.6936 9.92673 11.732 9.88845C11.8853 9.7362 11.9728 9.52401 11.9728 9.30844C11.9726 9.25484 11.9671 9.20114 11.9561 9.14744Z" fill="#0090EC"/>
<path d="M34.1387 8.4873H14.569C14.1157 8.4873 13.7483 8.85469 13.7483 9.30805C13.7483 9.76141 14.1157 10.1288 14.569 10.1288H34.1387C34.5921 10.1288 34.9595 9.76141 34.9595 9.30805C34.9593 8.8548 34.592 8.4873 34.1387 8.4873Z" fill="#0090EC"/>
<path d="M40.3807 8.4873H37.0248C36.5715 8.4873 36.2041 8.85469 36.2041 9.30805C36.2041 9.76141 36.5715 10.1288 37.0248 10.1288H40.3807C40.834 10.1288 41.2014 9.76141 41.2014 9.30805C41.2014 8.8548 40.834 8.4873 40.3807 8.4873Z" fill="#0090EC"/>
<path d="M47.0902 25.4619H36.3227C35.8693 25.4619 35.502 25.8293 35.502 26.2827C35.502 26.736 35.8693 27.1034 36.3227 27.1034H47.0902C47.5436 27.1034 47.911 26.736 47.911 26.2827C47.9109 25.8292 47.5436 25.4619 47.0902 25.4619Z" fill="#0090EC"/>
<path d="M42.4996 21.5225H39.3809C38.9276 21.5225 38.5602 21.8899 38.5602 22.3432C38.5602 22.7966 38.9276 23.164 39.3809 23.164H42.4996C42.953 23.164 43.3204 22.7966 43.3204 22.3432C43.3204 21.8899 42.953 21.5225 42.4996 21.5225Z" fill="#0090EC"/>
<path d="M50.7218 21.5225H45.6458C45.1925 21.5225 44.8251 21.8899 44.8251 22.3432C44.8251 22.7966 45.1925 23.164 45.6458 23.164H50.7218C51.1752 23.164 51.5425 22.7966 51.5425 22.3432C51.5425 21.89 51.175 21.5225 50.7218 21.5225Z" fill="#0090EC"/>
<path d="M35.8519 21.5225H25.4833C25.03 21.5225 24.6626 21.8899 24.6626 22.3432C24.6626 22.7966 25.03 23.164 25.4833 23.164H35.8519C36.3052 23.164 36.6726 22.7966 36.6726 22.3432C36.6725 21.8899 36.3052 21.5225 35.8519 21.5225Z" fill="#0090EC"/>
<path d="M33.2792 25.4619H30.1605C29.7071 25.4619 29.3397 25.8293 29.3397 26.2827C29.3397 26.736 29.7071 27.1034 30.1605 27.1034H33.2792C33.7325 27.1034 34.0999 26.736 34.0999 26.2827C34.0998 25.8292 33.7325 25.4619 33.2792 25.4619Z" fill="#0090EC"/>
<path d="M26.9697 25.4619H25.3339C24.8806 25.4619 24.5132 25.8293 24.5132 26.2827C24.5132 26.736 24.8806 27.1034 25.3339 27.1034H26.9697C27.4231 27.1034 27.7905 26.736 27.7905 26.2827C27.7905 25.8292 27.4232 25.4619 26.9697 25.4619Z" fill="#0090EC"/>
<path d="M21.2515 25.4619H19.6157C19.1623 25.4619 18.7949 25.8293 18.7949 26.2827C18.7949 26.736 19.1623 27.1034 19.6157 27.1034H21.2515C21.7048 27.1034 22.0722 26.736 22.0722 26.2827C22.0722 25.8293 21.7048 25.4619 21.2515 25.4619Z" fill="#0090EC"/>
<path d="M21.2515 21.5225H19.6157C19.1623 21.5225 18.7949 21.8899 18.7949 22.3432C18.7949 22.7966 19.1623 23.164 19.6157 23.164H21.2515C21.7048 23.164 22.0722 22.7966 22.0722 22.3432C22.0722 21.89 21.7048 21.5225 21.2515 21.5225Z" fill="#0090EC"/>
<path d="M51.5262 26.1228C51.5164 26.0703 51.4999 26.019 51.4791 25.9685C51.4595 25.9193 51.4332 25.8723 51.4037 25.8273C51.3741 25.7825 51.3403 25.7397 51.302 25.7024C51.2647 25.6641 51.2221 25.6302 51.1771 25.5997C51.1322 25.5701 51.0852 25.545 51.0359 25.5243C50.9856 25.5046 50.9342 25.4882 50.8815 25.4783C50.7765 25.4564 50.6671 25.4564 50.561 25.4783C50.5086 25.4882 50.457 25.5046 50.4077 25.5243C50.3586 25.545 50.3103 25.5702 50.2654 25.5997C50.2206 25.6302 50.179 25.6643 50.1406 25.7024C50.1035 25.7396 50.0695 25.7823 50.0389 25.8273C50.0093 25.8722 49.9842 25.9192 49.9635 25.9685C49.9427 26.0188 49.9274 26.0703 49.9164 26.1228C49.9066 26.1753 49.901 26.229 49.901 26.2827C49.901 26.3361 49.9066 26.39 49.9164 26.4436C49.9274 26.4961 49.9426 26.5476 49.9635 26.5967C49.9842 26.6459 50.0094 26.6941 50.0389 26.7379C50.0694 26.7838 50.1035 26.8255 50.1406 26.8628C50.1789 26.9011 50.2204 26.935 50.2654 26.9656C50.3103 26.9952 50.3585 27.0203 50.4077 27.0411C50.457 27.0608 50.5085 27.0772 50.561 27.087C50.6146 27.0979 50.6682 27.1034 50.7219 27.1034C50.7756 27.1034 50.8292 27.0978 50.8817 27.087C50.9342 27.0772 50.9857 27.0608 51.036 27.0411C51.0852 27.0203 51.1322 26.9951 51.1772 26.9656C51.222 26.9351 51.2647 26.9011 51.3021 26.8628C51.3404 26.8256 51.3742 26.7839 51.4038 26.7379C51.4333 26.6942 51.4596 26.646 51.4792 26.5967C51.4999 26.5476 51.5165 26.4961 51.5263 26.4436C51.5372 26.39 51.5426 26.3364 51.5426 26.2827C51.5425 26.229 51.537 26.1754 51.5262 26.1228Z" fill="#0090EC"/>
<path d="M53.866 33.8332H45.1974V30.8788H53.866C55.0426 30.8788 55.9999 29.9215 55.9999 28.7449V19.8817C55.9999 18.7051 55.0427 17.7478 53.866 17.7478H51.5761C51.1228 17.7478 50.7553 18.1152 50.7553 18.5685C50.7553 19.0219 51.1228 19.3893 51.5761 19.3893H53.866C54.1329 19.3893 54.3585 19.6148 54.3585 19.8817V28.7449C54.3585 29.0117 54.1329 29.2373 53.866 29.2373C50.6043 29.2373 16.7541 29.2373 15.8822 29.2373C15.6152 29.2373 15.3897 29.0117 15.3897 28.7449V19.8817C15.3897 19.6148 15.6152 19.3893 15.8822 19.3893C17.2446 19.3893 46.3301 19.3893 47.7461 19.3893C48.1994 19.3893 48.5668 19.0219 48.5668 18.5685C48.5668 18.1152 48.1994 17.7478 47.7461 17.7478H45.1974C45.1974 16.2206 45.1974 9.71397 45.1974 8.17945C45.1974 5.95662 43.3891 4.14822 41.1662 4.14822C1.67185 4.15402 4.06169 4.13641 3.73696 4.16102C2.00424 4.29117 0.58368 5.51311 0.148697 7.13306C-0.0559436 7.8942 0.0100094 7.95435 0.0100094 18.3502C0.0100094 18.8036 0.377399 19.171 0.830758 19.171C1.28412 19.171 1.65151 18.8036 1.65151 18.3502V14.4677H43.5559V17.7479H15.8822C14.7056 17.7479 13.7482 18.7051 13.7482 19.8818V28.745C13.7482 29.9216 14.7055 30.8789 15.8822 30.8789H43.5561V33.8333H15.8822C14.7056 33.8333 13.7482 34.7906 13.7482 35.9672V44.8305C13.7482 46.0072 14.7055 46.9644 15.8822 46.9644H43.5561V47.8216C43.5561 49.1392 42.484 50.2113 41.1663 50.2113H13.0666C12.6133 50.2113 12.2459 50.5788 12.2459 51.0321C12.2459 51.4854 12.6133 51.8528 13.0666 51.8528H41.1662C43.389 51.8528 45.1974 50.0445 45.1974 47.8216V46.9644H53.866C55.0426 46.9644 55.9999 46.0072 55.9999 44.8305V35.9672C55.9999 34.7906 55.0426 33.8332 53.866 33.8332ZM1.65162 12.8262C1.65523 8.01856 1.4006 7.35968 2.42949 6.41709C2.85605 6.02772 3.42327 5.78983 4.04135 5.78983H41.1663C42.484 5.78983 43.5561 6.86192 43.5561 8.17956V12.8262H1.65162ZM54.3585 44.8304C54.3585 45.0974 54.1329 45.3228 53.866 45.3228C50.6043 45.3228 16.7541 45.3228 15.8822 45.3228C15.6152 45.3228 15.3897 45.0974 15.3897 44.8304V35.9671C15.3897 35.7002 15.6152 35.4747 15.8822 35.4747C16.7983 35.4747 50.7431 35.4747 53.866 35.4747C54.1329 35.4747 54.3585 35.7002 54.3585 35.9671V44.8304Z" fill="#0090EC"/>
<path d="M9.23655 50.2111H4.04136C2.72372 50.2111 1.65163 49.139 1.65163 47.8214V22.1801C1.65163 21.7268 1.28424 21.3594 0.83088 21.3594C0.377522 21.3594 0.0101318 21.7268 0.0101318 22.1801V47.8214C0.0101318 50.0442 1.81843 51.8526 4.04136 51.8526H9.23666C9.69002 51.8526 10.0574 51.4852 10.0574 51.0319C10.0573 50.5786 9.69002 50.2111 9.23655 50.2111Z" fill="#0090EC"/>
</g>
<defs>
<clipPath id="clip0_603_5283">
<rect width="56" height="56" fill="white"/>
</clipPath>
</defs>
</svg>
