<svg width="56" height="56" viewBox="0 0 56 56" fill="none" xmlns="http://www.w3.org/2000/svg">
<g clip-path="url(#clip0_603_5241)">
<path d="M29.6965 23.012C28.9428 21.7064 27.0582 21.7049 26.3036 23.012L13.829 44.6185C13.0753 45.924 14.0161 47.5569 15.5255 47.5569H35.4937C35.9467 47.5569 36.314 47.1896 36.314 46.7365C36.314 46.2835 35.9467 45.9162 35.4937 45.9162H15.5255C15.2806 45.9162 15.1265 45.6525 15.2498 45.4388L27.7243 23.8323C27.8464 23.6207 28.152 23.6182 28.2756 23.8323L40.7501 45.4388C40.8726 45.651 40.7213 45.9162 40.4744 45.9162H39.3218C38.8688 45.9162 38.5015 46.2835 38.5015 46.7365C38.5015 47.1896 38.8688 47.5569 39.3218 47.5569H40.4744C41.9818 47.5569 42.9255 45.9256 42.1708 44.6185L29.6965 23.012Z" fill="#0090EC"/>
<path d="M28 38.3935C29.1084 38.3935 30.024 37.5266 30.0846 36.4199L30.3646 31.302C30.4386 29.9469 29.3571 28.8047 28 28.8047C26.6428 28.8047 25.5614 29.947 25.6354 31.302L25.9154 36.4199C25.976 37.5266 26.8916 38.3935 28 38.3935ZM28 30.4453C28.4163 30.4453 28.7492 30.7938 28.7264 31.2125L28.4464 36.3303C28.4333 36.5674 28.2373 36.753 28 36.753C27.7627 36.753 27.5667 36.5674 27.5536 36.3303L27.2736 31.2125C27.2509 30.7961 27.5814 30.4453 28 30.4453Z" fill="#0090EC"/>
<path d="M28 44.4464C29.3371 44.4464 30.4249 43.3586 30.4249 42.0215C30.4249 40.6844 29.3371 39.5967 28 39.5967C26.6629 39.5967 25.5752 40.6844 25.5752 42.0215C25.5752 43.3586 26.6629 44.4464 28 44.4464ZM28 41.2373C28.4325 41.2373 28.7843 41.5891 28.7843 42.0215C28.7843 42.454 28.4325 42.8057 28 42.8057C27.5676 42.8057 27.2158 42.454 27.2158 42.0215C27.2158 41.5891 27.5676 41.2373 28 41.2373Z" fill="#0090EC"/>
<path d="M52.1044 22.188C47.0562 13.6698 37.9179 8.44336 28 8.44336C25.3275 8.44336 22.6838 8.8195 20.1422 9.56128C19.7072 9.68827 19.4576 10.1437 19.5845 10.5786C19.7116 11.0136 20.1672 11.2633 20.6018 11.1363C22.9941 10.4381 25.4832 10.0841 28 10.0841C32.3144 10.0841 36.5662 11.1421 40.3501 13.1504L36.9001 19.1261C34.1589 17.7137 31.0993 16.9705 28.0001 16.9705C24.901 16.9705 21.8413 17.7137 19.1002 19.1261L15.65 13.1503C16.1311 12.8948 16.6211 12.6535 17.1137 12.4299C17.5261 12.2426 17.7088 11.7563 17.5215 11.3438C17.3343 10.9312 16.848 10.7485 16.4355 10.9359C14.3129 11.8996 12.3168 13.1276 10.4895 14.5934L9.87908 12.3152C9.61264 11.3212 8.36588 10.9864 7.63766 11.7147L3.27152 16.0808C2.54395 16.8085 2.87722 18.0556 3.8722 18.3222L6.15037 18.9326C2.17503 23.8887 0 30.0565 0 36.4434C0 36.8964 0.367281 37.2637 0.820312 37.2637H9.3473C9.80033 37.2637 10.1676 36.8964 10.1676 36.4434C10.1676 26.7507 18.0486 18.611 28 18.611C37.9607 18.611 45.8324 26.7569 45.8324 36.4434C45.8324 36.8964 46.1997 37.2637 46.6527 37.2637H55.1797C55.6327 37.2637 56 36.8964 56 36.4434C56 31.4177 54.6529 26.4883 52.1044 22.188ZM8.42909 13.2434C8.69116 14.2214 9.49277 17.2132 9.75745 18.2008C8.7675 17.9356 5.78288 17.1358 4.80003 16.8725L8.42909 13.2434ZM8.54449 35.623H1.65331C1.83805 29.6618 4.03342 23.9476 7.89173 19.3993L9.83609 19.9203C10.8263 20.1855 11.7447 19.2789 11.4769 18.2795L10.956 16.3351C11.9837 15.4633 13.0793 14.669 14.2256 13.9647L17.6748 19.9388C12.2431 23.3483 8.81584 29.2359 8.54449 35.623ZM47.4555 35.623C47.1842 29.2359 43.7568 23.3482 38.3251 19.9389L41.7743 13.9648C49.3245 18.6027 54.0694 26.7764 54.3466 35.6232H47.4555V35.623Z" fill="#0090EC"/>
<path d="M4.98066 39.5781C4.70252 39.5781 4.42427 39.6071 4.1539 39.6641C3.7106 39.7576 3.4271 40.1927 3.52062 40.6361C3.61413 41.0793 4.04901 41.363 4.49263 41.2694C4.65188 41.2358 4.81616 41.2188 4.98066 41.2188C6.27577 41.2188 7.32949 42.2724 7.32949 43.5676C7.32949 44.8628 6.27588 45.9164 4.98066 45.9164C3.68545 45.9164 2.63184 44.8628 2.63184 43.5676C2.63184 43.4485 2.6408 43.3288 2.65852 43.212C2.72634 42.764 2.41812 42.346 1.97023 42.2782C1.52223 42.21 1.1042 42.5185 1.03638 42.9665C1.00641 43.1643 0.991211 43.3665 0.991211 43.5676C0.991211 45.7673 2.7808 47.557 4.98066 47.557C7.18052 47.557 8.97012 45.7674 8.97012 43.5676C8.97012 41.3677 7.18041 39.5781 4.98066 39.5781Z" fill="#0090EC"/>
<path d="M51.0194 39.5781C48.8196 39.5781 47.0299 41.3677 47.0299 43.5676C47.0299 45.7674 48.8195 47.557 51.0194 47.557C53.2192 47.557 55.0088 45.7674 55.0088 43.5676C55.0088 41.3677 53.2191 39.5781 51.0194 39.5781ZM51.0194 45.9164C49.7243 45.9164 48.6705 44.8628 48.6705 43.5676C48.6705 42.2724 49.7241 41.2188 51.0194 41.2188C52.3146 41.2188 53.3682 42.2724 53.3682 43.5676C53.3682 44.8628 52.3145 45.9164 51.0194 45.9164Z" fill="#0090EC"/>
</g>
<defs>
<clipPath id="clip0_603_5241">
<rect width="56" height="56" fill="white"/>
</clipPath>
</defs>
</svg>
