<svg width="56" height="56" viewBox="0 0 56 56" fill="none" xmlns="http://www.w3.org/2000/svg">
<g clip-path="url(#clip0_603_5248)">
<path d="M34.5333 32.667H33.5067C33.1205 32.6677 32.775 32.4268 32.6424 32.0641C32.5285 31.7654 32.4063 31.4733 32.2747 31.1839C32.1111 30.8321 32.1858 30.4154 32.4613 30.1423L33.1931 29.4097C34.2793 28.3138 34.2774 26.5465 33.1884 25.4533L30.5508 22.8157C29.4561 21.7274 27.6881 21.7274 26.5935 22.8157L25.8617 23.5465C25.588 23.821 25.1721 23.8955 24.8201 23.7331C24.5308 23.6015 24.2387 23.4793 23.9391 23.3598C23.5745 23.2281 23.3319 22.8813 23.3333 22.4937V21.467C23.3333 19.9206 22.0797 18.667 20.5333 18.667H16.8C15.2536 18.667 14 19.9206 14 21.467V22.4937C14.0007 22.8798 13.7598 23.2253 13.3971 23.3579C13.0984 23.4718 12.8063 23.5941 12.5169 23.7257C12.1649 23.8884 11.7489 23.8139 11.4753 23.539L10.7427 22.8073C9.6481 21.7197 7.88083 21.7197 6.78627 22.8073L4.14867 25.4533C3.0604 26.5479 3.0604 28.3159 4.14867 29.4106L4.87947 30.1423C5.15503 30.4154 5.2297 30.8321 5.06613 31.1839C4.93453 31.4733 4.81227 31.7654 4.69747 32.065C4.56388 32.4298 4.21517 32.671 3.82667 32.667H2.8C1.25358 32.667 0 33.9206 0 35.467V39.2003C0 40.7467 1.25358 42.0003 2.8 42.0003H3.82667C4.21283 41.9996 4.55828 42.2405 4.69093 42.6033C4.8048 42.9019 4.92707 43.1941 5.05867 43.4834C5.22223 43.8353 5.14757 44.2519 4.872 44.525L4.14027 45.2577C3.0527 46.3522 3.0527 48.1195 4.14027 49.2141L6.77787 51.8517C7.87255 52.9399 9.64052 52.9399 10.7352 51.8517L11.4669 51.1209C11.7406 50.8463 12.1565 50.7718 12.5085 50.9342C12.7979 51.0658 13.09 51.1881 13.3896 51.3075C13.756 51.4377 14.0007 51.7848 14 52.1737V53.2003C14 54.7467 15.2536 56.0003 16.8 56.0003H20.5333C22.0797 56.0003 23.3333 54.7467 23.3333 53.2003V52.1737C23.3326 51.7875 23.5735 51.442 23.9363 51.3094C24.2349 51.1955 24.5271 51.0733 24.8164 50.9417C25.1684 50.7789 25.5844 50.8535 25.858 51.1283L26.5907 51.8601C27.6867 52.9459 29.4535 52.9438 30.5471 51.8554L33.1847 49.2178C34.2729 48.1231 34.2729 46.3551 33.1847 45.2605L32.4539 44.5287C32.1783 44.2556 32.1036 43.839 32.2672 43.4871C32.3988 43.1978 32.5211 42.9057 32.6405 42.6061C32.7722 42.2415 33.119 41.9989 33.5067 42.0003H34.5333C36.0797 42.0003 37.3333 40.7467 37.3333 39.2003V35.467C37.3333 33.9206 36.0797 32.667 34.5333 32.667ZM35.4667 39.2003C35.4667 39.7158 35.0488 40.1337 34.5333 40.1337H33.5067C32.3464 40.138 31.3081 40.8551 30.8933 41.9387C30.7944 42.2001 30.6874 42.4573 30.5723 42.7106C30.0924 43.7699 30.315 45.0155 31.1323 45.8429L31.8621 46.5737C32.2268 46.9379 32.2272 47.5289 31.8628 47.8936C31.8626 47.8939 31.8624 47.8941 31.8621 47.8943L29.2245 50.5319C28.8601 50.8963 28.2693 50.8963 27.9048 50.5319L27.1731 49.8011C26.346 48.9832 25.1 48.7605 24.0408 49.2411C23.7879 49.3559 23.5303 49.4633 23.2708 49.5622C22.188 49.9768 21.4713 51.0142 21.4667 52.1737V53.2003C21.4667 53.7158 21.0488 54.1337 20.5333 54.1337H16.8C16.2846 54.1337 15.8667 53.7158 15.8667 53.2003V52.1737C15.8623 51.0134 15.1452 49.9751 14.0616 49.5603C13.8003 49.4614 13.543 49.3544 13.2897 49.2393C12.2304 48.7596 10.985 48.9824 10.1575 49.7993L9.42667 50.5291C9.06243 50.8938 8.4714 50.8942 8.1067 50.5298C8.10647 50.5296 8.10623 50.5294 8.106 50.5291L5.4684 47.8943C5.10405 47.5299 5.10405 46.9391 5.4684 46.5746L6.1992 45.8429C7.01645 45.0155 7.23905 43.7699 6.7592 42.7106C6.6444 42.4577 6.53707 42.2001 6.43813 41.9406C6.02443 40.8566 4.9868 40.1388 3.82667 40.1337H2.8C2.28457 40.1337 1.86667 39.7158 1.86667 39.2003V35.467C1.86667 34.9516 2.28457 34.5337 2.8 34.5337H3.82667C4.98692 34.5293 6.02525 33.8122 6.44 32.7286C6.53893 32.4673 6.64592 32.21 6.76107 31.9567C7.24092 30.8974 7.0182 29.6519 6.20107 28.8245L5.46747 28.0937C5.10277 27.7294 5.10242 27.1384 5.46677 26.7737C5.467 26.7735 5.46723 26.7732 5.46747 26.773L8.10507 24.1354C8.46953 23.771 9.06033 23.771 9.4248 24.1354L10.1565 24.8662C10.9836 25.6841 12.2296 25.9069 13.2888 25.4262C13.5417 25.3114 13.7993 25.2041 14.0588 25.1051C15.1431 24.6918 15.8614 23.654 15.8667 22.4937V21.467C15.8667 20.9516 16.2846 20.5337 16.8 20.5337H20.5333C21.0488 20.5337 21.4667 20.9516 21.4667 21.467V22.4937C21.471 23.6539 22.1881 24.6922 23.2717 25.107C23.5331 25.2059 23.7903 25.3129 24.0436 25.4281C25.1028 25.9087 26.3488 25.686 27.1759 24.8681L27.9067 24.1382C28.2725 23.7763 28.8615 23.7763 29.2273 24.1382L31.8649 26.7758C32.2293 27.1403 32.2293 27.7311 31.8649 28.0955L31.1341 28.8273C30.317 29.6547 30.0943 30.9002 30.5741 31.9595C30.6889 32.2125 30.7963 32.4701 30.8952 32.7295C31.3098 33.8123 32.3472 34.529 33.5067 34.5337H34.5333C35.0488 34.5337 35.4667 34.9516 35.4667 35.467V39.2003Z" fill="#0090EC"/>
<path d="M27.048 36.9603C27.0387 36.7363 27.0228 36.5132 26.9957 36.2911C26.9659 36.0521 26.9304 35.8151 26.8809 35.5827C26.8483 35.4305 26.8053 35.2803 26.7643 35.1291C26.712 34.9368 26.6532 34.7473 26.5879 34.5607C26.5421 34.4309 26.4945 34.3021 26.446 34.1743C26.3258 33.8754 26.1884 33.5836 26.0344 33.3007C26.0223 33.2792 26.0148 33.2559 26.0027 33.2344C25.7599 32.8023 25.4787 32.3926 25.1627 32.0108C25.1356 31.9772 25.1048 31.9455 25.0768 31.9128C24.948 31.7607 24.8155 31.6132 24.6764 31.4723C24.6036 31.3967 24.5271 31.3257 24.4505 31.2529C24.3572 31.1661 24.2639 31.0803 24.1705 30.9981C24.0573 30.8998 23.9419 30.8046 23.8243 30.7125L23.6712 30.5987C22.227 29.5169 20.471 28.9327 18.6667 28.9336C18.5733 28.9336 18.48 28.9476 18.3867 28.9513C18.1879 28.9569 17.9881 28.9681 17.7875 28.9887C17.682 28.9999 17.5756 29.012 17.4701 29.0269C17.1659 29.0669 16.8639 29.1234 16.5657 29.1959C12.0716 30.3572 9.36986 34.9419 10.5312 39.436C11.2965 42.3975 13.6102 44.7094 16.5723 45.4723C16.5872 45.4723 16.6031 45.4769 16.6189 45.4807C16.9413 45.561 17.2678 45.6235 17.5971 45.6673C17.8145 45.6944 18.032 45.7 18.2504 45.7103C18.396 45.7177 18.5304 45.7392 18.6825 45.7392C18.9485 45.7392 19.2248 45.7215 19.5067 45.6935C19.5365 45.6935 19.5664 45.6851 19.6 45.6813C19.8268 45.6561 20.0564 45.6225 20.2907 45.5759C20.384 45.5581 20.4708 45.5348 20.5604 45.5143C20.7247 45.476 20.888 45.4359 21.056 45.3864C21.1867 45.3472 21.3136 45.3015 21.4415 45.2567C21.5693 45.2119 21.7019 45.1633 21.8344 45.1129C21.9669 45.0625 22.078 45.0047 22.1984 44.9487C22.3552 44.8768 22.5111 44.8059 22.6651 44.7219H22.6707C23.5417 44.2555 24.3462 43.6745 25.0628 42.9943C25.2564 42.8137 25.4247 42.6076 25.5631 42.382C26.2915 41.2142 26.7701 39.9081 26.9687 38.546C26.9948 38.3659 27.0181 38.1857 27.0321 38.0019C27.0452 37.8329 27.0545 37.6649 27.0583 37.4969C27.0583 37.4437 27.0657 37.3933 27.0657 37.3401C27.0667 37.2085 27.0536 37.0872 27.048 36.9603ZM25.1879 37.5716C25.1879 37.6491 25.1813 37.7265 25.1767 37.8031C25.1599 38.0289 25.1309 38.2548 25.0927 38.4816C24.7438 40.4221 23.539 42.1021 21.8129 43.0549C21.6972 43.1156 21.5833 43.1725 21.4695 43.2248L21.392 43.2621C20.8497 43.5083 20.2774 43.6815 19.6896 43.7773C19.6485 43.7839 19.6065 43.7913 19.5645 43.7969C19.4479 43.8137 19.3331 43.8277 19.2192 43.838C19.0689 43.8511 18.9177 43.8585 18.7637 43.8613C18.6984 43.8613 18.634 43.8613 18.5687 43.8613C18.3478 43.8588 18.1273 43.8451 17.9079 43.8203L17.7959 43.8072C17.5392 43.7736 17.2846 43.7256 17.0333 43.6635C13.5378 42.7687 11.4294 39.2097 12.324 35.7141C12.9151 33.4044 14.7176 31.6 17.0268 31.0065V31.0056C17.563 30.8704 18.1137 30.8013 18.6667 30.8003C18.9335 30.8018 19.2001 30.8199 19.4647 30.8544C19.5356 30.8628 19.6056 30.8759 19.6756 30.8861C19.8772 30.9179 20.0769 30.958 20.2739 31.0084C20.3383 31.0252 20.4027 31.0401 20.4661 31.0579C20.9624 31.2011 21.4402 31.4023 21.8895 31.6571C21.9613 31.6991 22.0313 31.7429 22.1023 31.7868C22.2497 31.8801 22.3925 31.9735 22.5335 32.0799C22.6091 32.1349 22.6856 32.1891 22.7584 32.2479C22.9416 32.3942 23.1169 32.5499 23.2839 32.7145C23.3501 32.7817 23.4108 32.8555 23.4752 32.9255C23.5825 33.0421 23.6871 33.1616 23.7869 33.2876C23.856 33.3744 23.9223 33.464 23.9876 33.5545C24.0809 33.6889 24.1743 33.8289 24.2583 33.9708C24.3049 34.0483 24.3516 34.1239 24.3992 34.2032C24.5196 34.4247 24.6268 34.6532 24.7203 34.8873C24.7576 34.9807 24.7893 35.074 24.8229 35.1673C24.8836 35.3391 24.9359 35.5127 24.9816 35.6881C25.0049 35.7815 25.0311 35.8645 25.0507 35.9551C25.1052 36.2073 25.1447 36.4626 25.1692 36.7195C25.1748 36.7876 25.1748 36.8567 25.1795 36.9248C25.1925 37.1395 25.1963 37.3551 25.1879 37.5716Z" fill="#0090EC"/>
<path d="M53.1999 19.6H50.2646C49.8732 19.604 49.5231 19.3574 49.3947 18.9877C49.1053 18.1208 48.7551 17.2752 48.3466 16.4575C48.1732 16.1043 48.2455 15.6798 48.5258 15.4037L50.6071 13.3196C51.6996 12.2263 51.6996 10.4546 50.6071 9.36133L46.6386 5.39933C45.5453 4.30687 43.7736 4.30687 42.6803 5.39933L40.5999 7.4788C40.3243 7.75903 39.9003 7.8316 39.5471 7.65893C38.7293 7.24838 37.8835 6.89628 37.0159 6.6052C36.6447 6.47815 36.3964 6.12768 36.3999 5.73533V2.8C36.3999 1.25358 35.1464 0 33.5999 0H27.9999C26.4535 0 25.1999 1.25358 25.1999 2.8V5.73533C25.2039 6.12675 24.9575 6.47687 24.5877 6.6052C23.7206 6.89617 22.875 7.24803 22.0574 7.658C21.7043 7.83195 21.2795 7.75973 21.0037 7.4788L18.9195 5.39747C17.825 4.30815 16.0558 4.30815 14.9613 5.39747L11.0002 9.35853C9.90716 10.4519 9.90716 12.2243 11.0002 13.3177L14.0606 16.3837C14.4308 16.7424 15.0217 16.733 15.3803 16.3627C15.7302 16.0015 15.731 15.428 15.3822 15.0659L12.3199 12.0008C11.9556 11.6363 11.9556 11.0455 12.3199 10.6811L16.281 6.72C16.6455 6.35565 17.2363 6.35565 17.6007 6.72L19.6858 8.80133C20.5294 9.64997 21.8221 9.86207 22.8927 9.32773C23.6321 8.95755 24.3965 8.63975 25.1803 8.37667C26.3118 7.99365 27.0715 6.92988 27.0666 5.73533V2.8C27.0666 2.28457 27.4845 1.86667 27.9999 1.86667H33.5999C34.1154 1.86667 34.5333 2.28457 34.5333 2.8V5.73533C34.5285 6.92965 35.2882 7.99307 36.4195 8.37573C37.2038 8.63893 37.9685 8.95697 38.7081 9.32773C39.779 9.85927 41.0699 9.64693 41.9141 8.8004L43.9991 6.72C44.3636 6.35565 44.9544 6.35565 45.3189 6.72L49.2799 10.682C49.6437 11.0463 49.6437 11.6364 49.2799 12.0008L47.1986 14.0859C46.3508 14.9299 46.1388 16.222 46.6722 17.2928C47.0424 18.0321 47.3602 18.7965 47.6233 19.5804C48.0061 20.7121 49.0699 21.4718 50.2646 21.4667H53.1999C53.7154 21.4667 54.1333 21.8846 54.1333 22.4V28C54.1333 28.5154 53.7154 28.9333 53.1999 28.9333H50.2646C49.0703 28.9285 48.0069 29.6883 47.6242 30.8196C47.3611 31.6038 47.043 32.3686 46.6722 33.1081C46.1397 34.1789 46.3522 35.4703 47.1995 36.3141L49.2809 38.3992C49.6452 38.7637 49.6452 39.3545 49.2809 39.7189L45.3179 43.68C44.9536 44.0438 44.3635 44.0438 43.9991 43.68L40.9322 40.6196C40.5736 40.2493 39.9827 40.24 39.6125 40.5986C39.2422 40.9572 39.2328 41.5481 39.5915 41.9183C39.5989 41.926 39.6066 41.9337 39.6143 41.9412L42.6803 45.0016C43.7736 46.0941 45.5453 46.0941 46.6386 45.0016L50.5997 41.0415C51.6927 39.9481 51.6927 38.1757 50.5997 37.0823L48.5211 35C48.2411 34.7242 48.1687 34.3004 48.341 33.9472C48.7516 33.1294 49.1037 32.2835 49.3947 31.416C49.5218 31.0448 49.8723 30.7965 50.2646 30.8H53.1999C54.7464 30.8 55.9999 29.5464 55.9999 28V22.4C55.9999 20.8536 54.7464 19.6 53.1999 19.6Z" fill="#0090EC"/>
<path d="M39.3792 16.6207C34.6381 11.8895 26.9619 11.8895 22.2208 16.6207C21.8628 16.9914 21.873 17.5823 22.2438 17.9404C22.6055 18.2897 23.1789 18.2897 23.5406 17.9404C27.523 13.9042 34.0233 13.8607 38.0595 17.8431C42.0957 21.8255 42.1392 28.3258 38.1568 32.362C38.1246 32.3947 38.0922 32.4271 38.0595 32.4593C37.6887 32.8175 37.6785 33.4083 38.0366 33.7791C38.3948 34.1498 38.9856 34.1601 39.3563 33.8019C39.364 33.7945 39.3718 33.7868 39.3792 33.7791C44.1104 29.038 44.1104 21.3618 39.3792 16.6207Z" fill="#0090EC"/>
</g>
<defs>
<clipPath id="clip0_603_5248">
<rect width="56" height="56" fill="white"/>
</clipPath>
</defs>
</svg>
