<svg width="56" height="56" viewBox="0 0 56 56" fill="none" xmlns="http://www.w3.org/2000/svg">
<g clip-path="url(#clip0_603_5377)">
<path d="M50.6871 7.82033H40.6624V4.52983C40.6624 4.07704 40.2954 3.70996 39.8425 3.70996C39.3896 3.70996 39.0226 4.07704 39.0226 4.52983V7.82033H35.6265C35.1736 7.82033 34.8067 8.18741 34.8067 8.6402C34.8067 9.09298 35.1736 9.46006 35.6265 9.46006H39.0226V12.9317H38.4073C37.5481 12.9317 36.849 13.6308 36.849 14.4899V24.1418C36.849 25.001 37.5481 25.7 38.4073 25.7H39.0226V32.2043C39.0226 32.6571 39.3896 33.0242 39.8425 33.0242C40.2954 33.0242 40.6624 32.6571 40.6624 32.2043V25.7H41.2777C42.1368 25.7 42.8359 25.0009 42.8359 24.1418V14.4899C42.8359 13.6307 42.1368 12.9317 41.2777 12.9317H40.6624V9.46006H50.6871C52.6571 9.46006 54.26 11.0628 54.26 13.0329V41.0937H1.73995V13.033C1.73995 11.063 3.34273 9.46017 5.31282 9.46017H19.6847V11.0602H19.0694C18.2102 11.0602 17.5112 11.7593 17.5112 12.6184V22.2703C17.5112 23.1295 18.2103 23.8285 19.0694 23.8285H19.6847V31.0731C19.6847 31.5259 20.0518 31.893 20.5046 31.893C20.9574 31.893 21.3245 31.5259 21.3245 31.0731V23.8285H21.9398C22.799 23.8285 23.498 23.1294 23.498 22.2703V12.6184C23.498 11.7592 22.7989 11.0602 21.9398 11.0602H21.3245V9.46006H24.7206C25.1734 9.46006 25.5404 9.09298 25.5404 8.6402C25.5404 8.18741 25.1734 7.82033 24.7206 7.82033H21.3245V7.41543C21.3245 6.96264 20.9574 6.59556 20.5046 6.59556C20.0518 6.59556 19.6847 6.96264 19.6847 7.41543V7.82033H5.31282C2.43859 7.82033 0.10022 10.1587 0.10022 13.0329V41.9135C0.10022 44.7878 2.43859 47.1261 5.31282 47.1261H17.7933V51.2948L15.1508 54.36H14.1019C13.6491 54.36 13.282 54.727 13.282 55.1798C13.282 55.6326 13.6491 55.9997 14.1019 55.9997H41.8224C42.2753 55.9997 42.6423 55.6326 42.6423 55.1798C42.6423 54.727 42.2753 54.36 41.8224 54.36H40.8491L38.2066 51.2948V47.1261H50.6871C53.5614 47.1261 55.8997 44.7878 55.8997 41.9135V13.033C55.8997 10.1588 53.5614 7.82033 50.6871 7.82033ZM41.1962 24.0605H38.4888V14.5715H41.1963V24.0605H41.1962ZM21.8583 22.1888H19.1508V12.7H21.8583V22.1888ZM50.6871 45.4864H34.094C33.6411 45.4864 33.2742 45.8535 33.2742 46.3063C33.2742 46.759 33.6411 47.1261 34.094 47.1261H36.5669V50.7795H34.5246C34.0717 50.7795 33.7048 51.1466 33.7048 51.5994C33.7048 52.0522 34.0717 52.4193 34.5246 52.4193H37.011L38.6841 54.36H17.3158L18.9888 52.4193H21.4752C21.928 52.4193 22.2951 52.0522 22.2951 51.5994C22.2951 51.1466 21.928 50.7795 21.4752 50.7795H19.433V47.1261H30.6C31.0529 47.1261 31.4199 46.759 31.4199 46.3063C31.4199 45.8535 31.0529 45.4864 30.6 45.4864H5.31282C3.62488 45.4864 2.2076 44.3095 1.83593 42.7334H54.1639C53.7924 44.3095 52.3751 45.4864 50.6871 45.4864Z" fill="#0090EC"/>
<path d="M8.66203 23.9358C8.20924 23.9358 7.84216 24.3029 7.84216 24.7557V26.735C7.84216 27.5942 8.54113 28.2931 9.40034 28.2931H10.0157V32.6593C10.0157 33.1121 10.3828 33.4792 10.8355 33.4792C11.2883 33.4792 11.6554 33.1121 11.6554 32.6593V28.2931H12.2708C13.13 28.2931 13.8289 27.5942 13.8289 26.735V17.0831C13.8289 16.2238 13.1299 15.5248 12.2708 15.5248H11.6554V14.2134C11.6554 13.7606 11.2883 13.3936 10.8355 13.3936C10.3828 13.3936 10.0157 13.7606 10.0157 14.2134V15.5248H9.40034C8.54113 15.5248 7.84216 16.2238 7.84216 17.0831V21.2618C7.84216 21.7145 8.20924 22.0816 8.66203 22.0816C9.11481 22.0816 9.48189 21.7145 9.48189 21.2618V17.1646H10.8346H10.8357C10.8357 17.1646 10.8363 17.1646 10.8368 17.1646H12.1894V26.6535H9.48189V24.7558C9.48189 24.3029 9.11481 23.9358 8.66203 23.9358Z" fill="#0090EC"/>
<path d="M28.7382 22.2064H29.3537V26.5725C29.3537 27.0253 29.7207 27.3924 30.1735 27.3924C30.6264 27.3924 30.9934 27.0253 30.9934 26.5725V22.2064H31.6087C32.4679 22.2064 33.1669 21.5074 33.1669 20.6482V14.2175C33.1669 13.7647 32.8 13.3976 32.3471 13.3976C31.8942 13.3976 31.5272 13.7647 31.5272 14.2175V20.5667H28.8198V5.72135H31.5272V10.7235C31.5272 11.1763 31.8942 11.5434 32.3471 11.5434C32.8 11.5434 33.1669 11.1763 33.1669 10.7235V5.6398C33.1669 4.78069 32.4679 4.08162 31.6087 4.08162H30.9934V0.819866C30.9934 0.367081 30.6264 0 30.1735 0C29.7207 0 29.3537 0.367081 29.3537 0.819866V4.08162H28.7382C27.879 4.08162 27.1801 4.78069 27.1801 5.6398V20.6482C27.1801 21.5075 27.879 22.2064 28.7382 22.2064Z" fill="#0090EC"/>
<path d="M44.5739 22.4775C44.722 22.7523 45.0044 22.9084 45.2962 22.9084C45.4275 22.9084 45.5609 22.8767 45.6846 22.81L49.4611 20.7738L49.1895 21.4868C49.0282 21.9099 49.2406 22.3836 49.6638 22.5448C49.7599 22.5813 49.8585 22.5987 49.9556 22.5987C50.2858 22.5987 50.5972 22.3976 50.7219 22.0705L51.6449 19.6474C51.8062 19.2243 51.5938 18.7506 51.1706 18.5894L48.5987 17.6096C48.1757 17.4484 47.7019 17.6607 47.5407 18.0839C47.3794 18.507 47.5918 18.9807 48.015 19.142L48.6113 19.3691L44.9064 21.3667C44.5078 21.5817 44.3589 22.0789 44.5739 22.4775Z" fill="#0090EC"/>
<path d="M4.94788 38.4964C5.08103 38.8075 5.38372 38.9939 5.70194 38.9939C5.80951 38.9939 5.91893 38.9725 6.0242 38.9275L16.6035 34.3998L17.565 36.9187C17.6491 37.1392 17.8241 37.3127 18.0453 37.3949C18.2663 37.477 18.5123 37.4601 18.72 37.348L36.1978 27.9245C36.5963 27.7096 36.7452 27.2123 36.5303 26.8137C36.3155 26.4153 35.8183 26.2663 35.4196 26.4812L18.7638 35.4614L17.8313 33.0179C17.7517 32.8094 17.5906 32.6424 17.3852 32.5554C17.1798 32.4683 16.9479 32.4688 16.7427 32.5565L5.37902 37.4199C4.96286 37.5982 4.76981 38.0801 4.94788 38.4964Z" fill="#0090EC"/>
</g>
<defs>
<clipPath id="clip0_603_5377">
<rect width="56" height="56" fill="white"/>
</clipPath>
</defs>
</svg>
