<svg width="1920" height="956" viewBox="0 0 1920 956" fill="none" xmlns="http://www.w3.org/2000/svg">
<path d="M848.071 630.565H810.839V636.301H848.071V630.565Z" fill="#00FFCC"/>
<path d="M470.585 208.073H447.624V219.557H470.585V208.073Z" fill="#00FFCC"/>
<path d="M77.8938 667.181H54.9329V678.665H77.8938V667.181Z" fill="#FF00FF"/>
<path d="M836.597 273.512H799.365V279.248H836.597V273.512Z" fill="#0098CC"/>
<path d="M688.696 174.267H651.463V180.003H688.696V174.267Z" fill="#FFA936"/>
<path d="M73.5429 159.055H36.3105V164.791H73.5429V159.055Z" fill="#0098CC"/>
<path d="M986.303 634.497H963.342V645.981H986.303V634.497Z" fill="#0098CC"/>
<path d="M268.621 623.014H245.66V634.498H268.621V623.014Z" fill="#00FFCC"/>
<path d="M458.99 774.527H421.758V780.263H458.99V774.527Z" fill="#0098CC"/>
<path d="M589.262 585.479H552.029V591.215H589.262V585.479Z" fill="#0098CC"/>
<path d="M1.05061 700.676C0.823515 701.01 0.441029 701.297 -0.0729331 701.56C-0.598847 701.823 -1.05306 702.002 -1.43555 702.122V701.13C-1.01721 701.01 -0.551075 700.771 -0.0371132 700.401C0.476849 700.03 0.907139 699.6 1.22986 699.11H2.22195V716.533H1.06258V700.676H1.05061Z" fill="#A4E3FF"/>
<path d="M8.49703 715.422C7.8994 714.526 7.58862 713.259 7.58862 711.622V704.01C7.58862 702.385 7.89943 701.13 8.52096 700.246C9.1425 699.361 10.1823 698.907 11.6286 698.907C13.0749 698.907 14.1386 699.349 14.7602 700.246C15.3817 701.13 15.6925 702.385 15.6925 704.01V711.622C15.6925 713.271 15.3937 714.538 14.7841 715.434C14.1865 716.318 13.1227 716.772 11.6166 716.772C10.1106 716.772 9.08276 716.318 8.47318 715.434L8.49703 715.422ZM13.8637 714.825C14.306 714.12 14.5212 713.116 14.5212 711.825V703.843C14.5212 702.552 14.306 701.56 13.8637 700.855C13.4215 700.15 12.6804 699.803 11.6406 699.803C10.6007 699.803 9.87162 700.162 9.42937 700.867C8.98712 701.572 8.76003 702.576 8.76003 703.843V711.825C8.76003 713.104 8.98712 714.096 9.42937 714.813C9.87162 715.53 10.6126 715.888 11.6406 715.888C12.6685 715.888 13.4334 715.53 13.8637 714.825Z" fill="#A4E3FF"/>
<path d="M21.8601 700.676C21.633 701.01 21.2505 701.297 20.7366 701.56C20.2106 701.823 19.7565 702.002 19.374 702.122V701.13C19.7924 701.01 20.2585 700.771 20.7725 700.401C21.2864 700.03 21.7167 699.6 22.0394 699.11H23.0315V716.533H21.8721V700.676H21.8601Z" fill="#A4E3FF"/>
<path d="M217.201 799.801C216.974 800.135 216.592 800.422 216.078 800.685C215.552 800.948 215.098 801.127 214.715 801.247V800.255C215.134 800.135 215.6 799.896 216.114 799.526C216.628 799.156 217.058 798.725 217.381 798.235H218.373V815.658H217.213V799.801H217.201Z" fill="#A4E3FF"/>
<path d="M224.648 814.547C224.05 813.651 223.74 812.384 223.74 810.747V803.135C223.74 801.51 224.05 800.255 224.672 799.371C225.293 798.486 226.333 798.032 227.779 798.032C229.226 798.032 230.29 798.474 230.911 799.371C231.533 800.255 231.843 801.51 231.843 803.135V810.747C231.843 812.396 231.545 813.663 230.935 814.559C230.337 815.443 229.274 815.897 227.768 815.897C226.261 815.897 225.234 815.443 224.624 814.559L224.648 814.547ZM230.015 813.95C230.457 813.245 230.672 812.241 230.672 810.95V802.968C230.672 801.677 230.457 800.685 230.015 799.98C229.572 799.275 228.831 798.928 227.791 798.928C226.752 798.928 226.022 799.287 225.58 799.992C225.138 800.697 224.911 801.701 224.911 802.968V810.95C224.911 812.229 225.138 813.221 225.58 813.938C226.022 814.655 226.764 815.013 227.791 815.013C228.819 815.013 229.584 814.655 230.015 813.95Z" fill="#A4E3FF"/>
<path d="M235.859 813.412H237.126V815.647H235.859V813.412Z" fill="#A4E3FF"/>
<path d="M242.888 799.801C242.66 800.135 242.278 800.422 241.764 800.685C241.238 800.948 240.784 801.127 240.401 801.247V800.255C240.82 800.135 241.286 799.896 241.8 799.526C242.314 799.156 242.744 798.725 243.067 798.235H244.059V815.658H242.899V799.801H242.888Z" fill="#A4E3FF"/>
<path d="M251.493 799.801C251.266 800.135 250.884 800.422 250.37 800.685C249.844 800.948 249.39 801.127 249.007 801.247V800.255C249.426 800.135 249.892 799.896 250.406 799.526C250.92 799.156 251.35 798.725 251.673 798.235H252.665V815.658H251.505V799.801H251.493Z" fill="#A4E3FF"/>
<path d="M258.94 814.547C258.342 813.651 258.031 812.384 258.031 810.747V803.135C258.031 801.51 258.342 800.255 258.964 799.371C259.585 798.486 260.625 798.032 262.071 798.032C263.518 798.032 264.582 798.474 265.203 799.371C265.825 800.255 266.135 801.51 266.135 803.135V810.747C266.135 812.396 265.837 813.663 265.227 814.559C264.629 815.443 263.566 815.897 262.06 815.897C260.553 815.897 259.526 815.443 258.916 814.559L258.94 814.547ZM264.307 813.95C264.749 813.245 264.964 812.241 264.964 810.95V802.968C264.964 801.677 264.749 800.685 264.307 799.98C263.864 799.275 263.123 798.928 262.083 798.928C261.044 798.928 260.314 799.287 259.872 799.992C259.43 800.697 259.203 801.701 259.203 802.968V810.95C259.203 812.229 259.43 813.221 259.872 813.938C260.314 814.655 261.056 815.013 262.083 815.013C263.111 815.013 263.876 814.655 264.307 813.95Z" fill="#A4E3FF"/>
<path d="M271.143 814.547C270.546 813.651 270.235 812.384 270.235 810.747V803.135C270.235 801.51 270.546 800.255 271.167 799.371C271.789 798.486 272.829 798.032 274.275 798.032C275.721 798.032 276.785 798.474 277.407 799.371C278.028 800.255 278.339 801.51 278.339 803.135V810.747C278.339 812.396 278.04 813.663 277.431 814.559C276.833 815.443 275.769 815.897 274.263 815.897C272.757 815.897 271.729 815.443 271.12 814.559L271.143 814.547ZM276.51 813.95C276.952 813.245 277.168 812.241 277.168 810.95V802.968C277.168 801.677 276.952 800.685 276.51 799.98C276.068 799.275 275.327 798.928 274.287 798.928C273.247 798.928 272.518 799.287 272.076 799.992C271.634 800.697 271.406 801.701 271.406 802.968V810.95C271.406 812.229 271.634 813.221 272.076 813.938C272.518 814.655 273.259 815.013 274.287 815.013C275.315 815.013 276.08 814.655 276.51 813.95Z" fill="#A4E3FF"/>
<path d="M283.335 814.547C282.738 813.651 282.427 812.384 282.427 810.747V803.135C282.427 801.51 282.738 800.255 283.359 799.371C283.981 798.486 285.02 798.032 286.467 798.032C287.913 798.032 288.977 798.474 289.598 799.371C290.22 800.255 290.531 801.51 290.531 803.135V810.747C290.531 812.396 290.232 813.663 289.622 814.559C289.025 815.443 287.961 815.897 286.455 815.897C284.949 815.897 283.921 815.443 283.311 814.559L283.335 814.547ZM288.702 813.95C289.144 813.245 289.359 812.241 289.359 810.95V802.968C289.359 801.677 289.144 800.685 288.702 799.98C288.26 799.275 287.519 798.928 286.479 798.928C285.439 798.928 284.71 799.287 284.268 799.992C283.825 800.697 283.598 801.701 283.598 802.968V810.95C283.598 812.229 283.825 813.221 284.268 813.938C284.71 814.655 285.451 815.013 286.479 815.013C287.507 815.013 288.272 814.655 288.702 813.95Z" fill="#A4E3FF"/>
<path d="M296.698 799.801C296.471 800.135 296.089 800.422 295.575 800.685C295.049 800.948 294.595 801.127 294.212 801.247V800.255C294.63 800.135 295.097 799.896 295.611 799.526C296.125 799.156 296.555 798.725 296.878 798.235H297.87V815.658H296.71V799.801H296.698Z" fill="#A4E3FF"/>
<path d="M894.125 179.166H895.476L899.157 196.589H897.974L897.065 191.773H892.547L891.627 196.589H890.467L894.125 179.166ZM896.922 190.913L894.818 180.588L892.726 190.913H896.922Z" fill="#A4E3FF"/>
<path d="M902.336 194.354H903.603V196.589H902.336V194.354Z" fill="#A4E3FF"/>
<path d="M909.376 180.731C909.149 181.066 908.767 181.353 908.253 181.616C907.727 181.879 907.273 182.058 906.89 182.177V181.186C907.309 181.066 907.775 180.827 908.289 180.457C908.803 180.086 909.233 179.656 909.556 179.166H910.548V196.589H909.388V180.731H909.376Z" fill="#A4E3FF"/>
<path d="M917.982 180.731C917.755 181.066 917.373 181.353 916.859 181.616C916.333 181.879 915.879 182.058 915.496 182.177V181.186C915.914 181.066 916.381 180.827 916.895 180.457C917.409 180.086 917.839 179.656 918.161 179.166H919.154V196.589H917.994V180.731H917.982Z" fill="#A4E3FF"/>
<path d="M926.588 180.731C926.361 181.066 925.979 181.353 925.465 181.616C924.939 181.879 924.484 182.058 924.102 182.177V181.186C924.52 181.066 924.986 180.827 925.5 180.457C926.014 180.086 926.445 179.656 926.767 179.166H927.759V196.589H926.6V180.731H926.588Z" fill="#A4E3FF"/>
<path d="M935.194 180.731C934.967 181.066 934.584 181.353 934.07 181.616C933.545 181.879 933.09 182.058 932.708 182.177V181.186C933.126 181.066 933.592 180.827 934.106 180.457C934.62 180.086 935.051 179.656 935.373 179.166H936.365V196.589H935.206V180.731H935.194Z" fill="#A4E3FF"/>
<path d="M943.8 180.731C943.573 181.066 943.19 181.353 942.676 181.616C942.15 181.879 941.696 182.058 941.314 182.177V181.186C941.732 181.066 942.198 180.827 942.712 180.457C943.226 180.086 943.656 179.656 943.979 179.166H944.971V196.589H943.812V180.731H943.8Z" fill="#A4E3FF"/>
<path d="M952.406 180.731C952.179 181.066 951.796 181.353 951.282 181.616C950.756 181.879 950.302 182.058 949.92 182.177V181.186C950.338 181.066 950.804 180.827 951.318 180.457C951.832 180.086 952.262 179.656 952.585 179.166H953.577V196.589H952.418V180.731H952.406Z" fill="#A4E3FF"/>
<path d="M959.84 195.478C959.243 194.582 958.932 193.315 958.932 191.678V184.066C958.932 182.44 959.243 181.186 959.864 180.301C960.486 179.417 961.525 178.963 962.972 178.963C964.418 178.963 965.482 179.405 966.103 180.301C966.725 181.186 967.036 182.44 967.036 184.066V191.678C967.036 193.327 966.737 194.593 966.127 195.49C965.53 196.374 964.466 196.828 962.96 196.828C961.454 196.828 960.426 196.374 959.816 195.49L959.84 195.478ZM965.207 194.88C965.649 194.175 965.864 193.171 965.864 191.881V183.898C965.864 182.608 965.649 181.616 965.207 180.911C964.765 180.206 964.024 179.859 962.984 179.859C961.944 179.859 961.215 180.218 960.773 180.923C960.33 181.628 960.103 182.632 960.103 183.898V191.881C960.103 193.16 960.33 194.151 960.773 194.868C961.215 195.585 961.956 195.944 962.984 195.944C964.012 195.944 964.777 195.585 965.207 194.88Z" fill="#A4E3FF"/>
<path d="M973.203 180.731C972.976 181.066 972.594 181.353 972.08 181.616C971.554 181.879 971.1 182.058 970.717 182.177V181.186C971.135 181.066 971.602 180.827 972.116 180.457C972.63 180.086 973.06 179.656 973.383 179.166H974.375V196.589H973.215V180.731H973.203Z" fill="#A4E3FF"/>
<path d="M867.817 759.972H869.168L872.849 777.395H871.666L870.758 772.579H866.24L865.319 777.395H864.16L867.817 759.972ZM870.614 771.718L868.51 761.394L866.419 771.718H870.614Z" fill="#A4E3FF"/>
<path d="M878.957 759.972H880.308L883.989 777.395H882.806L881.897 772.579H877.379L876.459 777.395H875.3L878.957 759.972ZM881.754 771.718L879.65 761.394L877.559 771.718H881.754Z" fill="#A4E3FF"/>
<path d="M888.173 776.283C887.575 775.387 887.264 774.121 887.264 772.483V764.871C887.264 763.246 887.575 761.991 888.196 761.107C888.818 760.223 889.858 759.769 891.304 759.769C892.75 759.769 893.814 760.211 894.436 761.107C895.057 761.991 895.368 763.246 895.368 764.871V772.483C895.368 774.132 895.069 775.399 894.46 776.295C893.862 777.18 892.798 777.634 891.292 777.634C889.786 777.634 888.758 777.18 888.149 776.295L888.173 776.283ZM893.539 775.686C893.982 774.981 894.197 773.977 894.197 772.687V764.704C894.197 763.413 893.982 762.421 893.539 761.716C893.097 761.011 892.356 760.665 891.316 760.665C890.276 760.665 889.547 761.023 889.105 761.728C888.663 762.433 888.435 763.437 888.435 764.704V772.687C888.435 773.965 888.663 774.957 889.105 775.674C889.547 776.391 890.288 776.75 891.316 776.75C892.344 776.75 893.109 776.391 893.539 775.686Z" fill="#A4E3FF"/>
<path d="M899.372 775.16H900.639V777.395H899.372V775.16Z" fill="#A4E3FF"/>
<path d="M906.412 761.537C906.185 761.872 905.803 762.159 905.289 762.421C904.763 762.684 904.309 762.864 903.926 762.983V761.991C904.344 761.872 904.811 761.633 905.325 761.262C905.838 760.892 906.269 760.462 906.592 759.972H907.584V777.395H906.424V761.537H906.412Z" fill="#A4E3FF"/>
<path d="M915.018 761.537C914.791 761.872 914.409 762.159 913.895 762.421C913.369 762.684 912.914 762.864 912.532 762.983V761.991C912.95 761.872 913.416 761.633 913.93 761.262C914.444 760.892 914.875 760.462 915.197 759.972H916.189V777.395H915.03V761.537H915.018Z" fill="#A4E3FF"/>
<path d="M922.464 776.283C921.867 775.387 921.556 774.121 921.556 772.483V764.871C921.556 763.246 921.867 761.991 922.488 761.107C923.11 760.223 924.15 759.769 925.596 759.769C927.042 759.769 928.106 760.211 928.728 761.107C929.349 761.991 929.66 763.246 929.66 764.871V772.483C929.66 774.132 929.361 775.399 928.752 776.295C928.154 777.18 927.09 777.634 925.584 777.634C924.078 777.634 923.05 777.18 922.441 776.295L922.464 776.283ZM927.831 775.686C928.273 774.981 928.489 773.977 928.489 772.687V764.704C928.489 763.413 928.273 762.421 927.831 761.716C927.389 761.011 926.648 760.665 925.608 760.665C924.568 760.665 923.839 761.023 923.397 761.728C922.955 762.433 922.728 763.437 922.728 764.704V772.687C922.728 773.965 922.955 774.957 923.397 775.674C923.839 776.391 924.58 776.75 925.608 776.75C926.636 776.75 927.401 776.391 927.831 775.686Z" fill="#A4E3FF"/>
<path d="M935.816 761.537C935.588 761.872 935.206 762.159 934.692 762.421C934.166 762.684 933.712 762.864 933.329 762.983V761.991C933.748 761.872 934.214 761.633 934.728 761.262C935.242 760.892 935.672 760.462 935.995 759.972H936.987V777.395H935.828V761.537H935.816Z" fill="#A4E3FF"/>
<path d="M944.421 761.537C944.194 761.872 943.812 762.159 943.298 762.421C942.772 762.684 942.318 762.864 941.935 762.983V761.991C942.354 761.872 942.82 761.633 943.334 761.262C943.848 760.892 944.278 760.462 944.601 759.972H945.593V777.395H944.433V761.537H944.421Z" fill="#A4E3FF"/>
<path d="M953.027 761.537C952.8 761.872 952.418 762.159 951.904 762.421C951.378 762.684 950.924 762.864 950.541 762.983V761.991C950.959 761.872 951.426 761.633 951.94 761.262C952.454 760.892 952.884 760.462 953.207 759.972H954.199V777.395H953.039V761.537H953.027Z" fill="#A4E3FF"/>
<path d="M961.633 761.537C961.406 761.872 961.024 762.159 960.51 762.421C959.984 762.684 959.53 762.864 959.147 762.983V761.991C959.565 761.872 960.031 761.633 960.545 761.262C961.059 760.892 961.49 760.462 961.813 759.972H962.805V777.395H961.645V761.537H961.633Z" fill="#A4E3FF"/>
<path d="M503.299 502.091C502.701 501.195 502.39 499.928 502.39 498.291V490.679C502.39 489.054 502.701 487.799 503.323 486.915C503.944 486.03 504.984 485.576 506.43 485.576C507.877 485.576 508.94 486.018 509.562 486.915C510.183 487.799 510.494 489.054 510.494 490.679V498.291C510.494 499.94 510.195 501.207 509.586 502.103C508.988 502.987 507.924 503.441 506.418 503.441C504.912 503.441 503.884 502.987 503.275 502.103L503.299 502.091ZM508.665 501.494C509.108 500.789 509.323 499.785 509.323 498.494V490.512C509.323 489.221 509.108 488.229 508.665 487.524C508.223 486.819 507.482 486.472 506.442 486.472C505.402 486.472 504.673 486.831 504.231 487.536C503.789 488.241 503.562 489.245 503.562 490.512V498.494C503.562 499.773 503.789 500.765 504.231 501.482C504.673 502.199 505.414 502.557 506.442 502.557C507.47 502.557 508.235 502.199 508.665 501.494Z" fill="#A4E3FF"/>
<path d="M515.502 502.091C514.905 501.195 514.594 499.928 514.594 498.291V490.679C514.594 489.054 514.905 487.799 515.526 486.915C516.148 486.03 517.188 485.576 518.634 485.576C520.08 485.576 521.144 486.018 521.766 486.915C522.387 487.799 522.698 489.054 522.698 490.679V498.291C522.698 499.94 522.399 501.207 521.789 502.103C521.192 502.987 520.128 503.441 518.622 503.441C517.116 503.441 516.088 502.987 515.479 502.103L515.502 502.091ZM520.869 501.494C521.311 500.789 521.527 499.785 521.527 498.494V490.512C521.527 489.221 521.311 488.229 520.869 487.524C520.427 486.819 519.686 486.472 518.646 486.472C517.606 486.472 516.877 486.831 516.435 487.536C515.992 488.241 515.765 489.245 515.765 490.512V498.494C515.765 499.773 515.992 500.765 516.435 501.482C516.877 502.199 517.618 502.557 518.646 502.557C519.674 502.557 520.439 502.199 520.869 501.494Z" fill="#A4E3FF"/>
<path d="M526.714 500.968H527.981V503.202H526.714V500.968Z" fill="#A4E3FF"/>
<path d="M533.742 487.345C533.515 487.679 533.132 487.966 532.618 488.229C532.093 488.492 531.638 488.671 531.256 488.791V487.799C531.674 487.679 532.14 487.44 532.654 487.07C533.168 486.699 533.599 486.269 533.921 485.779H534.913V503.202H533.754V487.345H533.742Z" fill="#A4E3FF"/>
<path d="M541.188 502.091C540.591 501.195 540.28 499.928 540.28 498.291V490.679C540.28 489.054 540.591 487.799 541.212 486.915C541.834 486.03 542.874 485.576 544.32 485.576C545.766 485.576 546.83 486.018 547.452 486.915C548.073 487.799 548.384 489.054 548.384 490.679V498.291C548.384 499.94 548.085 501.207 547.476 502.103C546.878 502.987 545.814 503.441 544.308 503.441C542.802 503.441 541.774 502.987 541.165 502.103L541.188 502.091ZM546.555 501.494C546.998 500.789 547.213 499.785 547.213 498.494V490.512C547.213 489.221 546.998 488.229 546.555 487.524C546.113 486.819 545.372 486.472 544.332 486.472C543.292 486.472 542.563 486.831 542.121 487.536C541.679 488.241 541.451 489.245 541.451 490.512V498.494C541.451 499.773 541.679 500.765 542.121 501.482C542.563 502.199 543.304 502.557 544.332 502.557C545.36 502.557 546.125 502.199 546.555 501.494Z" fill="#A4E3FF"/>
<path d="M553.392 502.091C552.794 501.195 552.484 499.928 552.484 498.291V490.679C552.484 489.054 552.794 487.799 553.416 486.915C554.038 486.03 555.077 485.576 556.524 485.576C557.97 485.576 559.034 486.018 559.655 486.915C560.277 487.799 560.588 489.054 560.588 490.679V498.291C560.588 499.94 560.289 501.207 559.679 502.103C559.082 502.987 558.018 503.441 556.512 503.441C555.006 503.441 553.978 502.987 553.368 502.103L553.392 502.091ZM558.759 501.494C559.201 500.789 559.416 499.785 559.416 498.494V490.512C559.416 489.221 559.201 488.229 558.759 487.524C558.317 486.819 557.575 486.472 556.536 486.472C555.496 486.472 554.767 486.831 554.324 487.536C553.882 488.241 553.655 489.245 553.655 490.512V498.494C553.655 499.773 553.882 500.765 554.324 501.482C554.767 502.199 555.508 502.557 556.536 502.557C557.564 502.557 558.328 502.199 558.759 501.494Z" fill="#A4E3FF"/>
<path d="M647.459 299.849C646.862 298.953 646.551 297.686 646.551 296.049V288.437C646.551 286.811 646.862 285.557 647.483 284.672C648.105 283.788 649.145 283.334 650.591 283.334C652.037 283.334 653.101 283.776 653.722 284.672C654.344 285.557 654.655 286.811 654.655 288.437V296.049C654.655 297.698 654.356 298.965 653.746 299.861C653.149 300.745 652.085 301.199 650.579 301.199C649.073 301.199 648.045 300.745 647.435 299.861L647.459 299.849ZM652.826 299.251C653.268 298.546 653.483 297.543 653.483 296.252V288.269C653.483 286.979 653.268 285.987 652.826 285.282C652.384 284.577 651.643 284.23 650.603 284.23C649.563 284.23 648.834 284.589 648.392 285.294C647.949 285.999 647.722 287.003 647.722 288.269V296.252C647.722 297.531 647.949 298.522 648.392 299.239C648.834 299.956 649.575 300.315 650.603 300.315C651.631 300.315 652.396 299.956 652.826 299.251Z" fill="#A4E3FF"/>
<path d="M659.651 299.849C659.053 298.953 658.742 297.686 658.742 296.049V288.437C658.742 286.811 659.053 285.557 659.675 284.672C660.296 283.788 661.336 283.334 662.782 283.334C664.229 283.334 665.292 283.776 665.914 284.672C666.536 285.557 666.846 286.811 666.846 288.437V296.049C666.846 297.698 666.548 298.965 665.938 299.861C665.34 300.745 664.276 301.199 662.77 301.199C661.264 301.199 660.237 300.745 659.627 299.861L659.651 299.849ZM665.018 299.251C665.46 298.546 665.675 297.543 665.675 296.252V288.269C665.675 286.979 665.46 285.987 665.018 285.282C664.575 284.577 663.834 284.23 662.794 284.23C661.755 284.23 661.025 284.589 660.583 285.294C660.141 285.999 659.914 287.003 659.914 288.269V296.252C659.914 297.531 660.141 298.522 660.583 299.239C661.025 299.956 661.766 300.315 662.794 300.315C663.822 300.315 664.587 299.956 665.018 299.251Z" fill="#A4E3FF"/>
<path d="M670.862 298.714H672.129V300.949H670.862V298.714Z" fill="#A4E3FF"/>
<path d="M677.902 285.103C677.675 285.437 677.293 285.724 676.779 285.987C676.253 286.25 675.799 286.429 675.416 286.548V285.557C675.835 285.437 676.301 285.198 676.815 284.828C677.329 284.457 677.759 284.027 678.082 283.537H679.074V300.96H677.914V285.103H677.902Z" fill="#A4E3FF"/>
<path d="M340.971 305.071C340.743 305.406 340.361 305.693 339.847 305.956C339.321 306.219 338.867 306.398 338.484 306.517V305.525C338.903 305.406 339.369 305.167 339.883 304.796C340.397 304.426 340.827 303.996 341.15 303.506H342.142V320.929H340.982V305.071H340.971Z" fill="#A4E3FF"/>
<path d="M347.425 318.683H348.692V320.917H347.425V318.683Z" fill="#A4E3FF"/>
<path d="M355.242 303.506H356.593L360.274 320.929H359.091L358.182 316.113H353.664L352.744 320.929H351.584L355.242 303.506ZM358.039 315.253L355.935 304.928L353.843 315.253H358.039Z" fill="#A4E3FF"/>
<path d="M366.382 303.506H367.732L371.414 320.929H370.23L369.322 316.113H364.804L363.884 320.929H362.724L366.382 303.506ZM369.179 315.253L367.075 304.928L364.983 315.253H369.179Z" fill="#A4E3FF"/>
<path d="M-631.684 509.01C-576.642 509.01 -576.642 521.725 -521.589 521.725C-466.535 521.725 -466.547 522.478 -411.505 522.478C-356.464 522.478 -356.452 499.892 -301.41 499.892C-246.368 499.892 -246.368 377.739 -191.326 377.739C-136.285 377.739 -136.273 595.206 -81.231 595.206C-26.1893 595.206 -26.1893 488.731 28.8524 488.731C83.8941 488.731 83.9061 467.603 138.948 467.603C193.99 467.603 193.989 476.638 249.031 476.638C304.073 476.638 304.085 353.373 359.127 353.373C414.168 353.373 414.156 588.526 469.198 588.526C524.24 588.526 524.228 314.596 579.258 314.596C634.287 314.596 634.299 464.485 689.341 464.485C744.383 464.485 744.383 422.899 799.425 422.899C854.466 422.899 854.454 475.658 909.484 475.658C964.514 475.658 964.526 521.928 1019.57 521.928C1074.61 521.928 1074.61 494.706 1129.64 494.694C1171.8 494.694 1192.09 538.049 1230.46 549.652C1294.99 569.167 1373.39 565.426 1439.81 558.34" stroke="url(#paint0_linear_603_3897)" stroke-width="3" stroke-miterlimit="10"/>
<path d="M1373.54 272.675C1319.15 267.369 1260.48 283.597 1211.74 258.861C1184.57 245.07 1157.68 219.916 1127.45 238.307C1107.4 250.508 1096.35 275.698 1086.63 295.918C1070.03 330.465 1051.76 397.003 1003.59 397.003C928.644 397.003 928.644 324.646 853.713 324.646C778.782 324.646 778.782 701.106 703.852 701.106C628.921 701.106 628.921 708.491 554.002 708.491C479.071 708.491 479.071 218.267 404.152 218.267C329.221 218.267 329.221 265.469 254.278 265.469C179.335 265.469 179.347 422.886 104.417 422.886C46.052 422.886 29.1749 534.631 10.6484 573.922C-2.83412 602.507 -24.4444 638.584 -58.3658 644.475C-111.041 653.617 -134.97 601.897 -172.585 580.853C-193.645 569.071 -219.582 579.467 -242.077 588.239C-374.237 639.743 -521.398 628.642 -662.749 616.763" stroke="#00FFCC" stroke-width="5" stroke-miterlimit="10"/>
<path d="M1773.58 208.073H1750.62V219.557H1773.58V208.073Z" fill="#00FFCC"/>
<path d="M1055.9 196.59H1032.94V208.074H1055.9V196.59Z" fill="#FF00FF"/>
<path d="M1380.89 667.181H1357.93V678.665H1380.89V667.181Z" fill="#FF00FF"/>
<path d="M1246.27 348.104H1209.04V353.84H1246.27V348.104Z" fill="#0098CC"/>
<path d="M1376.54 159.055H1339.31V164.791H1376.54V159.055Z" fill="#0098CC"/>
<path d="M1571.62 623.014H1548.66V634.498H1571.62V623.014Z" fill="#00FFCC"/>
<path d="M1761.99 774.527H1724.76V780.263H1761.99V774.527Z" fill="#0098CC"/>
<path d="M1892.26 585.479H1855.03V591.215H1892.26V585.479Z" fill="#0098CC"/>
<path d="M1265 715.422C1264.4 714.526 1264.09 713.259 1264.09 711.622V704.01C1264.09 702.385 1264.4 701.13 1265.03 700.246C1265.65 699.361 1266.69 698.907 1268.13 698.907C1269.58 698.907 1270.64 699.349 1271.26 700.246C1271.89 701.142 1272.2 702.385 1272.2 704.01V711.622C1272.2 713.271 1271.9 714.538 1271.29 715.434C1270.69 716.318 1269.63 716.772 1268.12 716.772C1266.62 716.772 1265.59 716.318 1264.98 715.434L1265 715.422ZM1270.37 714.825C1270.81 714.12 1271.03 713.116 1271.03 711.825V703.843C1271.03 702.552 1270.81 701.56 1270.37 700.855C1269.93 700.15 1269.18 699.803 1268.15 699.803C1267.11 699.803 1266.38 700.162 1265.93 700.867C1265.49 701.572 1265.26 702.576 1265.26 703.843V711.825C1265.26 713.104 1265.49 714.096 1265.93 714.813C1266.38 715.53 1267.12 715.888 1268.15 715.888C1269.17 715.888 1269.94 715.53 1270.37 714.825Z" fill="#A4E3FF"/>
<path d="M1277.21 715.422C1276.61 714.526 1276.3 713.259 1276.3 711.622V704.01C1276.3 702.385 1276.61 701.13 1277.23 700.246C1277.85 699.361 1278.89 698.907 1280.34 698.907C1281.78 698.907 1282.85 699.349 1283.47 700.246C1284.09 701.13 1284.4 702.385 1284.4 704.01V711.622C1284.4 713.271 1284.1 714.538 1283.49 715.434C1282.89 716.318 1281.83 716.772 1280.32 716.772C1278.82 716.772 1277.79 716.318 1277.18 715.434L1277.21 715.422ZM1282.57 714.825C1283.01 714.12 1283.23 713.116 1283.23 711.825V703.843C1283.23 702.552 1283.01 701.56 1282.57 700.855C1282.13 700.15 1281.39 699.803 1280.35 699.803C1279.31 699.803 1278.58 700.162 1278.14 700.867C1277.7 701.572 1277.47 702.576 1277.47 703.843V711.825C1277.47 713.104 1277.7 714.096 1278.14 714.813C1278.58 715.53 1279.32 715.888 1280.35 715.888C1281.38 715.888 1282.14 715.53 1282.57 714.825Z" fill="#A4E3FF"/>
<path d="M1288.42 714.287H1289.68V716.522H1288.42V714.287Z" fill="#A4E3FF"/>
<path d="M1295.44 700.676C1295.22 701.01 1294.84 701.297 1294.32 701.56C1293.8 701.823 1293.34 702.002 1292.96 702.122V701.13C1293.38 701.01 1293.84 700.771 1294.36 700.401C1294.87 700.03 1295.3 699.6 1295.62 699.11H1296.62V716.533H1295.46V700.676H1295.44Z" fill="#A4E3FF"/>
<path d="M1304.05 700.676C1303.82 701.01 1303.44 701.297 1302.93 701.56C1302.4 701.823 1301.95 702.002 1301.56 702.122V701.13C1301.98 701.01 1302.45 700.771 1302.96 700.401C1303.48 700.03 1303.91 699.6 1304.23 699.11H1305.22V716.533H1304.06V700.676H1304.05Z" fill="#A4E3FF"/>
<path d="M1311.5 715.422C1310.9 714.526 1310.59 713.259 1310.59 711.622V704.01C1310.59 702.385 1310.9 701.13 1311.52 700.246C1312.14 699.361 1313.18 698.907 1314.63 698.907C1316.07 698.907 1317.14 699.349 1317.76 700.246C1318.38 701.13 1318.69 702.385 1318.69 704.01V711.622C1318.69 713.271 1318.39 714.538 1317.78 715.434C1317.19 716.318 1316.12 716.772 1314.62 716.772C1313.11 716.772 1312.08 716.318 1311.47 715.434L1311.5 715.422ZM1316.86 714.825C1317.31 714.12 1317.52 713.116 1317.52 711.825V703.843C1317.52 702.552 1317.31 701.56 1316.86 700.855C1316.42 700.15 1315.68 699.803 1314.64 699.803C1313.6 699.803 1312.87 700.162 1312.43 700.867C1311.99 701.572 1311.76 702.576 1311.76 703.843V711.825C1311.76 713.104 1311.99 714.096 1312.43 714.813C1312.87 715.53 1313.61 715.888 1314.64 715.888C1315.67 715.888 1316.43 715.53 1316.86 714.825Z" fill="#A4E3FF"/>
<path d="M1324.86 700.676C1324.63 701.01 1324.25 701.297 1323.74 701.56C1323.21 701.823 1322.76 702.002 1322.37 702.122V701.13C1322.79 701.01 1323.26 700.771 1323.77 700.401C1324.29 700.03 1324.72 699.6 1325.04 699.11H1326.03V716.533H1324.87V700.676H1324.86Z" fill="#A4E3FF"/>
<path d="M1520.2 799.801C1519.97 800.135 1519.59 800.422 1519.08 800.685C1518.55 800.948 1518.1 801.127 1517.72 801.247V800.255C1518.13 800.135 1518.6 799.896 1519.11 799.526C1519.63 799.156 1520.06 798.725 1520.38 798.235H1521.37V815.658H1520.21V799.801H1520.2Z" fill="#A4E3FF"/>
<path d="M1527.65 814.547C1527.05 813.651 1526.74 812.384 1526.74 810.747V803.135C1526.74 801.51 1527.05 800.255 1527.67 799.371C1528.29 798.486 1529.33 798.032 1530.78 798.032C1532.23 798.032 1533.29 798.474 1533.91 799.371C1534.53 800.255 1534.84 801.51 1534.84 803.135V810.747C1534.84 812.396 1534.54 813.663 1533.93 814.559C1533.34 815.443 1532.27 815.897 1530.77 815.897C1529.26 815.897 1528.23 815.443 1527.62 814.559L1527.65 814.547ZM1533.01 813.95C1533.46 813.245 1533.67 812.241 1533.67 810.95V802.968C1533.67 801.677 1533.46 800.685 1533.01 799.98C1532.57 799.275 1531.83 798.928 1530.79 798.928C1529.75 798.928 1529.02 799.287 1528.58 799.992C1528.14 800.697 1527.91 801.701 1527.91 802.968V810.95C1527.91 812.229 1528.14 813.221 1528.58 813.938C1529.02 814.655 1529.76 815.013 1530.79 815.013C1531.82 815.013 1532.58 814.655 1533.01 813.95Z" fill="#A4E3FF"/>
<path d="M1538.86 813.412H1540.13V815.647H1538.86V813.412Z" fill="#A4E3FF"/>
<path d="M1545.89 799.801C1545.66 800.135 1545.28 800.422 1544.76 800.685C1544.24 800.948 1543.78 801.127 1543.4 801.247V800.255C1543.82 800.135 1544.29 799.896 1544.8 799.526C1545.31 799.156 1545.74 798.725 1546.07 798.235H1547.06V815.658H1545.9V799.801H1545.89Z" fill="#A4E3FF"/>
<path d="M1554.49 799.801C1554.27 800.135 1553.88 800.422 1553.37 800.685C1552.84 800.948 1552.39 801.127 1552.01 801.247V800.255C1552.43 800.135 1552.89 799.896 1553.41 799.526C1553.92 799.156 1554.35 798.725 1554.67 798.235H1555.66V815.658H1554.51V799.801H1554.49Z" fill="#A4E3FF"/>
<path d="M1561.94 814.547C1561.34 813.651 1561.03 812.384 1561.03 810.747V803.135C1561.03 801.51 1561.34 800.255 1561.96 799.371C1562.59 798.486 1563.63 798.032 1565.07 798.032C1566.52 798.032 1567.58 798.474 1568.2 799.371C1568.82 800.255 1569.14 801.51 1569.14 803.135V810.747C1569.14 812.396 1568.84 813.663 1568.23 814.559C1567.63 815.443 1566.57 815.897 1565.06 815.897C1563.55 815.897 1562.53 815.443 1561.92 814.559L1561.94 814.547ZM1567.31 813.95C1567.75 813.245 1567.96 812.241 1567.96 810.95V802.968C1567.96 801.677 1567.75 800.685 1567.31 799.98C1566.86 799.275 1566.12 798.928 1565.08 798.928C1564.04 798.928 1563.31 799.287 1562.87 799.992C1562.43 800.697 1562.2 801.701 1562.2 802.968V810.95C1562.2 812.229 1562.43 813.221 1562.87 813.938C1563.31 814.655 1564.06 815.013 1565.08 815.013C1566.11 815.013 1566.88 814.655 1567.31 813.95Z" fill="#A4E3FF"/>
<path d="M1574.14 814.547C1573.55 813.651 1573.24 812.384 1573.24 810.747V803.135C1573.24 801.51 1573.55 800.255 1574.17 799.371C1574.79 798.486 1575.83 798.032 1577.28 798.032C1578.72 798.032 1579.79 798.474 1580.41 799.371C1581.03 800.255 1581.34 801.51 1581.34 803.135V810.747C1581.34 812.396 1581.04 813.663 1580.43 814.559C1579.83 815.443 1578.77 815.897 1577.26 815.897C1575.76 815.897 1574.73 815.443 1574.12 814.559L1574.14 814.547ZM1579.51 813.95C1579.95 813.245 1580.17 812.241 1580.17 810.95V802.968C1580.17 801.677 1579.95 800.685 1579.51 799.98C1579.07 799.275 1578.33 798.928 1577.29 798.928C1576.25 798.928 1575.52 799.287 1575.08 799.992C1574.63 800.697 1574.41 801.701 1574.41 802.968V810.95C1574.41 812.229 1574.63 813.221 1575.08 813.938C1575.52 814.655 1576.26 815.013 1577.29 815.013C1578.31 815.013 1579.08 814.655 1579.51 813.95Z" fill="#A4E3FF"/>
<path d="M1586.34 814.547C1585.74 813.651 1585.43 812.384 1585.43 810.747V803.135C1585.43 801.51 1585.74 800.255 1586.36 799.371C1586.98 798.486 1588.02 798.032 1589.47 798.032C1590.91 798.032 1591.98 798.474 1592.6 799.371C1593.22 800.255 1593.53 801.51 1593.53 803.135V810.747C1593.53 812.396 1593.23 813.663 1592.62 814.559C1592.02 815.443 1590.96 815.897 1589.45 815.897C1587.95 815.897 1586.92 815.443 1586.31 814.559L1586.34 814.547ZM1591.7 813.95C1592.14 813.245 1592.36 812.241 1592.36 810.95V802.968C1592.36 801.677 1592.14 800.685 1591.7 799.98C1591.26 799.275 1590.52 798.928 1589.48 798.928C1588.44 798.928 1587.71 799.287 1587.27 799.992C1586.83 800.697 1586.6 801.701 1586.6 802.968V810.95C1586.6 812.229 1586.83 813.221 1587.27 813.938C1587.71 814.655 1588.45 815.013 1589.48 815.013C1590.51 815.013 1591.27 814.655 1591.7 813.95Z" fill="#A4E3FF"/>
<path d="M1599.7 799.801C1599.47 800.135 1599.09 800.422 1598.57 800.685C1598.05 800.948 1597.59 801.127 1597.21 801.247V800.255C1597.63 800.135 1598.1 799.896 1598.61 799.526C1599.12 799.156 1599.55 798.725 1599.88 798.235H1600.87V815.658H1599.71V799.801H1599.7Z" fill="#A4E3FF"/>
<path d="M1806.3 502.091C1805.7 501.195 1805.39 499.928 1805.39 498.291V490.679C1805.39 489.054 1805.7 487.799 1806.32 486.915C1806.94 486.03 1807.98 485.576 1809.43 485.576C1810.88 485.576 1811.94 486.018 1812.56 486.915C1813.18 487.799 1813.49 489.054 1813.49 490.679V498.291C1813.49 499.94 1813.2 501.207 1812.59 502.103C1811.99 502.987 1810.92 503.441 1809.42 503.441C1807.91 503.441 1806.88 502.987 1806.27 502.103L1806.3 502.091ZM1811.67 501.494C1812.11 500.789 1812.32 499.785 1812.32 498.494V490.512C1812.32 489.221 1812.11 488.229 1811.67 487.524C1811.22 486.819 1810.48 486.472 1809.44 486.472C1808.4 486.472 1807.67 486.831 1807.23 487.536C1806.79 488.241 1806.56 489.245 1806.56 490.512V498.494C1806.56 499.773 1806.79 500.765 1807.23 501.482C1807.67 502.199 1808.41 502.557 1809.44 502.557C1810.47 502.557 1811.24 502.199 1811.67 501.494Z" fill="#A4E3FF"/>
<path d="M1818.5 502.091C1817.9 501.195 1817.59 499.928 1817.59 498.291V490.679C1817.59 489.054 1817.9 487.799 1818.53 486.915C1819.15 486.03 1820.19 485.576 1821.63 485.576C1823.08 485.576 1824.14 486.018 1824.77 486.915C1825.39 487.799 1825.7 489.054 1825.7 490.679V498.291C1825.7 499.94 1825.4 501.207 1824.79 502.103C1824.19 502.987 1823.13 503.441 1821.62 503.441C1820.12 503.441 1819.09 502.987 1818.48 502.103L1818.5 502.091ZM1823.87 501.494C1824.31 500.789 1824.53 499.785 1824.53 498.494V490.512C1824.53 489.221 1824.31 488.229 1823.87 487.524C1823.43 486.819 1822.69 486.472 1821.65 486.472C1820.61 486.472 1819.88 486.831 1819.43 487.536C1818.99 488.241 1818.77 489.245 1818.77 490.512V498.494C1818.77 499.773 1818.99 500.765 1819.43 501.482C1819.88 502.199 1820.62 502.557 1821.65 502.557C1822.67 502.557 1823.44 502.199 1823.87 501.494Z" fill="#A4E3FF"/>
<path d="M1829.71 500.968H1830.98V503.202H1829.71V500.968Z" fill="#A4E3FF"/>
<path d="M1836.74 487.345C1836.51 487.679 1836.13 487.966 1835.62 488.229C1835.09 488.492 1834.64 488.671 1834.26 488.791V487.799C1834.67 487.679 1835.14 487.44 1835.65 487.07C1836.17 486.699 1836.6 486.269 1836.92 485.779H1837.91V503.202H1836.75V487.345H1836.74Z" fill="#A4E3FF"/>
<path d="M1844.19 502.091C1843.59 501.195 1843.28 499.928 1843.28 498.291V490.679C1843.28 489.054 1843.59 487.799 1844.21 486.915C1844.83 486.03 1845.87 485.576 1847.32 485.576C1848.77 485.576 1849.83 486.018 1850.45 486.915C1851.07 487.799 1851.38 489.054 1851.38 490.679V498.291C1851.38 499.94 1851.09 501.207 1850.48 502.103C1849.88 502.987 1848.81 503.441 1847.31 503.441C1845.8 503.441 1844.77 502.987 1844.16 502.103L1844.19 502.091ZM1849.56 501.494C1850 500.789 1850.21 499.785 1850.21 498.494V490.512C1850.21 489.221 1850 488.229 1849.56 487.524C1849.11 486.819 1848.37 486.472 1847.33 486.472C1846.29 486.472 1845.56 486.831 1845.12 487.536C1844.68 488.241 1844.45 489.245 1844.45 490.512V498.494C1844.45 499.773 1844.68 500.765 1845.12 501.482C1845.56 502.199 1846.3 502.557 1847.33 502.557C1848.36 502.557 1849.13 502.199 1849.56 501.494Z" fill="#A4E3FF"/>
<path d="M1856.39 502.091C1855.79 501.195 1855.48 499.928 1855.48 498.291V490.679C1855.48 489.054 1855.79 487.799 1856.42 486.915C1857.04 486.03 1858.08 485.576 1859.52 485.576C1860.97 485.576 1862.03 486.018 1862.66 486.915C1863.28 487.799 1863.59 489.054 1863.59 490.679V498.291C1863.59 499.94 1863.29 501.207 1862.68 502.103C1862.08 502.987 1861.02 503.441 1859.51 503.441C1858.01 503.441 1856.98 502.987 1856.37 502.103L1856.39 502.091ZM1861.76 501.494C1862.2 500.789 1862.42 499.785 1862.42 498.494V490.512C1862.42 489.221 1862.2 488.229 1861.76 487.524C1861.32 486.819 1860.58 486.472 1859.54 486.472C1858.5 486.472 1857.77 486.831 1857.32 487.536C1856.88 488.241 1856.66 489.245 1856.66 490.512V498.494C1856.66 499.773 1856.88 500.765 1857.32 501.482C1857.77 502.199 1858.51 502.557 1859.54 502.557C1860.56 502.557 1861.33 502.199 1861.76 501.494Z" fill="#A4E3FF"/>
<path d="M1643.97 305.071C1643.74 305.406 1643.36 305.693 1642.85 305.956C1642.32 306.219 1641.87 306.398 1641.48 306.517V305.525C1641.9 305.406 1642.37 305.167 1642.88 304.796C1643.4 304.426 1643.83 303.996 1644.15 303.506H1645.14V320.929H1643.98V305.071H1643.97Z" fill="#A4E3FF"/>
<path d="M1650.42 318.683H1651.69V320.917H1650.42V318.683Z" fill="#A4E3FF"/>
<path d="M1658.24 303.506H1659.59L1663.27 320.929H1662.09L1661.18 316.113H1656.66L1655.74 320.929H1654.58L1658.24 303.506ZM1661.04 315.253L1658.94 304.928L1656.84 315.253H1661.04Z" fill="#A4E3FF"/>
<path d="M1669.38 303.506H1670.73L1674.41 320.929H1673.23L1672.32 316.113H1667.8L1666.88 320.929H1665.72L1669.38 303.506ZM1672.18 315.253L1670.08 304.928L1667.98 315.253H1672.18Z" fill="#A4E3FF"/>
<path d="M1226.42 237.638H1227.77L1231.45 255.061H1230.27L1229.36 250.245H1224.84L1223.92 255.061H1222.76L1226.42 237.638ZM1229.22 249.385L1227.11 239.06L1225.02 249.385H1229.22Z" fill="#A4E3FF"/>
<path d="M1235.62 253.949C1235.02 253.053 1234.71 251.787 1234.71 250.149V242.537C1234.71 240.912 1235.02 239.657 1235.65 238.773C1236.27 237.889 1237.31 237.435 1238.75 237.435C1240.2 237.435 1241.26 237.877 1241.89 238.773C1242.51 239.657 1242.82 240.912 1242.82 242.537V250.149C1242.82 251.798 1242.52 253.065 1241.91 253.961C1241.31 254.846 1240.25 255.3 1238.74 255.3C1237.24 255.3 1236.21 254.846 1235.6 253.961L1235.62 253.949ZM1240.99 253.352C1241.43 252.647 1241.65 251.643 1241.65 250.353V242.37C1241.65 241.079 1241.43 240.087 1240.99 239.382C1240.55 238.677 1239.81 238.331 1238.77 238.331C1237.73 238.331 1237 238.689 1236.55 239.394C1236.11 240.099 1235.88 241.103 1235.88 242.37V250.353C1235.88 251.631 1236.11 252.623 1236.55 253.34C1237 254.057 1237.74 254.416 1238.77 254.416C1239.79 254.416 1240.56 254.057 1240.99 253.352Z" fill="#A4E3FF"/>
<path d="M1246.25 247.258H1250.68V248.202H1246.25V247.258Z" fill="#A4E3FF"/>
<path d="M1254.99 253.949C1254.39 253.053 1254.08 251.787 1254.08 250.149V242.537C1254.08 240.912 1254.39 239.657 1255.01 238.773C1255.63 237.889 1256.67 237.435 1258.12 237.435C1259.56 237.435 1260.63 237.877 1261.25 238.773C1261.87 239.657 1262.18 240.912 1262.18 242.537V250.149C1262.18 251.798 1261.88 253.065 1261.27 253.961C1260.67 254.846 1259.61 255.3 1258.1 255.3C1256.6 255.3 1255.57 254.846 1254.96 253.961L1254.99 253.949ZM1260.35 253.352C1260.79 252.647 1261.01 251.643 1261.01 250.353V242.37C1261.01 241.079 1260.79 240.087 1260.35 239.382C1259.91 238.677 1259.17 238.331 1258.13 238.331C1257.09 238.331 1256.36 238.689 1255.92 239.394C1255.48 240.099 1255.25 241.103 1255.25 242.37V250.353C1255.25 251.631 1255.48 252.623 1255.92 253.34C1256.36 254.057 1257.1 254.416 1258.13 254.416C1259.16 254.416 1259.92 254.057 1260.35 253.352Z" fill="#A4E3FF"/>
<path d="M1268.35 239.215C1268.12 239.549 1267.74 239.836 1267.22 240.099C1266.7 240.362 1266.24 240.541 1265.86 240.661V239.669C1266.28 239.549 1266.75 239.31 1267.26 238.94C1267.77 238.57 1268.2 238.139 1268.53 237.649H1269.52V255.073H1268.36V239.215H1268.35Z" fill="#A4E3FF"/>
<path d="M1275.79 253.949C1275.2 253.053 1274.89 251.787 1274.89 250.149V242.537C1274.89 240.912 1275.2 239.657 1275.82 238.773C1276.44 237.889 1277.48 237.435 1278.93 237.435C1280.37 237.435 1281.44 237.877 1282.06 238.773C1282.68 239.657 1282.99 240.912 1282.99 242.537V250.149C1282.99 251.798 1282.69 253.065 1282.08 253.961C1281.48 254.846 1280.42 255.3 1278.91 255.3C1277.41 255.3 1276.38 254.846 1275.77 253.961L1275.79 253.949ZM1281.16 253.352C1281.6 252.647 1281.82 251.643 1281.82 250.353V242.37C1281.82 241.079 1281.6 240.087 1281.16 239.382C1280.72 238.677 1279.98 238.331 1278.94 238.331C1277.9 238.331 1277.17 238.689 1276.73 239.394C1276.28 240.099 1276.06 241.103 1276.06 242.37V250.353C1276.06 251.631 1276.28 252.623 1276.73 253.34C1277.17 254.057 1277.91 254.416 1278.94 254.416C1279.97 254.416 1280.73 254.057 1281.16 253.352Z" fill="#A4E3FF"/>
<path d="M671.316 509.01C726.358 509.01 726.358 521.725 781.411 521.725C836.465 521.725 836.453 522.478 891.495 522.478C946.536 522.478 946.548 499.892 1001.59 499.892C1056.63 499.892 1056.63 377.739 1111.67 377.739C1166.72 377.739 1166.73 595.206 1221.77 595.206C1276.81 595.206 1276.81 488.731 1331.85 488.731C1386.89 488.731 1386.91 467.603 1441.95 467.603C1496.99 467.603 1496.99 476.638 1552.03 476.638C1607.07 476.638 1607.08 353.373 1662.13 353.373C1717.17 353.373 1717.16 588.526 1772.2 588.526C1827.24 588.526 1827.23 314.596 1882.26 314.596C1937.29 314.596 1937.3 464.485 1992.34 464.485C2047.38 464.485 2047.38 422.899 2102.42 422.899C2157.47 422.899 2157.45 475.658 2212.48 475.658C2267.51 475.658 2267.53 521.928 2322.57 521.928C2377.61 521.928 2377.61 494.706 2432.64 494.694C2474.8 494.694 2495.09 538.049 2533.46 549.652C2597.99 569.167 2676.39 565.426 2742.81 558.34" stroke="url(#paint1_linear_603_3897)" stroke-width="3" stroke-miterlimit="10"/>
<path d="M2676.54 272.675C2622.15 267.369 2563.48 283.597 2514.74 258.861C2487.57 245.07 2460.68 219.916 2430.45 238.307C2410.4 250.508 2399.35 275.698 2389.63 295.918C2373.03 330.465 2354.76 397.003 2306.59 397.003C2231.64 397.003 2231.64 324.646 2156.71 324.646C2081.78 324.646 2081.78 701.106 2006.85 701.106C1931.92 701.106 1931.92 708.491 1857 708.491C1782.07 708.491 1782.07 218.267 1707.15 218.267C1632.22 218.267 1632.22 265.469 1557.28 265.469C1482.34 265.469 1482.35 422.886 1407.42 422.886C1349.05 422.886 1332.17 534.631 1313.65 573.922C1300.17 602.507 1278.56 638.584 1244.63 644.475C1191.96 653.617 1168.03 601.897 1130.42 580.853C1109.35 569.071 1083.42 579.467 1060.92 588.239C928.763 639.743 781.602 628.642 640.251 616.763" stroke="#00FFCC" stroke-width="5" stroke-miterlimit="10"/>
<defs>
<linearGradient id="paint0_linear_603_3897" x1="-631.684" y1="454.901" x2="1440" y2="454.901" gradientUnits="userSpaceOnUse">
<stop stop-color="#2965E2"/>
<stop offset="1" stop-color="#29D3E2"/>
</linearGradient>
<linearGradient id="paint1_linear_603_3897" x1="671.316" y1="454.901" x2="2743" y2="454.901" gradientUnits="userSpaceOnUse">
<stop stop-color="#2965E2"/>
<stop offset="1" stop-color="#29D3E2"/>
</linearGradient>
</defs>
</svg>
