<svg width="1126" height="553" viewBox="0 0 1126 553" fill="none" xmlns="http://www.w3.org/2000/svg">
<path d="M151.5 552.5L157.273 542.5H145.727L151.5 552.5ZM0.5 2.5H407.5V0.5H0.5V2.5ZM407.5 2.5H807V0.5H407.5V2.5ZM807 2.5H1044.5V0.5H807V2.5ZM1123.5 81.5V182.5H1125.5V81.5H1123.5ZM1044.5 261.5H407.5V263.5H1044.5V261.5ZM407.5 261.5H231.5V263.5H407.5V261.5ZM150.5 342.5V543.5H152.5V342.5H150.5ZM231.5 261.5C186.765 261.5 150.5 297.765 150.5 342.5H152.5C152.5 298.87 187.87 263.5 231.5 263.5V261.5ZM1123.5 182.5C1123.5 226.13 1088.13 261.5 1044.5 261.5V263.5C1089.23 263.5 1125.5 227.235 1125.5 182.5H1123.5ZM1044.5 2.5C1088.13 2.5 1123.5 37.8695 1123.5 81.5H1125.5C1125.5 36.7649 1089.23 0.5 1044.5 0.5V2.5Z" fill="#97D7FF"/>
</svg>
